<svg width="122" height="122" viewBox="0 0 122 122" fill="none" xmlns="http://www.w3.org/2000/svg">
<circle cx="61" cy="61" r="60" stroke="black" stroke-width="2"/>
<path d="M62 27C62 26.4477 61.5523 26 61 26C60.4477 26 60 26.4477 60 27L62 27ZM60.2929 96.7071C60.6834 97.0976 61.3166 97.0976 61.7071 96.7071L68.0711 90.3431C68.4616 89.9526 68.4616 89.3195 68.0711 88.9289C67.6805 88.5384 67.0474 88.5384 66.6569 88.9289L61 94.5858L55.3431 88.9289C54.9526 88.5384 54.3195 88.5384 53.9289 88.9289C53.5384 89.3195 53.5384 89.9526 53.9289 90.3431L60.2929 96.7071ZM60 27L60 96L62 96L62 27L60 27Z" fill="black"/>
</svg>
