<svg width="1031" height="1045" viewBox="0 0 1031 1045" fill="none" xmlns="http://www.w3.org/2000/svg">
<path opacity="0.45" d="M628.851 220.789L630.419 223.374C705.437 138.182 884.055 -58.6542 878.398 17.2355C873.872 77.9472 743.878 261.665 664.694 352.313C675.15 353.574 735.57 352.089 893.6 336.064C1091.14 316.033 1031.32 391.45 983.033 414.192C934.747 436.935 691.366 503.984 606.332 477.332C733.989 583.084 772.414 777.943 706.494 756.992C640.573 736.041 553.355 625.254 503.875 532.045C488.422 578.974 168.428 1207.18 222.399 1004.73C276.371 802.283 466.627 514.779 433.284 561.654C399.941 608.53 102.083 942.598 77.3383 912.215C52.5936 881.832 122.949 713.436 245.025 609.584C184.236 645.445 -2.23987 642.438 0.463748 613.337C3.07237 585.258 76.1817 558.341 285.632 468.192C168.369 509.827 -68.3283 482.279 27.0155 302.546C129.264 109.796 349.235 232.502 477.145 314.079L484.5 302.547C441.95 258.644 337.878 103.966 397.889 41.0022C472.362 -37.1338 556.922 102.237 628.851 220.789Z" fill="#963855"/>
</svg>
