<svg width="1171" height="806" viewBox="0 0 1171 806" fill="none" xmlns="http://www.w3.org/2000/svg">
<path opacity="0.45" d="M615.369 290.884L618.962 291.636C642.063 228.503 719.825 -34.036 767.563 3.68967C805.754 33.8702 771.157 242.105 749.084 342.45C761.66 339.884 828.083 320.893 993.165 265.46C1199.52 196.168 1186.43 250.062 1148.7 275.468C1110.97 300.875 886.909 406.354 772.953 419.442C990.855 430.991 1172.57 511.831 1084.02 521.84C995.474 531.849 819.151 505.672 697.496 476.415C713.666 503.362 803.752 898.327 719.825 785.92C635.899 673.513 643.598 479.495 639.749 511.831C635.899 544.168 541.192 792.849 491.914 785.92C442.636 778.99 533.493 554.176 595.86 467.946C553.512 503.362 210.875 681.982 193.166 667.353C176.079 653.239 238.558 618.339 408.269 512.167C306.961 567.415 22.9835 625.98 1.44431 511.831C-21.6548 389.415 237.055 367.088 438.019 367.088V359.389C359.225 351.433 207.182 323.511 229.357 275.468C256.876 215.849 450.59 256.395 615.369 290.884Z" fill="#382F38"/>
</svg>
