<svg width="661" height="120" viewBox="0 0 661 120" fill="none" xmlns="http://www.w3.org/2000/svg">
<g clip-path="url(#clip0_323_10)">
<path opacity="0.3" d="M51.185 114H50.185V115H51.185V114ZM51.185 1.99999V0.999992H50.185V1.99999H51.185ZM115.825 6.31999L115.35 7.1999L115.36 7.20552L115.371 7.2109L115.825 6.31999ZM128.465 18.16L127.601 18.6639L127.605 18.6705L127.609 18.6771L128.465 18.16ZM128.305 56.88L127.452 56.3578L127.449 56.3629L128.305 56.88ZM115.505 68.88L115.966 69.7672L115.973 69.7638L115.505 68.88ZM72.305 73.04V72.04H71.305V73.04H72.305ZM72.305 114V115H73.305V114H72.305ZM72.305 53.84H71.305V54.84H72.305V53.84ZM107.345 49.68L108.013 50.4246L108.013 50.4246L107.345 49.68ZM107.345 25.36L108.013 24.6154L108.013 24.6154L107.345 25.36ZM72.305 21.2V20.2H71.305V21.2H72.305ZM52.185 114V1.99999H50.185V114H52.185ZM51.185 2.99999H97.265V0.999992H51.185V2.99999ZM97.265 2.99999C104.166 2.99999 110.184 4.4106 115.35 7.1999L116.3 5.44009C110.799 2.46939 104.444 0.999992 97.265 0.999992V2.99999ZM115.371 7.2109C120.645 9.89993 124.714 13.7147 127.601 18.6639L129.329 17.6561C126.242 12.3653 121.885 8.28673 116.279 5.42909L115.371 7.2109ZM127.609 18.6771C130.593 23.6154 132.105 29.5097 132.105 36.4H134.105C134.105 29.2103 132.524 22.9446 129.321 17.6429L127.609 18.6771ZM132.105 36.4V38.64H134.105V36.4H132.105ZM132.105 38.64C132.105 45.4138 130.544 51.3082 127.452 56.3578L129.158 57.4021C132.466 51.9984 134.105 45.7328 134.105 38.64H132.105ZM127.449 56.3629C124.452 61.3231 120.322 65.1984 115.037 67.9962L115.973 69.7638C121.568 66.8016 125.971 62.6769 129.161 57.3971L127.449 56.3629ZM115.044 67.9928C109.871 70.6825 103.953 72.04 97.265 72.04V74.04C104.23 74.04 110.472 72.6242 115.966 69.7672L115.044 67.9928ZM97.265 72.04H72.305V74.04H97.265V72.04ZM71.305 73.04V114H73.305V73.04H71.305ZM72.305 113H51.185V115H72.305V113ZM72.305 54.84H95.185V52.84H72.305V54.84ZM95.185 54.84C100.391 54.84 104.699 53.3949 108.013 50.4246L106.677 48.9354C103.804 51.5118 100.005 52.84 95.185 52.84V54.84ZM108.013 50.4246C111.351 47.4313 112.985 43.3555 112.985 38.32H110.985C110.985 42.8845 109.526 46.382 106.677 48.9354L108.013 50.4246ZM112.985 38.32V36.72H110.985V38.32H112.985ZM112.985 36.72C112.985 31.6845 111.351 27.6087 108.013 24.6154L106.677 26.1046C109.526 28.658 110.985 32.1555 110.985 36.72H112.985ZM108.013 24.6154C104.699 21.6451 100.391 20.2 95.185 20.2V22.2C100.005 22.2 103.804 23.5282 106.677 26.1046L108.013 24.6154ZM95.185 20.2H72.305V22.2H95.185V20.2ZM71.305 21.2V53.84H73.305V21.2H71.305ZM148.388 114H147.388V115H148.388V114ZM148.388 34.64V33.64H147.388V34.64H148.388ZM168.228 34.64H169.228V33.64H168.228V34.64ZM168.228 43.6H167.228V44.6H168.228V43.6ZM171.108 43.6V44.6H171.806L172.046 43.9443L171.108 43.6ZM176.868 36.56L176.393 35.6795L176.386 35.6834L176.379 35.6875L176.868 36.56ZM196.068 34.32H197.068V33.32H196.068V34.32ZM196.068 52.24V53.24H197.068V52.24H196.068ZM173.508 56.4L174.135 57.1784L174.143 57.1724L174.15 57.1662L173.508 56.4ZM168.548 114V115H169.548V114H168.548ZM149.388 114V34.64H147.388V114H149.388ZM148.388 35.64H168.228V33.64H148.388V35.64ZM167.228 34.64V43.6H169.228V34.64H167.228ZM168.228 44.6H171.108V42.6H168.228V44.6ZM172.046 43.9443C173.148 40.9408 174.922 38.7955 177.356 37.4325L176.379 35.6875C173.48 37.3111 171.414 39.8592 170.169 43.2557L172.046 43.9443ZM177.342 37.4405C179.949 36.0367 182.981 35.32 186.468 35.32V33.32C182.701 33.32 179.333 34.0966 176.393 35.6795L177.342 37.4405ZM186.468 35.32H196.068V33.32H186.468V35.32ZM195.068 34.32V52.24H197.068V34.32H195.068ZM196.068 51.24H186.148V53.24H196.068V51.24ZM186.148 51.24C180.838 51.24 176.384 52.6824 172.865 55.6338L174.15 57.1662C177.244 54.5709 181.217 53.24 186.148 53.24V51.24ZM172.88 55.6216C169.265 58.5365 167.548 63.0314 167.548 68.88H169.548C169.548 63.4219 171.136 59.5969 174.135 57.1784L172.88 55.6216ZM167.548 68.88V114H169.548V68.88H167.548ZM168.548 113H148.388V115H168.548V113ZM224.213 111.28L223.716 112.148L223.725 112.153L223.735 112.158L224.213 111.28ZM210.133 97.04L209.251 97.5114L209.255 97.5205L209.261 97.5295L210.133 97.04ZM210.133 51.76L211.011 52.2378L211.014 52.2314L210.133 51.76ZM224.053 37.52L224.537 38.395L224.549 38.3882L224.053 37.52ZM265.173 37.68L264.651 38.5334L264.663 38.5403L265.173 37.68ZM278.612 52.08L277.724 52.5394L277.728 52.5457L278.612 52.08ZM283.413 80.24V81.24H284.413V80.24H283.413ZM225.653 80.24V79.24H224.613L224.653 80.2792L225.653 80.24ZM258.293 94.96L257.615 94.2241L258.293 94.96ZM264.373 86.8L264.837 85.9143L263.907 85.4271L263.465 86.3789L264.373 86.8ZM280.853 95.44L281.733 95.9141L282.212 95.0238L281.317 94.5543L280.853 95.44ZM274.293 104.56L273.538 103.903L273.537 103.905L274.293 104.56ZM263.093 112.88L263.523 113.782L263.532 113.779L263.54 113.774L263.093 112.88ZM225.813 65.2L224.825 65.0393L224.637 66.2H225.813V65.2ZM262.933 65.2V66.2H264.03L263.928 65.1074L262.933 65.2ZM257.333 54.16L256.678 54.9157L256.684 54.921L256.69 54.9262L257.333 54.16ZM245.173 115.24C237.422 115.24 230.604 113.618 224.69 110.402L223.735 112.158C229.981 115.556 237.136 117.24 245.173 117.24V115.24ZM224.709 110.412C218.895 107.09 214.33 102.475 211.004 96.5505L209.261 97.5295C212.761 103.765 217.584 108.644 223.716 112.148L224.709 110.412ZM211.014 96.5686C207.799 90.5517 206.173 83.4661 206.173 75.28H204.173C204.173 83.7339 205.853 91.1549 209.251 97.5114L211.014 96.5686ZM206.173 75.28V73.36H204.173V75.28H206.173ZM206.173 73.36C206.173 65.1733 207.799 58.1442 211.011 52.2378L209.254 51.2822C205.853 57.5358 204.173 64.9067 204.173 73.36H206.173ZM211.014 52.2314C214.233 46.2098 218.737 41.6055 224.537 38.3949L223.568 36.6451C217.421 40.0478 212.645 44.9369 209.251 51.2886L211.014 52.2314ZM224.549 38.3882C230.35 35.0733 237.107 33.4 244.852 33.4V31.4C236.811 31.4 229.702 33.14 223.556 36.6518L224.549 38.3882ZM244.852 33.4C252.484 33.4 259.071 35.1232 264.651 38.5333L265.694 36.8267C259.754 33.1968 252.794 31.4 244.852 31.4V33.4ZM264.663 38.5403C270.255 41.8541 274.607 46.5121 277.724 52.5394L279.501 51.6206C276.218 45.2745 271.61 40.3325 265.682 36.8197L264.663 38.5403ZM277.728 52.5457C280.839 58.4584 282.413 65.3865 282.413 73.36H284.413C284.413 65.1202 282.786 57.8616 279.497 51.6142L277.728 52.5457ZM282.413 73.36V80.24H284.413V73.36H282.413ZM283.413 79.24H225.653V81.24H283.413V79.24ZM224.653 80.2792C224.877 85.9729 227.012 90.6617 231.068 94.2674L232.397 92.7726C228.773 89.5517 226.855 85.3871 226.652 80.2008L224.653 80.2792ZM231.068 94.2674C235.106 97.857 240.042 99.64 245.813 99.64V97.64C240.49 97.64 236.039 96.0097 232.397 92.7726L231.068 94.2674ZM245.813 99.64C251.582 99.64 256.039 98.3925 258.97 95.6959L257.615 94.2241C255.213 96.4342 251.35 97.64 245.813 97.64V99.64ZM258.97 95.6959C261.723 93.1627 263.832 90.3382 265.28 87.2211L263.465 86.3789C262.139 89.2351 260.195 91.8506 257.615 94.2241L258.97 95.6959ZM263.908 87.6857L280.388 96.3257L281.317 94.5543L264.837 85.9143L263.908 87.6857ZM279.972 94.9659C278.525 97.654 276.387 100.633 273.538 103.903L275.047 105.217C277.958 101.874 280.194 98.7727 281.733 95.9141L279.972 94.9659ZM273.537 103.905C270.867 106.985 267.248 109.684 262.645 111.986L263.54 113.774C268.323 111.383 272.171 108.535 275.048 105.215L273.537 103.905ZM262.662 111.978C258.145 114.133 252.332 115.24 245.173 115.24V117.24C252.52 117.24 258.653 116.107 263.523 113.782L262.662 111.978ZM225.813 66.2H262.933V64.2H225.813V66.2ZM263.928 65.1074C263.479 60.278 261.498 56.3486 257.975 53.3938L256.69 54.9262C259.78 57.5181 261.533 60.9487 261.937 65.2926L263.928 65.1074ZM257.987 53.4043C254.566 50.4389 250.101 49 244.693 49V51C249.737 51 253.699 52.3344 256.678 54.9157L257.987 53.4043ZM244.693 49C239.082 49 234.506 50.4328 231.078 53.4043L232.387 54.9157C235.359 52.3405 239.423 51 244.693 51V49ZM231.078 53.4043C227.683 56.3463 225.606 60.2457 224.825 65.0393L226.8 65.3607C227.512 60.981 229.382 57.5204 232.387 54.9157L231.078 53.4043ZM301.356 114H300.356V115H301.356V114ZM301.356 34.64V33.64H300.356V34.64H301.356ZM321.196 34.64H322.196V33.64H321.196V34.64ZM321.196 45.04H320.196V46.04H321.196V45.04ZM324.076 45.04V46.04H324.716L324.984 45.4591L324.076 45.04ZM331.276 37.2L331.848 38.0204L331.856 38.0146L331.864 38.0087L331.276 37.2ZM363.436 37.68L362.904 38.5269L362.916 38.5341L362.928 38.5409L363.436 37.68ZM374.316 49.36L373.426 49.8148L373.43 49.8226L374.316 49.36ZM378.156 114V115H379.156V114H378.156ZM357.996 114H356.996V115H357.996V114ZM353.516 54.8L352.796 55.4941L352.803 55.5007L352.809 55.5071L353.516 54.8ZM326.636 56.56L327.401 57.2042L327.409 57.1943L326.636 56.56ZM321.516 114V115H322.516V114H321.516ZM302.356 114V34.64H300.356V114H302.356ZM301.356 35.64H321.196V33.64H301.356V35.64ZM320.196 34.64V45.04H322.196V34.64H320.196ZM321.196 46.04H324.076V44.04H321.196V46.04ZM324.984 45.4591C326.166 42.8994 328.418 40.4112 331.848 38.0204L330.704 36.3796C327.095 38.8954 324.547 41.634 323.168 44.6209L324.984 45.4591ZM331.864 38.0087C335.135 35.6301 340.217 34.36 347.276 34.36V32.36C340.042 32.36 334.457 33.6499 330.688 36.3913L331.864 38.0087ZM347.276 34.36C353.302 34.36 358.499 35.7606 362.904 38.5269L363.968 36.8331C359.2 33.8394 353.624 32.36 347.276 32.36V34.36ZM362.928 38.5409C367.452 41.2145 370.949 44.9645 373.426 49.8148L375.207 48.9052C372.564 43.7288 368.807 39.6921 363.945 36.8191L362.928 38.5409ZM373.43 49.8226C375.902 54.5611 377.156 60.1565 377.156 66.64H379.156C379.156 59.8968 377.851 53.9722 375.203 48.8974L373.43 49.8226ZM377.156 66.64V114H379.156V66.64H377.156ZM378.156 113H357.996V115H378.156V113ZM358.996 114V68.24H356.996V114H358.996ZM358.996 68.24C358.996 62.1125 357.464 57.3332 354.223 54.0929L352.809 55.5071C355.542 58.2401 356.996 62.4208 356.996 68.24H358.996ZM354.236 54.1059C351.114 50.8682 346.659 49.32 341.036 49.32V51.32C346.293 51.32 350.158 52.7585 352.796 55.4941L354.236 54.1059ZM341.036 49.32C334.6 49.32 329.496 51.498 325.863 55.9257L327.409 57.1943C330.603 53.302 335.099 51.32 341.036 51.32V49.32ZM325.871 55.9159C322.256 60.2086 320.516 66.1753 320.516 73.68H322.516C322.516 66.4647 324.189 61.018 327.401 57.2041L325.871 55.9159ZM320.516 73.68V114H322.516V73.68H320.516ZM321.516 113H301.356V115H321.516V113ZM407.47 109.52L408.031 108.692L408.031 108.692L407.47 109.52ZM395.47 90.32L395.22 89.3519L394.333 89.5811L394.484 90.4844L395.47 90.32ZM414.03 85.52L415.011 85.3239L414.803 84.2871L413.78 84.5519L414.03 85.52ZM417.71 94.32L416.929 94.9447L416.938 94.9563L416.948 94.9676L417.71 94.32ZM424.27 98.96L423.919 99.8963L423.942 99.9049L423.965 99.9124L424.27 98.96ZM443.31 97.84L443.891 98.6537L443.904 98.6448L443.916 98.6354L443.31 97.84ZM443.47 86L442.925 86.8384L442.94 86.8482L442.956 86.8575L443.47 86ZM433.23 82.64L433.409 81.6561L433.406 81.6556L433.23 82.64ZM428.75 81.84L428.561 82.8221L428.574 82.8244L428.75 81.84ZM413.55 77.52L413.164 78.4424L413.173 78.4463L413.182 78.45L413.55 77.52ZM402.51 69.68L401.744 70.3226L401.744 70.3226L402.51 69.68ZM406.99 38.8L407.576 39.6107L407.585 39.6036L406.99 38.8ZM451.79 38.32L451.232 39.1497L451.232 39.1497L451.79 38.32ZM463.31 53.84L463.604 54.7958L464.539 54.5082L464.272 53.5674L463.31 53.84ZM444.59 59.6L443.611 59.806L443.837 60.8779L444.884 60.5558L444.59 59.6ZM439.31 50.96L438.755 51.792L438.763 51.7972L438.771 51.8023L439.31 50.96ZM420.91 50.48L421.444 51.3255L421.46 51.3157L421.475 51.3053L420.91 50.48ZM421.07 61.68L420.556 62.5375L420.572 62.5472L420.588 62.5562L421.07 61.68ZM429.71 64.4L429.886 63.4156L429.884 63.4152L429.71 64.4ZM450.35 69.52L449.997 70.4555L450.009 70.4601L450.021 70.4645L450.35 69.52ZM461.87 77.04L461.104 77.6826L461.115 77.696L461.127 77.709L461.87 77.04ZM457.07 109.52L457.67 110.32L457.672 110.318L457.07 109.52ZM432.91 115.24C422.705 115.24 414.436 113.031 408.031 108.692L406.909 110.348C413.731 114.969 422.422 117.24 432.91 117.24V115.24ZM408.031 108.692C401.658 104.375 397.801 98.2224 396.456 90.1556L394.484 90.4844C395.912 99.0576 400.055 105.705 406.909 110.348L408.031 108.692ZM395.72 91.2881L414.28 86.4881L413.78 84.5519L395.22 89.3519L395.72 91.2881ZM413.049 85.7161C413.816 89.548 415.091 92.6472 416.929 94.9447L418.491 93.6953C416.916 91.7261 415.738 88.9587 415.011 85.3239L413.049 85.7161ZM416.948 94.9676C418.869 97.2273 421.196 98.8751 423.919 99.8963L424.621 98.0237C422.224 97.1249 420.178 95.6793 418.472 93.6724L416.948 94.9676ZM423.965 99.9124C426.74 100.8 429.724 101.24 432.91 101.24V99.24C429.909 99.24 427.133 98.8263 424.575 98.0076L423.965 99.9124ZM432.91 101.24C437.68 101.24 441.399 100.434 443.891 98.6537L442.729 97.0263C440.741 98.4462 437.527 99.24 432.91 99.24V101.24ZM443.916 98.6354C446.363 96.7714 447.67 94.4144 447.67 91.6H445.67C445.67 93.6923 444.737 95.4953 442.704 97.0446L443.916 98.6354ZM447.67 91.6C447.67 88.7894 446.414 86.6001 443.984 85.1425L442.956 86.8575C444.793 87.9599 445.67 89.504 445.67 91.6H447.67ZM444.015 85.1616C441.711 83.6643 438.139 82.5161 433.409 81.6561L433.051 83.6239C437.708 84.4706 440.962 85.5624 442.925 86.8384L444.015 85.1616ZM433.406 81.6556L428.926 80.8556L428.574 82.8244L433.054 83.6244L433.406 81.6556ZM428.939 80.858C423.445 79.8014 418.439 78.3775 413.918 76.59L413.182 78.45C417.834 80.2892 422.962 81.7452 428.561 82.822L428.939 80.858ZM413.936 76.5976C409.474 74.7298 405.932 72.2044 403.276 69.0374L401.744 70.3226C404.634 73.7689 408.452 76.4702 413.164 78.4424L413.936 76.5976ZM403.276 69.0374C400.684 65.9467 399.35 61.9232 399.35 56.88H397.35C397.35 62.2901 398.789 66.7999 401.744 70.3226L403.276 69.0374ZM399.35 56.88C399.35 49.2665 402.108 43.5597 407.575 39.6107L406.405 37.9893C400.352 42.3603 397.35 48.7068 397.35 56.88H399.35ZM407.585 39.6036C413.126 35.4989 420.471 33.4 429.71 33.4V31.4C420.175 31.4 412.374 33.5677 406.395 37.9964L407.585 39.6036ZM429.71 33.4C438.415 33.4 445.567 35.3391 451.232 39.1497L452.348 37.4903C446.279 33.4075 438.712 31.4 429.71 31.4V33.4ZM451.232 39.1497C456.916 42.9733 460.603 47.9553 462.348 54.1126L464.272 53.5674C462.39 46.9247 458.398 41.56 452.348 37.4903L451.232 39.1497ZM463.016 52.8842L444.296 58.6442L444.884 60.5558L463.604 54.7958L463.016 52.8842ZM445.569 59.394C444.678 55.1626 442.805 52.0096 439.849 50.1177L438.771 51.8023C441.148 53.3237 442.796 55.9307 443.611 59.806L445.569 59.394ZM439.865 50.1279C437.104 48.2874 433.698 47.4 429.71 47.4V49.4C433.402 49.4 436.396 50.2193 438.755 51.792L439.865 50.1279ZM429.71 47.4C425.774 47.4 422.608 48.1066 420.345 49.6547L421.475 51.3053C423.265 50.0801 425.966 49.4 429.71 49.4V47.4ZM420.376 49.6345C418.067 51.0929 416.87 53.2214 416.87 55.92H418.87C418.87 53.9253 419.7 52.427 421.444 51.3255L420.376 49.6345ZM416.87 55.92C416.87 58.8188 418.11 61.0704 420.556 62.5375L421.584 60.8225C419.763 59.7296 418.87 58.1412 418.87 55.92H416.87ZM420.588 62.5562C422.853 63.8021 425.851 64.7345 429.536 65.3848L429.884 63.4152C426.316 62.7855 423.553 61.9045 421.552 60.8038L420.588 62.5562ZM429.534 65.3844L434.014 66.1844L434.366 64.2156L429.886 63.4156L429.534 65.3844ZM434.014 66.1844C439.938 67.2422 445.263 68.6674 449.997 70.4555L450.703 68.5845C445.837 66.7459 440.389 65.2912 434.366 64.2156L434.014 66.1844ZM450.021 70.4645C454.793 72.124 458.468 74.54 461.104 77.6826L462.636 76.3974C459.725 72.9267 455.721 70.3293 450.679 68.5755L450.021 70.4645ZM461.127 77.709C463.798 80.6773 465.19 84.7871 465.19 90.16H467.19C467.19 84.4396 465.702 79.8027 462.613 76.371L461.127 77.709ZM465.19 90.16C465.19 98.1997 462.272 104.343 456.468 108.722L457.672 110.318C464.028 105.523 467.19 98.7603 467.19 90.16H465.19ZM456.47 108.72C450.722 113.031 442.903 115.24 432.91 115.24V117.24C443.183 117.24 451.471 114.969 457.67 110.32L456.47 108.72ZM492.671 113.36L492.259 114.271L492.268 114.275L492.277 114.279L492.671 113.36ZM481.951 104.72L481.119 105.275L481.128 105.288L481.138 105.301L481.951 104.72ZM481.951 77.2L481.138 76.6188L481.134 76.6233L481.951 77.2ZM492.831 68.88L493.199 69.81L493.21 69.8055L492.831 68.88ZM530.591 66V67H531.591V66H530.591ZM527.071 52.4L526.349 53.0912L526.356 53.0992L526.364 53.1071L527.071 52.4ZM504.671 52.24L505.346 52.9785L505.354 52.9707L505.362 52.9626L504.671 52.24ZM499.871 61.04L499.553 61.9879L500.623 62.3477L500.851 61.2416L499.871 61.04ZM481.311 54.8L480.358 54.4989L480.062 55.435L480.993 55.7479L481.311 54.8ZM487.391 43.76L486.627 43.1151L486.625 43.1174L487.391 43.76ZM498.751 35.6L499.148 36.5181L499.157 36.5138L498.751 35.6ZM540.991 40.24L540.339 40.9983L540.339 40.9983L540.991 40.24ZM560.991 97.36H561.991V96.36H560.991V97.36ZM560.991 114V115H561.991V114H560.991ZM537.791 111.12L537.191 111.92L537.191 111.92L537.791 111.12ZM533.951 103.28H534.951V102.28H533.951V103.28ZM530.911 103.28V102.28H530.19L529.963 102.964L530.911 103.28ZM528.031 108.4L528.836 108.993L528.844 108.983L528.85 108.973L528.031 108.4ZM520.991 113.84L521.438 114.734L520.991 113.84ZM525.151 95.28L525.811 96.0312L525.813 96.0298L525.151 95.28ZM530.591 81.04H531.591V80.04H530.591V81.04ZM501.471 83.44L502.071 84.24L502.071 84.24L501.471 83.44ZM501.631 97.2L501.002 97.9772L501.002 97.9772L501.631 97.2ZM507.871 115.24C502.332 115.24 497.402 114.3 493.065 112.441L492.277 114.279C496.9 116.26 502.104 117.24 507.871 117.24V115.24ZM493.083 112.449C488.752 110.489 485.322 107.718 482.765 104.139L481.138 105.301C483.914 109.188 487.63 112.177 492.259 114.271L493.083 112.449ZM482.783 104.165C480.351 100.517 479.111 96.0786 479.111 90.8H477.111C477.111 96.4014 478.431 101.243 481.119 105.275L482.783 104.165ZM479.111 90.8C479.111 85.5193 480.352 81.1998 482.768 77.7767L481.134 76.6233C478.431 80.4536 477.111 85.2007 477.111 90.8H479.111ZM482.765 77.7812C485.311 74.2165 488.777 71.558 493.199 69.81L492.464 67.95C487.712 69.8287 483.925 72.7168 481.138 76.6188L482.765 77.7812ZM493.21 69.8055C497.764 67.9426 502.965 67 508.831 67V65C502.751 65 497.286 65.9774 492.453 67.9545L493.21 69.8055ZM508.831 67H530.591V65H508.831V67ZM531.591 66V61.52H529.591V66H531.591ZM531.591 61.52C531.591 57.5576 530.337 54.2512 527.778 51.6929L526.364 53.1071C528.499 55.2421 529.591 58.0157 529.591 61.52H531.591ZM527.794 51.7088C525.181 48.977 521.126 47.72 515.871 47.72V49.72C520.856 49.72 524.268 50.9163 526.349 53.0912L527.794 51.7088ZM515.871 47.72C510.722 47.72 506.692 48.9236 503.98 51.5174L505.362 52.9626C507.557 50.8631 510.994 49.72 515.871 49.72V47.72ZM503.997 51.5015C501.37 53.9 499.676 57.0298 498.892 60.8383L500.851 61.2416C501.56 57.7968 503.066 55.06 505.346 52.9785L503.997 51.5015ZM500.19 60.0921L481.63 53.8521L480.993 55.7479L499.553 61.9879L500.19 60.0921ZM482.265 55.1011C483.505 51.1748 485.467 47.6104 488.157 44.4026L486.625 43.1174C483.769 46.5229 481.678 50.3186 480.358 54.4989L482.265 55.1011ZM488.156 44.4049C490.922 41.1259 494.576 38.4923 499.148 36.5181L498.355 34.6819C493.54 36.7611 489.62 39.5674 486.627 43.1151L488.156 44.4049ZM499.157 36.5138C503.797 34.4516 509.464 33.4 516.191 33.4V31.4C509.265 31.4 503.305 32.4817 498.345 34.6862L499.157 36.5138ZM516.191 33.4C526.479 33.4 534.49 35.9699 540.339 40.9983L541.643 39.4817C535.333 34.0568 526.81 31.4 516.191 31.4V33.4ZM540.339 40.9983C546.147 45.991 549.111 53.2563 549.111 62.96H551.111C551.111 52.8237 547.995 44.9424 541.643 39.4817L540.339 40.9983ZM549.111 62.96V92.56H551.111V62.96H549.111ZM549.111 92.56C549.111 94.2976 549.515 95.7871 550.5 96.8423C551.497 97.9105 552.925 98.36 554.591 98.36V96.36C553.27 96.36 552.459 96.0095 551.962 95.4777C551.454 94.9329 551.111 94.0224 551.111 92.56H549.111ZM554.591 98.36H560.991V96.36H554.591V98.36ZM559.991 97.36V114H561.991V97.36H559.991ZM560.991 113H547.551V115H560.991V113ZM547.551 113C543.769 113 540.741 112.082 538.391 110.32L537.191 111.92C539.961 113.998 543.44 115 547.551 115V113ZM538.391 110.32C536.083 108.589 534.951 106.325 534.951 103.44H532.951C532.951 106.955 534.379 109.811 537.191 111.92L538.391 110.32ZM534.951 103.44V103.28H532.951V103.44H534.951ZM533.951 102.28H530.911V104.28H533.951V102.28ZM529.963 102.964C529.583 104.103 528.691 105.713 527.212 107.827L528.85 108.973C530.358 106.82 531.386 105.017 531.86 103.596L529.963 102.964ZM527.226 107.807C525.858 109.664 523.658 111.388 520.544 112.946L521.438 114.734C524.724 113.092 527.218 111.189 528.836 108.993L527.226 107.807ZM520.544 112.946C517.539 114.448 513.34 115.24 507.871 115.24V117.24C513.496 117.24 518.044 116.432 521.438 114.734L520.544 112.946ZM511.391 100.92C517.235 100.92 522.073 99.3165 525.811 96.0312L524.491 94.5288C521.19 97.4302 516.854 98.92 511.391 98.92V100.92ZM525.813 96.0298C529.673 92.6234 531.591 88.1275 531.591 82.64H529.591C529.591 87.6058 527.882 91.5366 524.49 94.5302L525.813 96.0298ZM531.591 82.64V81.04H529.591V82.64H531.591ZM530.591 80.04H510.271V82.04H530.591V80.04ZM510.271 80.04C506.406 80.04 503.235 80.8673 500.871 82.64L502.071 84.24C503.974 82.8127 506.67 82.04 510.271 82.04V80.04ZM500.871 82.64C498.464 84.4457 497.271 86.9945 497.271 90.16H499.271C499.271 87.5655 500.212 85.6343 502.071 84.24L500.871 82.64ZM497.271 90.16C497.271 93.342 498.528 95.9742 501.002 97.9772L502.26 96.4228C500.255 94.7991 499.271 92.738 499.271 90.16H497.271ZM501.002 97.9772C503.488 99.9897 507.002 100.92 511.391 100.92V98.92C507.248 98.92 504.254 98.037 502.26 96.4228L501.002 97.9772ZM611.818 82.32H610.818V83.32H611.818V82.32ZM611.818 64.08V63.08H610.818V64.08H611.818ZM659.178 64.08H660.178V63.08H659.178V64.08ZM659.178 82.32V83.32H660.178V82.32H659.178ZM612.818 82.32V64.08H610.818V82.32H612.818ZM611.818 65.08H659.178V63.08H611.818V65.08ZM658.178 64.08V82.32H660.178V64.08H658.178ZM659.178 81.32H611.818V83.32H659.178V81.32Z" fill="black"/>
</g>
<defs>
<clipPath id="clip0_323_10">
<rect width="661" height="120" fill="white"/>
</clipPath>
</defs>
</svg>
