<svg width="1822" height="189" viewBox="0 0 1822 189" fill="none" xmlns="http://www.w3.org/2000/svg">
<path opacity="0.3" d="M30.08 145.28L29.6155 146.166L29.6241 146.17L29.6328 146.174L30.08 145.28ZM15.04 130.88L14.161 131.357L14.1658 131.366L14.1708 131.375L15.04 130.88ZM9.92 36V35H8.92V36H9.92ZM31.04 36H32.04V35H31.04V36ZM36.8 125.44L36.0832 126.137L36.0929 126.147L36.8 125.44ZM70.56 125.44L69.8528 124.733L69.8433 124.743L70.56 125.44ZM76.48 36V35H75.48V36H76.48ZM97.6 36H98.6V35H97.6V36ZM92.32 130.88L91.4472 130.392L91.4444 130.397L92.32 130.88ZM77.28 145.28L77.7331 146.172L77.7386 146.169L77.28 145.28ZM41.28 26.72L40.3995 26.2459L39.6058 27.72H41.28V26.72ZM52.48 5.91999V4.91999H51.8827L51.5995 5.44589L52.48 5.91999ZM75.84 5.91999L76.6209 6.54468L77.9206 4.91999H75.84V5.91999ZM59.2 26.72V27.72H59.6806L59.9809 27.3447L59.2 26.72ZM53.76 149.24C44.7053 149.24 36.9723 147.608 30.5272 144.386L29.6328 146.174C36.4144 149.565 44.468 151.24 53.76 151.24V149.24ZM30.5446 144.394C24.2016 141.067 19.3313 136.4 15.9092 130.385L14.1708 131.375C17.7887 137.733 22.945 142.666 29.6155 146.166L30.5446 144.394ZM15.919 130.403C12.599 124.282 10.92 117.039 10.92 108.64H8.92C8.92 117.308 10.6543 124.891 14.161 131.357L15.919 130.403ZM10.92 108.64V36H8.92V108.64H10.92ZM9.92 37H31.04V35H9.92V37ZM30.04 36V109.28H32.04V36H30.04ZM30.04 109.28C30.04 116.301 32.0204 121.962 36.0833 126.137L37.5167 124.743C33.8996 121.025 32.04 115.912 32.04 109.28H30.04ZM36.0929 126.147C40.2811 130.335 46.2224 132.36 53.76 132.36V130.36C46.5776 130.36 41.2122 128.438 37.5071 124.733L36.0929 126.147ZM53.76 132.36C61.2958 132.36 67.1916 130.336 71.2767 126.137L69.8433 124.743C66.2484 128.437 60.9442 130.36 53.76 130.36V132.36ZM71.2671 126.147C75.4416 121.973 77.48 116.309 77.48 109.28H75.48C75.48 115.904 73.5718 121.014 69.8529 124.733L71.2671 126.147ZM77.48 109.28V36H75.48V109.28H77.48ZM76.48 37H97.6V35H76.48V37ZM96.6 36V108.64H98.6V36H96.6ZM96.6 108.64C96.6 117.034 94.8697 124.273 91.4472 130.392L93.1928 131.368C96.8103 124.9 98.6 117.313 98.6 108.64H96.6ZM91.4444 130.397C88.1321 136.401 83.2685 141.064 76.8214 144.391L77.7386 146.169C84.5182 142.67 89.6813 137.733 93.1956 131.363L91.4444 130.397ZM76.827 144.389C70.4921 147.608 62.8154 149.24 53.76 149.24V151.24C63.0513 151.24 71.0546 149.565 77.7331 146.171L76.827 144.389ZM42.1605 27.1941L53.3605 6.39409L51.5995 5.44589L40.3995 26.2459L42.1605 27.1941ZM52.48 6.91999H75.84V4.91999H52.48V6.91999ZM75.0591 5.29529L58.4191 26.0953L59.9809 27.3447L76.6209 6.54468L75.0591 5.29529ZM59.2 25.72H41.28V27.72H59.2V25.72ZM118.7 148H117.7V149H118.7V148ZM118.7 36V35H117.7V36H118.7ZM138.86 36H139.86V35H138.86V36ZM138.86 148V149H139.86V148H138.86ZM119.7 148V36H117.7V148H119.7ZM118.7 37H138.86V35H118.7V37ZM137.86 36V148H139.86V36H137.86ZM138.86 147H118.7V149H138.86V147ZM178.8 143.2L178.081 143.895L178.093 143.907L178.105 143.919L178.8 143.2ZM174 85.28H175V84.28H174V85.28ZM154.16 85.28H153.16V86.28H154.16V85.28ZM154.16 68.64V67.64H153.16V68.64H154.16ZM174 68.64V69.64H175V68.64H174ZM174 44V43H173V44H174ZM194.16 44H195.16V43H194.16V44ZM194.16 68.64H193.16V69.64H194.16V68.64ZM215.92 68.64H216.92V67.64H215.92V68.64ZM215.92 85.28V86.28H216.92V85.28H215.92ZM194.16 85.28V84.28H193.16V85.28H194.16ZM214 131.36H215V130.36H214V131.36ZM214 148V149H215V148H214ZM191.6 147C186.595 147 182.59 145.476 179.495 142.481L178.105 143.919C181.624 147.324 186.152 149 191.6 149V147ZM179.519 142.505C176.531 139.418 175 135.311 175 130.08H173C173 135.729 174.669 140.369 178.081 143.895L179.519 142.505ZM175 130.08V85.28H173V130.08H175ZM174 84.28H154.16V86.28H174V84.28ZM155.16 85.28V68.64H153.16V85.28H155.16ZM154.16 69.64H174V67.64H154.16V69.64ZM175 68.64V44H173V68.64H175ZM174 45H194.16V43H174V45ZM193.16 44V68.64H195.16V44H193.16ZM194.16 69.64H215.92V67.64H194.16V69.64ZM214.92 68.64V85.28H216.92V68.64H214.92ZM215.92 84.28H194.16V86.28H215.92V84.28ZM193.16 85.28V126.56H195.16V85.28H193.16ZM193.16 126.56C193.16 128.298 193.564 129.787 194.549 130.842C195.546 131.911 196.974 132.36 198.64 132.36V130.36C197.319 130.36 196.507 130.009 196.011 129.478C195.503 128.933 195.16 128.022 195.16 126.56H193.16ZM198.64 132.36H214V130.36H198.64V132.36ZM213 131.36V148H215V131.36H213ZM214 147H191.6V149H214V147ZM234.169 148H233.169V149H234.169V148ZM234.169 68.64V67.64H233.169V68.64H234.169ZM254.329 68.64H255.329V67.64H254.329V68.64ZM254.329 148V149H255.329V148H254.329ZM234.969 55.84L234.278 56.5626L234.285 56.57L234.293 56.5771L234.969 55.84ZM234.969 37.28L234.293 36.5428L234.285 36.55L234.278 36.5574L234.969 37.28ZM235.169 148V68.64H233.169V148H235.169ZM234.169 69.64H254.329V67.64H234.169V69.64ZM253.329 68.64V148H255.329V68.64H253.329ZM254.329 147H234.169V149H254.329V147ZM244.249 58.36C240.86 58.36 238.011 57.2724 235.644 55.1028L234.293 56.5771C237.046 59.1009 240.384 60.36 244.249 60.36V58.36ZM235.66 55.1174C233.431 52.9849 232.289 50.1663 232.289 46.56H230.289C230.289 50.6337 231.6 54.0018 234.278 56.5626L235.66 55.1174ZM232.289 46.56C232.289 42.9537 233.431 40.1351 235.66 38.0026L234.278 36.5574C231.6 39.1182 230.289 42.4863 230.289 46.56H232.289ZM235.644 38.0171C238.011 35.8476 240.86 34.76 244.249 34.76V32.76C240.384 32.76 237.046 34.0191 234.293 36.5428L235.644 38.0171ZM244.249 34.76C247.753 34.76 250.59 35.8524 252.838 38.0026L254.22 36.5574C251.561 34.0142 248.212 32.76 244.249 32.76V34.76ZM252.838 38.0026C255.067 40.1351 256.209 42.9537 256.209 46.56H258.209C258.209 42.4863 256.897 39.1182 254.22 36.5574L252.838 38.0026ZM256.209 46.56C256.209 50.1663 255.067 52.9849 252.838 55.1174L254.22 56.5626C256.897 54.0018 258.209 50.6337 258.209 46.56H256.209ZM252.838 55.1174C250.59 57.2675 247.753 58.36 244.249 58.36V60.36C248.212 60.36 251.561 59.1058 254.22 56.5626L252.838 55.1174ZM276.669 148H275.669V149H276.669V148ZM276.669 68.64V67.64H275.669V68.64H276.669ZM296.509 68.64H297.509V67.64H296.509V68.64ZM296.509 77.28H295.509V78.28H296.509V77.28ZM299.389 77.28V78.28H299.996L300.276 77.7413L299.389 77.28ZM306.269 70.4L306.783 71.2575L306.794 71.2513L306.804 71.2448L306.269 70.4ZM332.509 70.72L331.96 71.556L331.969 71.5621L331.979 71.568L332.509 70.72ZM340.349 79.2L339.46 79.658L339.739 80.2H340.349V79.2ZM343.229 79.2V80.2H343.83L344.112 79.6692L343.229 79.2ZM350.909 70.72L351.47 71.5479L351.47 71.5479L350.909 70.72ZM378.269 70.56L377.793 71.4397L377.807 71.4473L377.822 71.4544L378.269 70.56ZM387.869 80L386.993 80.4819L387 80.4951L387.007 80.508L387.869 80ZM391.549 148V149H392.549V148H391.549ZM371.389 148H370.389V149H371.389V148ZM368.029 87.52L367.322 88.2271L367.33 88.2357L367.339 88.2441L368.029 87.52ZM347.869 88.64L347.109 87.9892L347.108 87.9915L347.869 88.64ZM344.189 148V149H345.189V148H344.189ZM324.029 148H323.029V149H324.029V148ZM320.669 87.52L319.962 88.2271L319.97 88.2357L319.979 88.2441L320.669 87.52ZM300.509 88.64L299.749 87.9892L299.748 87.9915L300.509 88.64ZM296.829 148V149H297.829V148H296.829ZM277.669 148V68.64H275.669V148H277.669ZM276.669 69.64H296.509V67.64H276.669V69.64ZM295.509 68.64V77.28H297.509V68.64H295.509ZM296.509 78.28H299.389V76.28H296.509V78.28ZM300.276 77.7413C301.559 75.274 303.704 73.1053 306.783 71.2575L305.754 69.5425C302.434 71.5347 299.992 73.9526 298.502 76.8186L300.276 77.7413ZM306.804 71.2448C309.794 69.3511 313.802 68.36 318.909 68.36V66.36C313.562 66.36 309.144 67.3955 305.734 69.5552L306.804 71.2448ZM318.909 68.36C324.44 68.36 328.761 69.4568 331.96 71.556L333.057 69.884C329.43 67.5032 324.685 66.36 318.909 66.36V68.36ZM331.979 71.568C335.242 73.6076 337.73 76.3007 339.46 79.658L341.238 78.742C339.341 75.0593 336.602 72.099 333.039 69.872L331.979 71.568ZM340.349 80.2H343.229V78.2H340.349V80.2ZM344.112 79.6692C345.846 76.4048 348.293 73.6996 351.47 71.5479L350.348 69.8921C346.911 72.2204 344.238 75.1685 342.346 78.7308L344.112 79.6692ZM351.47 71.5479C354.545 69.4645 359.011 68.36 364.989 68.36V66.36C358.806 66.36 353.886 67.4955 350.348 69.8921L351.47 71.5479ZM364.989 68.36C369.745 68.36 374.006 69.3926 377.793 71.4397L378.744 69.6803C374.638 67.4608 370.046 66.36 364.989 66.36V68.36ZM377.822 71.4544C381.68 73.3834 384.736 76.3792 386.993 80.4819L388.745 79.5181C386.308 75.0875 382.965 71.7899 378.716 69.6656L377.822 71.4544ZM387.007 80.508C389.345 84.4719 390.549 89.5623 390.549 95.84H392.549C392.549 89.3177 391.299 83.8481 388.73 79.492L387.007 80.508ZM390.549 95.84V148H392.549V95.84H390.549ZM391.549 147H371.389V149H391.549V147ZM372.389 148V97.28H370.389V148H372.389ZM372.389 97.28C372.389 92.7484 371.227 89.185 368.718 86.7959L367.339 88.2441C369.311 90.1217 370.389 93.065 370.389 97.28H372.389ZM368.736 86.8129C366.26 84.3368 362.83 83.16 358.589 83.16V85.16C362.455 85.16 365.318 86.2232 367.322 88.2271L368.736 86.8129ZM358.589 83.16C353.764 83.16 349.892 84.7431 347.11 87.9892L348.628 89.2908C350.966 86.5635 354.24 85.16 358.589 85.16V83.16ZM347.108 87.9915C344.445 91.1174 343.189 95.5445 343.189 101.12H345.189C345.189 95.8155 346.386 91.9226 348.63 89.2885L347.108 87.9915ZM343.189 101.12V148H345.189V101.12H343.189ZM344.189 147H324.029V149H344.189V147ZM325.029 148V97.28H323.029V148H325.029ZM325.029 97.28C325.029 92.7484 323.867 89.185 321.358 86.7959L319.979 88.2441C321.951 90.1217 323.029 93.065 323.029 97.28H325.029ZM321.376 86.8129C318.9 84.3368 315.47 83.16 311.229 83.16V85.16C315.095 85.16 317.958 86.2232 319.962 88.2271L321.376 86.8129ZM311.229 83.16C306.404 83.16 302.532 84.7431 299.749 87.9892L301.268 89.2908C303.606 86.5635 306.88 85.16 311.229 85.16V83.16ZM299.748 87.9915C297.085 91.1174 295.829 95.5445 295.829 101.12H297.829C297.829 95.8155 299.026 91.9226 301.27 89.2885L299.748 87.9915ZM295.829 101.12V148H297.829V101.12H295.829ZM296.829 147H276.669V149H296.829V147ZM422.671 147.36L422.259 148.271L422.268 148.275L422.277 148.279L422.671 147.36ZM411.951 138.72L411.119 139.275L411.128 139.288L411.138 139.301L411.951 138.72ZM411.951 111.2L411.138 110.619L411.134 110.623L411.951 111.2ZM422.831 102.88L423.199 103.81L423.21 103.806L422.831 102.88ZM460.591 100V101H461.591V100H460.591ZM457.071 86.4L456.349 87.0912L456.356 87.0992L456.364 87.1071L457.071 86.4ZM434.671 86.24L435.346 86.9785L435.354 86.9707L435.362 86.9626L434.671 86.24ZM429.871 95.04L429.553 95.9879L430.623 96.3477L430.851 95.2416L429.871 95.04ZM411.311 88.8L410.358 88.4989L410.062 89.435L410.993 89.7479L411.311 88.8ZM417.391 77.76L416.627 77.1151L416.625 77.1174L417.391 77.76ZM428.751 69.6L429.148 70.5181L429.157 70.5138L428.751 69.6ZM470.991 74.24L470.339 74.9983L470.339 74.9983L470.991 74.24ZM490.991 131.36H491.991V130.36H490.991V131.36ZM490.991 148V149H491.991V148H490.991ZM467.791 145.12L467.191 145.92L467.191 145.92L467.791 145.12ZM463.951 137.28H464.951V136.28H463.951V137.28ZM460.911 137.28V136.28H460.19L459.963 136.964L460.911 137.28ZM458.031 142.4L458.836 142.993L458.844 142.983L458.85 142.973L458.031 142.4ZM450.991 147.84L451.438 148.734L450.991 147.84ZM455.151 129.28L455.811 130.031L455.813 130.03L455.151 129.28ZM460.591 115.04H461.591V114.04H460.591V115.04ZM431.471 117.44L432.071 118.24L432.071 118.24L431.471 117.44ZM431.631 131.2L431.002 131.977L431.002 131.977L431.631 131.2ZM437.871 149.24C432.332 149.24 427.402 148.3 423.065 146.441L422.277 148.279C426.9 150.26 432.104 151.24 437.871 151.24V149.24ZM423.083 146.449C418.752 144.489 415.322 141.718 412.765 138.139L411.138 139.301C413.914 143.188 417.63 146.177 422.259 148.271L423.083 146.449ZM412.783 138.165C410.351 134.517 409.111 130.079 409.111 124.8H407.111C407.111 130.401 408.431 135.243 411.119 139.275L412.783 138.165ZM409.111 124.8C409.111 119.519 410.352 115.2 412.768 111.777L411.134 110.623C408.431 114.454 407.111 119.201 407.111 124.8H409.111ZM412.765 111.781C415.311 108.217 418.777 105.558 423.199 103.81L422.464 101.95C417.712 103.829 413.925 106.717 411.138 110.619L412.765 111.781ZM423.21 103.806C427.764 101.943 432.965 101 438.831 101V99C432.751 99 427.286 99.9774 422.453 101.954L423.21 103.806ZM438.831 101H460.591V99H438.831V101ZM461.591 100V95.52H459.591V100H461.591ZM461.591 95.52C461.591 91.5576 460.337 88.2512 457.778 85.6929L456.364 87.1071C458.499 89.2421 459.591 92.0157 459.591 95.52H461.591ZM457.794 85.7088C455.181 82.977 451.126 81.72 445.871 81.72V83.72C450.856 83.72 454.268 84.9163 456.349 87.0912L457.794 85.7088ZM445.871 81.72C440.722 81.72 436.692 82.9236 433.98 85.5174L435.362 86.9626C437.557 84.8631 440.994 83.72 445.871 83.72V81.72ZM433.997 85.5015C431.37 87.9 429.676 91.0298 428.892 94.8383L430.851 95.2416C431.56 91.7968 433.066 89.06 435.346 86.9785L433.997 85.5015ZM430.19 94.0921L411.63 87.8521L410.993 89.7479L429.553 95.9879L430.19 94.0921ZM412.265 89.1011C413.505 85.1748 415.467 81.6104 418.157 78.4026L416.625 77.1174C413.769 80.5229 411.678 84.3186 410.358 88.4989L412.265 89.1011ZM418.156 78.4049C420.922 75.1259 424.576 72.4923 429.148 70.5181L428.355 68.6819C423.54 70.7611 419.62 73.5674 416.627 77.1151L418.156 78.4049ZM429.157 70.5138C433.797 68.4516 439.464 67.4 446.191 67.4V65.4C439.265 65.4 433.305 66.4817 428.345 68.6862L429.157 70.5138ZM446.191 67.4C456.479 67.4 464.49 69.9699 470.339 74.9983L471.643 73.4817C465.333 68.0568 456.81 65.4 446.191 65.4V67.4ZM470.339 74.9983C476.147 79.991 479.111 87.2563 479.111 96.96H481.111C481.111 86.8237 477.995 78.9424 471.643 73.4817L470.339 74.9983ZM479.111 96.96V126.56H481.111V96.96H479.111ZM479.111 126.56C479.111 128.298 479.515 129.787 480.5 130.842C481.497 131.911 482.925 132.36 484.591 132.36V130.36C483.27 130.36 482.459 130.009 481.962 129.478C481.454 128.933 481.111 128.022 481.111 126.56H479.111ZM484.591 132.36H490.991V130.36H484.591V132.36ZM489.991 131.36V148H491.991V131.36H489.991ZM490.991 147H477.551V149H490.991V147ZM477.551 147C473.769 147 470.741 146.082 468.391 144.32L467.191 145.92C469.961 147.998 473.44 149 477.551 149V147ZM468.391 144.32C466.083 142.589 464.951 140.325 464.951 137.44H462.951C462.951 140.955 464.379 143.811 467.191 145.92L468.391 144.32ZM464.951 137.44V137.28H462.951V137.44H464.951ZM463.951 136.28H460.911V138.28H463.951V136.28ZM459.963 136.964C459.583 138.103 458.691 139.713 457.212 141.827L458.85 142.973C460.358 140.82 461.386 139.017 461.86 137.596L459.963 136.964ZM457.226 141.807C455.858 143.664 453.658 145.388 450.544 146.946L451.438 148.734C454.724 147.092 457.218 145.189 458.836 142.993L457.226 141.807ZM450.544 146.946C447.539 148.448 443.34 149.24 437.871 149.24V151.24C443.496 151.24 448.044 150.432 451.438 148.734L450.544 146.946ZM441.391 134.92C447.235 134.92 452.073 133.316 455.811 130.031L454.491 128.529C451.19 131.43 446.854 132.92 441.391 132.92V134.92ZM455.813 130.03C459.673 126.623 461.591 122.128 461.591 116.64H459.591C459.591 121.606 457.882 125.537 454.49 128.53L455.813 130.03ZM461.591 116.64V115.04H459.591V116.64H461.591ZM460.591 114.04H440.271V116.04H460.591V114.04ZM440.271 114.04C436.406 114.04 433.235 114.867 430.871 116.64L432.071 118.24C433.974 116.813 436.67 116.04 440.271 116.04V114.04ZM430.871 116.64C428.464 118.446 427.271 120.994 427.271 124.16H429.271C429.271 121.566 430.212 119.634 432.071 118.24L430.871 116.64ZM427.271 124.16C427.271 127.342 428.528 129.974 431.002 131.977L432.26 130.423C430.255 128.799 429.271 126.738 429.271 124.16H427.271ZM431.002 131.977C433.488 133.99 437.002 134.92 441.391 134.92V132.92C437.248 132.92 434.254 132.037 432.26 130.423L431.002 131.977ZM512.626 143.52L513.187 142.692L513.187 142.692L512.626 143.52ZM500.626 124.32L500.376 123.352L499.489 123.581L499.64 124.484L500.626 124.32ZM519.186 119.52L520.167 119.324L519.959 118.287L518.936 118.552L519.186 119.52ZM522.866 128.32L522.085 128.945L522.095 128.956L522.104 128.968L522.866 128.32ZM529.426 132.96L529.075 133.896L529.098 133.905L529.121 133.912L529.426 132.96ZM548.466 131.84L549.047 132.654L549.06 132.645L549.072 132.635L548.466 131.84ZM548.626 120L548.081 120.838L548.096 120.848L548.112 120.857L548.626 120ZM538.386 116.64L538.565 115.656L538.562 115.656L538.386 116.64ZM533.906 115.84L533.717 116.822L533.73 116.824L533.906 115.84ZM518.706 111.52L518.32 112.442L518.329 112.446L518.339 112.45L518.706 111.52ZM507.666 103.68L506.9 104.323L506.9 104.323L507.666 103.68ZM512.146 72.8L512.732 73.6107L512.741 73.6036L512.146 72.8ZM556.946 72.32L556.388 73.1497L556.388 73.1497L556.946 72.32ZM568.466 87.84L568.76 88.7958L569.695 88.5082L569.428 87.5674L568.466 87.84ZM549.746 93.6L548.768 93.806L548.993 94.8779L550.04 94.5558L549.746 93.6ZM544.466 84.96L543.912 85.792L543.919 85.7972L543.927 85.8023L544.466 84.96ZM526.066 84.48L526.6 85.3255L526.616 85.3157L526.631 85.3053L526.066 84.48ZM526.226 95.68L525.712 96.5375L525.728 96.5472L525.744 96.5562L526.226 95.68ZM534.866 98.4L535.042 97.4156L535.04 97.4152L534.866 98.4ZM555.506 103.52L555.153 104.455L555.165 104.46L555.178 104.464L555.506 103.52ZM567.026 111.04L566.26 111.683L566.271 111.696L566.283 111.709L567.026 111.04ZM562.226 143.52L562.826 144.32L562.828 144.318L562.226 143.52ZM538.066 149.24C527.861 149.24 519.592 147.031 513.187 142.692L512.065 144.348C518.887 148.969 527.578 151.24 538.066 151.24V149.24ZM513.187 142.692C506.814 138.375 502.957 132.222 501.613 124.156L499.64 124.484C501.069 133.058 505.212 139.705 512.065 144.348L513.187 142.692ZM500.877 125.288L519.437 120.488L518.936 118.552L500.376 123.352L500.877 125.288ZM518.206 119.716C518.972 123.548 520.247 126.647 522.085 128.945L523.647 127.695C522.072 125.726 520.894 122.959 520.167 119.324L518.206 119.716ZM522.104 128.968C524.025 131.227 526.352 132.875 529.075 133.896L529.777 132.024C527.381 131.125 525.334 129.679 523.628 127.672L522.104 128.968ZM529.121 133.912C531.896 134.8 534.88 135.24 538.066 135.24V133.24C535.066 133.24 532.289 132.826 529.731 132.008L529.121 133.912ZM538.066 135.24C542.836 135.24 546.555 134.434 549.047 132.654L547.885 131.026C545.897 132.446 542.683 133.24 538.066 133.24V135.24ZM549.072 132.635C551.519 130.771 552.826 128.414 552.826 125.6H550.826C550.826 127.692 549.894 129.495 547.86 131.045L549.072 132.635ZM552.826 125.6C552.826 122.789 551.57 120.6 549.141 119.143L548.112 120.857C549.949 121.96 550.826 123.504 550.826 125.6H552.826ZM549.171 119.162C546.868 117.664 543.295 116.516 538.565 115.656L538.207 117.624C542.864 118.471 546.118 119.562 548.081 120.838L549.171 119.162ZM538.562 115.656L534.082 114.856L533.73 116.824L538.21 117.624L538.562 115.656ZM534.095 114.858C528.601 113.801 523.595 112.377 519.074 110.59L518.339 112.45C522.991 114.289 528.118 115.745 533.717 116.822L534.095 114.858ZM519.092 110.598C514.63 108.73 511.089 106.204 508.432 103.037L506.9 104.323C509.791 107.769 513.609 110.47 518.32 112.442L519.092 110.598ZM508.432 103.037C505.84 99.9467 504.506 95.9232 504.506 90.88H502.506C502.506 96.2901 503.946 100.8 506.9 104.323L508.432 103.037ZM504.506 90.88C504.506 83.2665 507.264 77.5597 512.732 73.6107L511.561 71.9893C505.509 76.3603 502.506 82.7068 502.506 90.88H504.506ZM512.741 73.6036C518.283 69.4989 525.628 67.4 534.866 67.4V65.4C525.331 65.4 517.53 67.5677 511.551 71.9964L512.741 73.6036ZM534.866 67.4C543.571 67.4 550.724 69.3391 556.388 73.1497L557.504 71.4903C551.436 67.4075 543.868 65.4 534.866 65.4V67.4ZM556.388 73.1497C562.072 76.9733 565.76 81.9553 567.504 88.1126L569.428 87.5674C567.546 80.9247 563.554 75.56 557.504 71.4903L556.388 73.1497ZM568.172 86.8842L549.452 92.6442L550.04 94.5558L568.76 88.7958L568.172 86.8842ZM550.725 93.394C549.834 89.1626 547.961 86.0096 545.005 84.1177L543.927 85.8023C546.304 87.3237 547.952 89.9307 548.768 93.806L550.725 93.394ZM545.021 84.1279C542.26 82.2874 538.855 81.4 534.866 81.4V83.4C538.558 83.4 541.552 84.2193 543.912 85.792L545.021 84.1279ZM534.866 81.4C530.93 81.4 527.764 82.1066 525.502 83.6547L526.631 85.3053C528.422 84.0801 531.123 83.4 534.866 83.4V81.4ZM525.532 83.6345C523.223 85.0929 522.026 87.2214 522.026 89.92H524.026C524.026 87.9253 524.856 86.427 526.6 85.3255L525.532 83.6345ZM522.026 89.92C522.026 92.8188 523.267 95.0704 525.712 96.5375L526.741 94.8225C524.919 93.7296 524.026 92.1412 524.026 89.92H522.026ZM525.744 96.5562C528.01 97.8021 531.007 98.7345 534.692 99.3848L535.04 97.4152C531.472 96.7855 528.71 95.9045 526.708 94.8038L525.744 96.5562ZM534.69 99.3844L539.17 100.184L539.522 98.2156L535.042 97.4156L534.69 99.3844ZM539.17 100.184C545.094 101.242 550.42 102.667 555.153 104.455L555.86 102.585C550.993 100.746 545.545 99.2912 539.522 98.2156L539.17 100.184ZM555.178 104.464C559.949 106.124 563.624 108.54 566.26 111.683L567.792 110.397C564.882 106.927 560.877 104.329 555.835 102.575L555.178 104.464ZM566.283 111.709C568.954 114.677 570.346 118.787 570.346 124.16H572.346C572.346 118.44 570.858 113.803 567.77 110.371L566.283 111.709ZM570.346 124.16C570.346 132.2 567.428 138.343 561.624 142.722L562.828 144.318C569.185 139.523 572.346 132.76 572.346 124.16H570.346ZM561.626 142.72C555.878 147.031 548.059 149.24 538.066 149.24V151.24C548.34 151.24 556.627 148.969 562.826 144.32L561.626 142.72ZM629.638 180H628.638V181H629.638V180ZM629.638 68.64V67.64H628.638V68.64H629.638ZM649.478 68.64H650.478V67.64H649.478V68.64ZM649.478 78.24H648.478V79.24H649.478V78.24ZM652.358 78.24V79.24H652.93L653.22 78.7457L652.358 78.24ZM660.838 70.08L661.359 70.9333L661.367 70.9281L661.376 70.9227L660.838 70.08ZM695.078 71.2L694.57 72.0619L694.577 72.0657L694.583 72.0693L695.078 71.2ZM708.198 84.96L709.076 84.4822L709.076 84.4822L708.198 84.96ZM708.198 131.68L709.076 132.158L709.076 132.158L708.198 131.68ZM695.078 145.6L695.572 146.469L695.578 146.466L695.585 146.462L695.078 145.6ZM665.158 148.48L665.492 147.538L665.483 147.534L665.474 147.531L665.158 148.48ZM657.318 144.32L656.631 145.047L656.652 145.067L656.673 145.085L657.318 144.32ZM652.678 138.88L653.517 138.337L653.222 137.88H652.678V138.88ZM649.798 138.88V137.88H648.798V138.88H649.798ZM649.798 180V181H650.798V180H649.798ZM686.758 126.72L687.455 127.436L687.455 127.436L686.758 126.72ZM686.758 90.08L686.06 90.7963L686.069 90.8055L686.758 90.08ZM655.718 90.08L656.406 90.8055L656.415 90.7962L655.718 90.08ZM655.718 126.72L655.02 127.436L655.029 127.445L655.718 126.72ZM630.638 180V68.64H628.638V180H630.638ZM629.638 69.64H649.478V67.64H629.638V69.64ZM648.478 68.64V78.24H650.478V68.64H648.478ZM649.478 79.24H652.358V77.24H649.478V79.24ZM653.22 78.7457C654.932 75.8264 657.624 73.2155 661.359 70.9333L660.316 69.2267C656.371 71.6378 653.41 74.467 651.495 77.7343L653.22 78.7457ZM661.376 70.9227C664.988 68.615 670.262 67.4 677.318 67.4V65.4C670.08 65.4 664.367 66.6383 660.299 69.2373L661.376 70.9227ZM677.318 67.4C683.542 67.4 689.286 68.9537 694.57 72.0619L695.585 70.3381C689.989 67.0463 683.893 65.4 677.318 65.4V67.4ZM694.583 72.0693C699.844 75.0609 704.092 79.5036 707.319 85.4378L709.076 84.4822C705.69 78.2564 701.191 73.5258 695.572 70.3307L694.583 72.0693ZM707.319 85.4378C710.529 91.3391 712.158 98.5261 712.158 107.04H714.158C714.158 98.2739 712.48 90.7409 709.076 84.4822L707.319 85.4378ZM712.158 107.04V109.6H714.158V107.04H712.158ZM712.158 109.6C712.158 118.114 710.529 125.301 707.319 131.202L709.076 132.158C712.48 125.899 714.158 118.366 714.158 109.6H712.158ZM707.319 131.202C704.09 137.139 699.839 141.639 694.57 144.738L695.585 146.462C701.196 143.161 705.691 138.381 709.076 132.158L707.319 131.202ZM694.583 144.731C689.297 147.736 683.548 149.24 677.318 149.24V151.24C683.887 151.24 689.978 149.65 695.572 146.469L694.583 144.731ZM677.318 149.24C672.592 149.24 668.66 148.662 665.492 147.538L664.823 149.422C668.269 150.645 672.443 151.24 677.318 151.24V149.24ZM665.474 147.531C662.362 146.494 659.869 145.161 657.962 143.555L656.673 145.085C658.819 146.892 661.553 148.332 664.841 149.429L665.474 147.531ZM658.004 143.593C656.13 141.823 654.639 140.07 653.517 138.337L651.838 139.423C653.063 141.317 654.665 143.19 656.631 145.047L658.004 143.593ZM652.678 137.88H649.798V139.88H652.678V137.88ZM648.798 138.88V180H650.798V138.88H648.798ZM649.798 179H629.638V181H649.798V179ZM671.238 133.64C677.759 133.64 683.193 131.586 687.455 127.436L686.06 126.004C682.215 129.747 677.302 131.64 671.238 131.64V133.64ZM687.455 127.436C691.865 123.14 693.998 116.979 693.998 109.12H691.998C691.998 116.621 689.97 122.194 686.06 126.004L687.455 127.436ZM693.998 109.12V107.52H691.998V109.12H693.998ZM693.998 107.52C693.998 99.6625 691.866 93.5477 687.446 89.3545L686.069 90.8055C689.969 94.5057 691.998 100.018 691.998 107.52H693.998ZM687.455 89.3638C683.096 85.1158 677.666 83 671.238 83V85C677.182 85 682.099 86.9375 686.06 90.7962L687.455 89.3638ZM671.238 83C664.809 83 659.379 85.1158 655.02 89.3638L656.415 90.7962C660.376 86.9375 665.293 85 671.238 85V83ZM655.029 89.3545C650.609 93.5477 648.478 99.6625 648.478 107.52H650.478C650.478 100.018 652.506 94.5057 656.406 90.8055L655.029 89.3545ZM648.478 107.52V109.12H650.478V107.52H648.478ZM648.478 109.12C648.478 116.979 650.61 123.14 655.02 127.436L656.415 126.004C652.505 122.194 650.478 116.621 650.478 109.12H648.478ZM655.029 127.445C659.391 131.583 664.817 133.64 671.238 133.64V131.64C665.285 131.64 660.364 129.75 656.406 125.995L655.029 127.445ZM745.589 145.12L745.057 145.967L745.068 145.974L745.08 145.981L745.589 145.12ZM731.029 68.64V67.64H730.029V68.64H731.029ZM751.189 68.64H752.189V67.64H751.189V68.64ZM755.509 127.84L754.789 128.534L754.795 128.541L754.802 128.547L755.509 127.84ZM782.549 126.24L783.314 126.884L783.322 126.874L782.549 126.24ZM787.669 68.64V67.64H786.669V68.64H787.669ZM807.829 68.64H808.829V67.64H807.829V68.64ZM807.829 148V149H808.829V148H807.829ZM787.989 148H786.989V149H787.989V148ZM787.989 137.6H788.989V136.6H787.989V137.6ZM785.109 137.6V136.6H784.48L784.207 137.167L785.109 137.6ZM777.909 145.44L778.497 146.249L778.497 146.249L777.909 145.44ZM761.909 148.28C755.876 148.28 750.617 146.93 746.097 144.259L745.08 145.981C749.947 148.857 755.568 150.28 761.909 150.28V148.28ZM746.121 144.273C741.693 141.493 738.241 137.684 735.759 132.825L733.978 133.735C736.617 138.902 740.311 142.987 745.057 145.967L746.121 144.273ZM735.759 132.825C733.282 127.973 732.029 122.373 732.029 116H730.029C730.029 122.64 731.336 128.56 733.978 133.735L735.759 132.825ZM732.029 116V68.64H730.029V116H732.029ZM731.029 69.64H751.189V67.64H731.029V69.64ZM750.189 68.64V114.4H752.189V68.64H750.189ZM750.189 114.4C750.189 120.519 751.663 125.293 754.789 128.534L756.229 127.146C753.594 124.414 752.189 120.228 752.189 114.4H750.189ZM754.802 128.547C758.026 131.771 762.523 133.32 768.149 133.32V131.32C762.894 131.32 758.965 129.882 756.216 127.133L754.802 128.547ZM768.149 133.32C774.576 133.32 779.678 131.202 783.314 126.884L781.784 125.596C778.593 129.385 774.095 131.32 768.149 131.32V133.32ZM783.322 126.874C786.928 122.479 788.669 116.467 788.669 108.96H786.669C786.669 116.173 784.996 121.681 781.776 125.606L783.322 126.874ZM788.669 108.96V68.64H786.669V108.96H788.669ZM787.669 69.64H807.829V67.64H787.669V69.64ZM806.829 68.64V148H808.829V68.64H806.829ZM807.829 147H787.989V149H807.829V147ZM788.989 148V137.6H786.989V148H788.989ZM787.989 136.6H785.109V138.6H787.989V136.6ZM784.207 137.167C783.025 139.631 780.765 142.126 777.321 144.631L778.497 146.249C782.092 143.634 784.633 140.903 786.01 138.033L784.207 137.167ZM777.321 144.631C774.05 147.01 768.968 148.28 761.909 148.28V150.28C769.143 150.28 774.728 148.99 778.497 146.249L777.321 144.631ZM861.463 146.56L860.924 147.403L860.924 147.403L861.463 146.56ZM852.983 138.4L853.837 137.881L853.545 137.4H852.983V138.4ZM850.103 138.4V137.4H849.103V138.4H850.103ZM850.103 148V149H851.103V148H850.103ZM830.263 148H829.263V149H830.263V148ZM830.263 36V35H829.263V36H830.263ZM850.423 36H851.423V35H850.423V36ZM850.423 77.76H849.423V78.76H850.423V77.76ZM853.303 77.76V78.76H853.863L854.156 78.2814L853.303 77.76ZM857.943 72.32L857.298 71.5551L857.288 71.5637L857.278 71.5726L857.943 72.32ZM865.783 68.16L866.099 69.1087L866.108 69.1056L866.117 69.1024L865.783 68.16ZM895.703 71.2L895.195 72.0619L895.202 72.0657L895.208 72.0693L895.703 71.2ZM908.823 84.96L909.701 84.4822L909.701 84.4822L908.823 84.96ZM908.823 131.68L909.701 132.158L909.701 132.158L908.823 131.68ZM895.703 145.6L896.197 146.469L896.203 146.466L896.21 146.462L895.703 145.6ZM887.383 126.72L888.071 127.446L888.08 127.436L887.383 126.72ZM887.383 90.08L886.675 90.7871L886.685 90.7964L886.694 90.8055L887.383 90.08ZM856.343 90.08L857.031 90.8055L857.04 90.7962L856.343 90.08ZM856.343 126.72L855.645 127.436L855.654 127.445L856.343 126.72ZM877.943 149.24C870.887 149.24 865.613 148.025 862.001 145.717L860.924 147.403C864.992 150.002 870.705 151.24 877.943 151.24V149.24ZM862.001 145.717C858.252 143.322 855.551 140.704 853.837 137.881L852.128 138.919C854.041 142.07 856.993 144.891 860.924 147.403L862.001 145.717ZM852.983 137.4H850.103V139.4H852.983V137.4ZM849.103 138.4V148H851.103V138.4H849.103ZM850.103 147H830.263V149H850.103V147ZM831.263 148V36H829.263V148H831.263ZM830.263 37H850.423V35H830.263V37ZM849.423 36V77.76H851.423V36H849.423ZM850.423 78.76H853.303V76.76H850.423V78.76ZM854.156 78.2814C855.271 76.4566 856.75 74.7176 858.607 73.0674L857.278 71.5726C855.295 73.3357 853.681 75.2234 852.449 77.2385L854.156 78.2814ZM858.587 73.0849C860.494 71.4786 862.987 70.1458 866.099 69.1087L865.466 67.2113C862.178 68.3075 859.444 69.7481 857.298 71.5551L858.587 73.0849ZM866.117 69.1024C869.285 67.9784 873.217 67.4 877.943 67.4V65.4C873.068 65.4 868.894 65.995 865.448 67.2176L866.117 69.1024ZM877.943 67.4C884.167 67.4 889.911 68.9537 895.195 72.0619L896.21 70.3381C890.614 67.0463 884.518 65.4 877.943 65.4V67.4ZM895.208 72.0693C900.469 75.0609 904.717 79.5036 907.944 85.4378L909.701 84.4822C906.315 78.2564 901.816 73.5258 896.197 70.3307L895.208 72.0693ZM907.944 85.4378C911.154 91.3391 912.783 98.5261 912.783 107.04H914.783C914.783 98.2739 913.105 90.7409 909.701 84.4822L907.944 85.4378ZM912.783 107.04V109.6H914.783V107.04H912.783ZM912.783 109.6C912.783 118.114 911.154 125.301 907.944 131.202L909.701 132.158C913.105 125.899 914.783 118.366 914.783 109.6H912.783ZM907.944 131.202C904.715 137.139 900.464 141.639 895.195 144.738L896.21 146.462C901.821 143.161 906.316 138.381 909.701 132.158L907.944 131.202ZM895.208 144.731C889.922 147.736 884.173 149.24 877.943 149.24V151.24C884.512 151.24 890.603 149.65 896.197 146.469L895.208 144.731ZM871.863 133.64C878.283 133.64 883.709 131.583 888.071 127.445L886.694 125.995C882.736 129.75 877.815 131.64 871.863 131.64V133.64ZM888.08 127.436C892.49 123.14 894.623 116.979 894.623 109.12H892.623C892.623 116.621 890.595 122.194 886.685 126.004L888.08 127.436ZM894.623 109.12V107.52H892.623V109.12H894.623ZM894.623 107.52C894.623 99.6625 892.491 93.5477 888.071 89.3545L886.694 90.8055C890.594 94.5057 892.623 100.018 892.623 107.52H894.623ZM888.09 89.3729C883.829 85.1128 878.393 83 871.863 83V85C877.919 85 882.829 86.9406 886.675 90.7871L888.09 89.3729ZM871.863 83C865.434 83 860.004 85.1158 855.645 89.3638L857.04 90.7962C861.001 86.9375 865.918 85 871.863 85V83ZM855.654 89.3545C851.234 93.5477 849.103 99.6625 849.103 107.52H851.103C851.103 100.018 853.131 94.5057 857.031 90.8055L855.654 89.3545ZM849.103 107.52V109.12H851.103V107.52H849.103ZM849.103 109.12C849.103 116.979 851.235 123.14 855.645 127.436L857.04 126.004C853.13 122.194 851.103 116.621 851.103 109.12H849.103ZM855.654 127.445C860.016 131.583 865.442 133.64 871.863 133.64V131.64C865.91 131.64 860.989 129.75 857.031 125.995L855.654 127.445ZM932.294 148H931.294V149H932.294V148ZM932.294 36V35H931.294V36H932.294ZM952.454 36H953.454V35H952.454V36ZM952.454 148V149H953.454V148H952.454ZM933.294 148V36H931.294V148H933.294ZM932.294 37H952.454V35H932.294V37ZM951.454 36V148H953.454V36H951.454ZM952.454 147H932.294V149H952.454V147ZM974.794 148H973.794V149H974.794V148ZM974.794 68.64V67.64H973.794V68.64H974.794ZM994.954 68.64H995.954V67.64H994.954V68.64ZM994.954 148V149H995.954V148H994.954ZM975.594 55.84L974.903 56.5626L974.91 56.57L974.918 56.5771L975.594 55.84ZM975.594 37.28L974.918 36.5428L974.91 36.55L974.903 36.5574L975.594 37.28ZM975.794 148V68.64H973.794V148H975.794ZM974.794 69.64H994.954V67.64H974.794V69.64ZM993.954 68.64V148H995.954V68.64H993.954ZM994.954 147H974.794V149H994.954V147ZM984.874 58.36C981.485 58.36 978.636 57.2724 976.269 55.1028L974.918 56.5771C977.671 59.1009 981.009 60.36 984.874 60.36V58.36ZM976.285 55.1174C974.056 52.9849 972.914 50.1663 972.914 46.56H970.914C970.914 50.6337 972.225 54.0018 974.903 56.5626L976.285 55.1174ZM972.914 46.56C972.914 42.9537 974.056 40.1351 976.285 38.0026L974.903 36.5574C972.225 39.1182 970.914 42.4863 970.914 46.56H972.914ZM976.269 38.0171C978.636 35.8476 981.485 34.76 984.874 34.76V32.76C981.009 32.76 977.671 34.0191 974.918 36.5428L976.269 38.0171ZM984.874 34.76C988.378 34.76 991.215 35.8524 993.463 38.0026L994.845 36.5574C992.186 34.0142 988.837 32.76 984.874 32.76V34.76ZM993.463 38.0026C995.692 40.1351 996.834 42.9537 996.834 46.56H998.834C998.834 42.4863 997.522 39.1182 994.845 36.5574L993.463 38.0026ZM996.834 46.56C996.834 50.1663 995.692 52.9849 993.463 55.1174L994.845 56.5626C997.522 54.0018 998.834 50.6337 998.834 46.56H996.834ZM993.463 55.1174C991.215 57.2675 988.378 58.36 984.874 58.36V60.36C988.837 60.36 992.186 59.1058 994.845 56.5626L993.463 55.1174ZM1033.61 145.44L1033.15 146.328L1033.16 146.331L1033.61 145.44ZM1018.89 85.12L1019.75 85.6323L1019.75 85.6323L1018.89 85.12ZM1033.61 71.2L1033.16 70.3086L1033.15 70.3118L1033.61 71.2ZM1074.09 70.4L1073.65 71.2979L1073.65 71.2979L1074.09 70.4ZM1087.21 81.44L1086.4 82.016L1086.4 82.0266L1086.41 82.037L1087.21 81.44ZM1093.93 97.12L1094.14 98.098L1095.09 97.8958L1094.92 96.9411L1093.93 97.12ZM1074.41 101.28L1073.42 101.412L1073.57 102.483L1074.62 102.258L1074.41 101.28ZM1065.13 86.56L1064.65 87.4325L1064.65 87.4365L1064.66 87.4405L1065.13 86.56ZM1044.01 87.04L1044.48 87.9224L1044.49 87.9168L1044.01 87.04ZM1036.33 94.88L1035.46 94.4011L1035.45 94.4108L1036.33 94.88ZM1036.33 121.92L1035.44 122.378L1035.45 122.394L1035.46 122.41L1036.33 121.92ZM1044.01 129.76L1043.52 130.63L1043.54 130.64L1043.56 130.649L1044.01 129.76ZM1068.81 127.68L1069.52 128.387L1069.52 128.387L1068.81 127.68ZM1074.89 115.2L1075.13 114.227L1074.08 113.98L1073.91 115.036L1074.89 115.2ZM1094.41 119.84L1095.38 120.078L1095.62 119.1L1094.65 118.867L1094.41 119.84ZM1087.21 135.36L1086.41 134.772L1086.4 134.775L1087.21 135.36ZM1054.57 149.24C1047.04 149.24 1040.21 147.671 1034.07 144.549L1033.16 146.331C1039.61 149.609 1046.75 151.24 1054.57 151.24V149.24ZM1034.07 144.552C1028.05 141.439 1023.29 136.93 1019.75 131.008L1018.03 132.032C1021.76 138.27 1026.8 143.041 1033.15 146.328L1034.07 144.552ZM1019.75 131.008C1016.24 125.113 1014.45 117.939 1014.45 109.44H1012.45C1012.45 118.221 1014.3 125.767 1018.03 132.032L1019.75 131.008ZM1014.45 109.44V107.2H1012.45V109.44H1014.45ZM1014.45 107.2C1014.45 98.7007 1016.24 91.5265 1019.75 85.6323L1018.03 84.6077C1014.3 90.8735 1012.45 98.4193 1012.45 107.2H1014.45ZM1019.75 85.6323C1023.29 79.7096 1028.05 75.2011 1034.07 72.0882L1033.15 70.3118C1026.8 73.5989 1021.76 78.3704 1018.03 84.6077L1019.75 85.6323ZM1034.07 72.0914C1040.21 68.9689 1047.04 67.4 1054.57 67.4V65.4C1046.75 65.4 1039.61 67.0311 1033.16 70.3086L1034.07 72.0914ZM1054.57 67.4C1062.03 67.4 1068.38 68.7131 1073.65 71.2979L1074.53 69.5021C1068.93 66.7536 1062.26 65.4 1054.57 65.4V67.4ZM1073.65 71.2979C1078.95 73.8949 1083.19 77.4676 1086.4 82.016L1088.03 80.864C1084.62 76.0258 1080.12 72.2384 1074.53 69.5021L1073.65 71.2979ZM1086.41 82.037C1089.73 86.4948 1091.91 91.577 1092.95 97.2989L1094.92 96.9411C1093.82 90.9296 1091.53 85.5585 1088.02 80.843L1086.41 82.037ZM1093.73 96.142L1074.21 100.302L1074.62 102.258L1094.14 98.098L1093.73 96.142ZM1075.4 101.148C1074.96 97.8285 1073.96 94.8202 1072.4 92.1361L1070.67 93.1439C1072.09 95.5798 1073.01 98.3315 1073.42 101.412L1075.4 101.148ZM1072.4 92.1361C1070.81 89.407 1068.53 87.2544 1065.61 85.6795L1064.66 87.4405C1067.28 88.8522 1069.28 90.753 1070.67 93.1439L1072.4 92.1361ZM1065.62 85.6875C1062.77 84.0877 1059.22 83.32 1055.05 83.32V85.32C1058.99 85.32 1062.17 86.0457 1064.65 87.4325L1065.62 85.6875ZM1055.05 83.32C1050.85 83.32 1047 84.263 1043.53 86.1632L1044.49 87.9168C1047.64 86.1903 1051.16 85.32 1055.05 85.32V83.32ZM1043.54 86.1576C1040.15 87.9658 1037.46 90.7286 1035.46 94.4011L1037.21 95.3588C1039.05 91.9914 1041.47 89.5276 1044.48 87.9224L1043.54 86.1576ZM1035.45 94.4108C1033.54 98.0052 1032.61 102.39 1032.61 107.52H1034.61C1034.61 102.623 1035.5 98.5815 1037.22 95.3492L1035.45 94.4108ZM1032.61 107.52V109.12H1034.61V107.52H1032.61ZM1032.61 109.12C1032.61 114.251 1033.54 118.684 1035.44 122.378L1037.22 121.462C1035.5 118.116 1034.61 114.015 1034.61 109.12H1032.61ZM1035.46 122.41C1037.47 125.972 1040.15 128.721 1043.52 130.63L1044.51 128.89C1041.48 127.172 1039.04 124.695 1037.21 121.43L1035.46 122.41ZM1043.56 130.649C1047.02 132.435 1050.86 133.32 1055.05 133.32V131.32C1051.15 131.32 1047.62 130.498 1044.47 128.871L1043.56 130.649ZM1055.05 133.32C1061.29 133.32 1066.18 131.731 1069.52 128.387L1068.11 126.973C1065.26 129.815 1060.97 131.32 1055.05 131.32V133.32ZM1069.52 128.387C1072.89 125.019 1075 120.659 1075.88 115.364L1073.91 115.036C1073.08 119.981 1071.14 123.941 1068.11 126.973L1069.52 128.387ZM1074.66 116.173L1094.18 120.813L1094.65 118.867L1075.13 114.227L1074.66 116.173ZM1093.44 119.602C1092.09 125.129 1089.74 130.184 1086.41 134.772L1088.02 135.948C1091.51 131.15 1093.97 125.857 1095.38 120.078L1093.44 119.602ZM1086.4 134.775C1083.2 139.219 1078.96 142.742 1073.65 145.342L1074.53 147.138C1080.11 144.404 1084.62 140.674 1088.02 135.945L1086.4 134.775ZM1073.65 145.342C1068.38 147.927 1062.03 149.24 1054.57 149.24V151.24C1062.26 151.24 1068.93 149.886 1074.53 147.138L1073.65 145.342ZM1120.48 147.36L1120.07 148.271L1120.08 148.275L1120.09 148.279L1120.48 147.36ZM1109.76 138.72L1108.93 139.275L1108.94 139.288L1108.95 139.301L1109.76 138.72ZM1109.76 111.2L1108.95 110.619L1108.95 110.623L1109.76 111.2ZM1120.64 102.88L1121.01 103.81L1121.02 103.806L1120.64 102.88ZM1158.4 100V101H1159.4V100H1158.4ZM1154.88 86.4L1154.16 87.0912L1154.17 87.0992L1154.18 87.1071L1154.88 86.4ZM1132.48 86.24L1133.16 86.9785L1133.17 86.9707L1133.17 86.9626L1132.48 86.24ZM1127.68 95.04L1127.37 95.9879L1128.44 96.3477L1128.66 95.2416L1127.68 95.04ZM1109.12 88.8L1108.17 88.4989L1107.87 89.435L1108.81 89.7479L1109.12 88.8ZM1115.2 77.76L1114.44 77.1151L1114.44 77.1174L1115.2 77.76ZM1126.56 69.6L1126.96 70.5181L1126.97 70.5138L1126.56 69.6ZM1168.8 74.24L1168.15 74.9983L1168.15 74.9983L1168.8 74.24ZM1188.8 131.36H1189.8V130.36H1188.8V131.36ZM1188.8 148V149H1189.8V148H1188.8ZM1165.6 145.12L1165 145.92L1165 145.92L1165.6 145.12ZM1161.76 137.28H1162.76V136.28H1161.76V137.28ZM1158.72 137.28V136.28H1158L1157.78 136.964L1158.72 137.28ZM1155.84 142.4L1156.65 142.993L1156.66 142.983L1156.66 142.973L1155.84 142.4ZM1148.8 147.84L1149.25 148.734L1148.8 147.84ZM1152.96 129.28L1153.62 130.031L1153.63 130.03L1152.96 129.28ZM1158.4 115.04H1159.4V114.04H1158.4V115.04ZM1129.28 117.44L1129.88 118.24L1129.88 118.24L1129.28 117.44ZM1129.44 131.2L1128.81 131.977L1128.81 131.977L1129.44 131.2ZM1135.68 149.24C1130.14 149.24 1125.21 148.3 1120.88 146.441L1120.09 148.279C1124.71 150.26 1129.92 151.24 1135.68 151.24V149.24ZM1120.9 146.449C1116.56 144.489 1113.13 141.718 1110.58 138.139L1108.95 139.301C1111.73 143.188 1115.44 146.177 1120.07 148.271L1120.9 146.449ZM1110.6 138.165C1108.16 134.517 1106.92 130.079 1106.92 124.8H1104.92C1104.92 130.401 1106.24 135.243 1108.93 139.275L1110.6 138.165ZM1106.92 124.8C1106.92 119.519 1108.16 115.2 1110.58 111.777L1108.95 110.623C1106.24 114.454 1104.92 119.201 1104.92 124.8H1106.92ZM1110.58 111.781C1113.12 108.217 1116.59 105.558 1121.01 103.81L1120.28 101.95C1115.52 103.829 1111.74 106.717 1108.95 110.619L1110.58 111.781ZM1121.02 103.806C1125.58 101.943 1130.78 101 1136.64 101V99C1130.56 99 1125.1 99.9774 1120.27 101.954L1121.02 103.806ZM1136.64 101H1158.4V99H1136.64V101ZM1159.4 100V95.52H1157.4V100H1159.4ZM1159.4 95.52C1159.4 91.5576 1158.15 88.2512 1155.59 85.6929L1154.18 87.1071C1156.31 89.2421 1157.4 92.0157 1157.4 95.52H1159.4ZM1155.61 85.7088C1152.99 82.977 1148.94 81.72 1143.68 81.72V83.72C1148.67 83.72 1152.08 84.9163 1154.16 87.0912L1155.61 85.7088ZM1143.68 81.72C1138.53 81.72 1134.5 82.9236 1131.79 85.5174L1133.17 86.9626C1135.37 84.8631 1138.81 83.72 1143.68 83.72V81.72ZM1131.81 85.5015C1129.18 87.9 1127.49 91.0298 1126.7 94.8383L1128.66 95.2416C1129.37 91.7968 1130.88 89.06 1133.16 86.9785L1131.81 85.5015ZM1128 94.0921L1109.44 87.8521L1108.81 89.7479L1127.37 95.9879L1128 94.0921ZM1110.08 89.1011C1111.32 85.1748 1113.28 81.6104 1115.97 78.4026L1114.44 77.1174C1111.58 80.5229 1109.49 84.3186 1108.17 88.4989L1110.08 89.1011ZM1115.97 78.4049C1118.73 75.1259 1122.39 72.4923 1126.96 70.5181L1126.17 68.6819C1121.35 70.7611 1117.43 73.5674 1114.44 77.1151L1115.97 78.4049ZM1126.97 70.5138C1131.61 68.4516 1137.28 67.4 1144 67.4V65.4C1137.08 65.4 1131.12 66.4817 1126.16 68.6862L1126.97 70.5138ZM1144 67.4C1154.29 67.4 1162.3 69.9699 1168.15 74.9983L1169.46 73.4817C1163.15 68.0568 1154.62 65.4 1144 65.4V67.4ZM1168.15 74.9983C1173.96 79.991 1176.92 87.2563 1176.92 96.96H1178.92C1178.92 86.8237 1175.81 78.9424 1169.46 73.4817L1168.15 74.9983ZM1176.92 96.96V126.56H1178.92V96.96H1176.92ZM1176.92 126.56C1176.92 128.298 1177.33 129.787 1178.31 130.842C1179.31 131.911 1180.74 132.36 1182.4 132.36V130.36C1181.08 130.36 1180.27 130.009 1179.77 129.478C1179.27 128.933 1178.92 128.022 1178.92 126.56H1176.92ZM1182.4 132.36H1188.8V130.36H1182.4V132.36ZM1187.8 131.36V148H1189.8V131.36H1187.8ZM1188.8 147H1175.36V149H1188.8V147ZM1175.36 147C1171.58 147 1168.55 146.082 1166.2 144.32L1165 145.92C1167.77 147.998 1171.25 149 1175.36 149V147ZM1166.2 144.32C1163.9 142.589 1162.76 140.325 1162.76 137.44H1160.76C1160.76 140.955 1162.19 143.811 1165 145.92L1166.2 144.32ZM1162.76 137.44V137.28H1160.76V137.44H1162.76ZM1161.76 136.28H1158.72V138.28H1161.76V136.28ZM1157.78 136.964C1157.4 138.103 1156.5 139.713 1155.02 141.827L1156.66 142.973C1158.17 140.82 1159.2 139.017 1159.67 137.596L1157.78 136.964ZM1155.04 141.807C1153.67 143.664 1151.47 145.388 1148.36 146.946L1149.25 148.734C1152.54 147.092 1155.03 145.189 1156.65 142.993L1155.04 141.807ZM1148.36 146.946C1145.35 148.448 1141.15 149.24 1135.68 149.24V151.24C1141.31 151.24 1145.86 150.432 1149.25 148.734L1148.36 146.946ZM1139.2 134.92C1145.05 134.92 1149.89 133.316 1153.62 130.031L1152.3 128.529C1149 131.43 1144.67 132.92 1139.2 132.92V134.92ZM1153.63 130.03C1157.49 126.623 1159.4 122.128 1159.4 116.64H1157.4C1157.4 121.606 1155.69 125.537 1152.3 128.53L1153.63 130.03ZM1159.4 116.64V115.04H1157.4V116.64H1159.4ZM1158.4 114.04H1138.08V116.04H1158.4V114.04ZM1138.08 114.04C1134.22 114.04 1131.05 114.867 1128.68 116.64L1129.88 118.24C1131.79 116.813 1134.48 116.04 1138.08 116.04V114.04ZM1128.68 116.64C1126.28 118.446 1125.08 120.994 1125.08 124.16H1127.08C1127.08 121.566 1128.02 119.634 1129.88 118.24L1128.68 116.64ZM1125.08 124.16C1125.08 127.342 1126.34 129.974 1128.81 131.977L1130.07 130.423C1128.07 128.799 1127.08 126.738 1127.08 124.16H1125.08ZM1128.81 131.977C1131.3 133.99 1134.81 134.92 1139.2 134.92V132.92C1135.06 132.92 1132.07 132.037 1130.07 130.423L1128.81 131.977ZM1218.3 145.44L1217.84 146.328L1217.85 146.331L1218.3 145.44ZM1203.58 85.12L1204.44 85.6323L1204.44 85.6323L1203.58 85.12ZM1218.3 71.2L1217.85 70.3086L1217.84 70.3118L1218.3 71.2ZM1258.78 70.4L1258.34 71.2979L1258.34 71.2979L1258.78 70.4ZM1271.9 81.44L1271.08 82.016L1271.09 82.0266L1271.1 82.037L1271.9 81.44ZM1278.62 97.12L1278.83 98.098L1279.78 97.8958L1279.61 96.9411L1278.62 97.12ZM1259.1 101.28L1258.11 101.412L1258.25 102.483L1259.31 102.258L1259.1 101.28ZM1249.82 86.56L1249.33 87.4325L1249.34 87.4365L1249.35 87.4405L1249.82 86.56ZM1228.7 87.04L1229.17 87.9224L1229.18 87.9168L1228.7 87.04ZM1221.02 94.88L1220.14 94.4011L1220.14 94.4108L1221.02 94.88ZM1221.02 121.92L1220.13 122.378L1220.14 122.394L1220.15 122.41L1221.02 121.92ZM1228.7 129.76L1228.21 130.63L1228.23 130.64L1228.24 130.649L1228.7 129.76ZM1253.5 127.68L1254.21 128.387L1254.21 128.387L1253.5 127.68ZM1259.58 115.2L1259.81 114.227L1258.77 113.98L1258.59 115.036L1259.58 115.2ZM1279.1 119.84L1280.07 120.078L1280.31 119.1L1279.33 118.867L1279.1 119.84ZM1271.9 135.36L1271.09 134.772L1271.09 134.775L1271.9 135.36ZM1239.26 149.24C1231.72 149.24 1224.9 147.671 1218.75 144.549L1217.85 146.331C1224.29 149.609 1231.44 151.24 1239.26 151.24V149.24ZM1218.76 144.552C1212.74 141.439 1207.97 136.93 1204.44 131.008L1202.72 132.032C1206.44 138.27 1211.49 143.041 1217.84 146.328L1218.76 144.552ZM1204.44 131.008C1200.92 125.113 1199.14 117.939 1199.14 109.44H1197.14C1197.14 118.221 1198.98 125.767 1202.72 132.032L1204.44 131.008ZM1199.14 109.44V107.2H1197.14V109.44H1199.14ZM1199.14 107.2C1199.14 98.7007 1200.92 91.5265 1204.44 85.6323L1202.72 84.6077C1198.98 90.8735 1197.14 98.4193 1197.14 107.2H1199.14ZM1204.44 85.6323C1207.97 79.7096 1212.74 75.2011 1218.76 72.0882L1217.84 70.3118C1211.49 73.5989 1206.44 78.3704 1202.72 84.6077L1204.44 85.6323ZM1218.75 72.0914C1224.9 68.9689 1231.72 67.4 1239.26 67.4V65.4C1231.44 65.4 1224.29 67.0311 1217.85 70.3086L1218.75 72.0914ZM1239.26 67.4C1246.72 67.4 1253.07 68.7131 1258.34 71.2979L1259.22 69.5021C1253.61 66.7536 1246.95 65.4 1239.26 65.4V67.4ZM1258.34 71.2979C1263.64 73.8949 1267.88 77.4676 1271.08 82.016L1272.72 80.864C1269.31 76.0258 1264.8 72.2384 1259.22 69.5021L1258.34 71.2979ZM1271.1 82.037C1274.42 86.4948 1276.6 91.577 1277.64 97.2989L1279.61 96.9411C1278.51 90.9296 1276.21 85.5585 1272.7 80.843L1271.1 82.037ZM1278.41 96.142L1258.89 100.302L1259.31 102.258L1278.83 98.098L1278.41 96.142ZM1260.09 101.148C1259.65 97.8285 1258.65 94.8202 1257.09 92.1361L1255.36 93.1439C1256.78 95.5798 1257.7 98.3315 1258.11 101.412L1260.09 101.148ZM1257.09 92.1361C1255.49 89.407 1253.22 87.2544 1250.3 85.6795L1249.35 87.4405C1251.97 88.8522 1253.96 90.753 1255.36 93.1439L1257.09 92.1361ZM1250.31 85.6875C1247.45 84.0877 1243.91 83.32 1239.74 83.32V85.32C1243.68 85.32 1246.86 86.0457 1249.33 87.4325L1250.31 85.6875ZM1239.74 83.32C1235.53 83.32 1231.69 84.263 1228.22 86.1632L1229.18 87.9168C1232.33 86.1903 1235.84 85.32 1239.74 85.32V83.32ZM1228.23 86.1576C1224.84 87.9658 1222.15 90.7286 1220.14 94.4011L1221.9 95.3588C1223.74 91.9914 1226.16 89.5276 1229.17 87.9224L1228.23 86.1576ZM1220.14 94.4108C1218.23 98.0052 1217.3 102.39 1217.3 107.52H1219.3C1219.3 102.623 1220.19 98.5815 1221.9 95.3492L1220.14 94.4108ZM1217.3 107.52V109.12H1219.3V107.52H1217.3ZM1217.3 109.12C1217.3 114.251 1218.23 118.684 1220.13 122.378L1221.91 121.462C1220.19 118.116 1219.3 114.015 1219.3 109.12H1217.3ZM1220.15 122.41C1222.15 125.972 1224.84 128.721 1228.21 130.63L1229.19 128.89C1226.16 127.172 1223.73 124.695 1221.89 121.43L1220.15 122.41ZM1228.24 130.649C1231.7 132.435 1235.54 133.32 1239.74 133.32V131.32C1235.83 131.32 1232.31 130.498 1229.16 128.871L1228.24 130.649ZM1239.74 133.32C1245.98 133.32 1250.86 131.731 1254.21 128.387L1252.79 126.973C1249.95 129.815 1245.66 131.32 1239.74 131.32V133.32ZM1254.21 128.387C1257.58 125.019 1259.69 120.659 1260.57 115.364L1258.59 115.036C1257.77 119.981 1255.83 123.941 1252.79 126.973L1254.21 128.387ZM1259.35 116.173L1278.87 120.813L1279.33 118.867L1259.81 114.227L1259.35 116.173ZM1278.13 119.602C1276.77 125.129 1274.43 130.184 1271.09 134.772L1272.71 135.948C1276.2 131.15 1278.65 125.857 1280.07 120.078L1278.13 119.602ZM1271.09 134.775C1267.89 139.219 1263.64 142.742 1258.34 145.342L1259.22 147.138C1264.8 144.404 1269.3 140.674 1272.71 135.945L1271.09 134.775ZM1258.34 145.342C1253.07 147.927 1246.72 149.24 1239.26 149.24V151.24C1246.95 151.24 1253.61 149.886 1259.22 147.138L1258.34 145.342ZM1295.73 148H1294.73V149H1295.73V148ZM1295.73 68.64V67.64H1294.73V68.64H1295.73ZM1315.89 68.64H1316.89V67.64H1315.89V68.64ZM1315.89 148V149H1316.89V148H1315.89ZM1296.53 55.84L1295.84 56.5626L1295.85 56.57L1295.86 56.5771L1296.53 55.84ZM1296.53 37.28L1295.86 36.5428L1295.85 36.55L1295.84 36.5574L1296.53 37.28ZM1296.73 148V68.64H1294.73V148H1296.73ZM1295.73 69.64H1315.89V67.64H1295.73V69.64ZM1314.89 68.64V148H1316.89V68.64H1314.89ZM1315.89 147H1295.73V149H1315.89V147ZM1305.81 58.36C1302.42 58.36 1299.57 57.2724 1297.21 55.1028L1295.86 56.5771C1298.61 59.1009 1301.95 60.36 1305.81 60.36V58.36ZM1297.22 55.1174C1294.99 52.9849 1293.85 50.1663 1293.85 46.56H1291.85C1291.85 50.6337 1293.16 54.0018 1295.84 56.5626L1297.22 55.1174ZM1293.85 46.56C1293.85 42.9537 1294.99 40.1351 1297.22 38.0026L1295.84 36.5574C1293.16 39.1182 1291.85 42.4863 1291.85 46.56H1293.85ZM1297.21 38.0171C1299.57 35.8476 1302.42 34.76 1305.81 34.76V32.76C1301.95 32.76 1298.61 34.0191 1295.86 36.5428L1297.21 38.0171ZM1305.81 34.76C1309.32 34.76 1312.15 35.8524 1314.4 38.0026L1315.78 36.5574C1313.12 34.0142 1309.77 32.76 1305.81 32.76V34.76ZM1314.4 38.0026C1316.63 40.1351 1317.77 42.9537 1317.77 46.56H1319.77C1319.77 42.4863 1318.46 39.1182 1315.78 36.5574L1314.4 38.0026ZM1317.77 46.56C1317.77 50.1663 1316.63 52.9849 1314.4 55.1174L1315.78 56.5626C1318.46 54.0018 1319.77 50.6337 1319.77 46.56H1317.77ZM1314.4 55.1174C1312.15 57.2675 1309.32 58.36 1305.81 58.36V60.36C1309.77 60.36 1313.12 59.1058 1315.78 56.5626L1314.4 55.1174ZM1354.71 145.44L1354.26 146.331L1354.71 145.44ZM1339.83 85.12L1340.69 85.6323L1340.69 85.6323L1339.83 85.12ZM1354.71 71.2L1355.16 72.0914L1355.16 72.0914L1354.71 71.2ZM1397.27 71.2L1396.82 72.0914L1396.82 72.0914L1397.27 71.2ZM1412.15 85.12L1411.29 85.6323L1411.29 85.6323L1412.15 85.12ZM1412.15 131.52L1411.29 131.008L1411.29 131.008L1412.15 131.52ZM1397.27 145.44L1396.82 144.549L1396.82 144.549L1397.27 145.44ZM1391.35 126.4L1392.05 127.117L1392.06 127.107L1391.35 126.4ZM1391.35 90.4L1390.63 91.0976L1390.64 91.1072L1390.65 91.1165L1391.35 90.4ZM1360.63 90.4L1361.33 91.1165L1361.34 91.1071L1360.63 90.4ZM1360.63 126.4L1359.92 127.107L1359.93 127.116L1360.63 126.4ZM1375.99 149.24C1368.24 149.24 1361.3 147.669 1355.16 144.549L1354.26 146.331C1360.71 149.611 1367.96 151.24 1375.99 151.24V149.24ZM1355.16 144.549C1349.04 141.434 1344.22 136.926 1340.69 131.008L1338.97 132.032C1342.7 138.274 1347.8 143.046 1354.26 146.331L1355.16 144.549ZM1340.69 131.008C1337.17 125.112 1335.39 117.99 1335.39 109.6H1333.39C1333.39 118.277 1335.24 125.768 1338.97 132.032L1340.69 131.008ZM1335.39 109.6V107.04H1333.39V109.6H1335.39ZM1335.39 107.04C1335.39 98.6499 1337.17 91.5283 1340.69 85.6323L1338.97 84.6077C1335.24 90.8717 1333.39 98.3634 1333.39 107.04H1335.39ZM1340.69 85.6323C1344.22 79.7139 1349.04 75.2056 1355.16 72.0914L1354.26 70.3086C1347.8 73.5944 1342.7 78.3661 1338.97 84.6077L1340.69 85.6323ZM1355.16 72.0914C1361.3 68.9708 1368.24 67.4 1375.99 67.4V65.4C1367.96 65.4 1360.71 67.0291 1354.26 70.3086L1355.16 72.0914ZM1375.99 67.4C1383.75 67.4 1390.68 68.9708 1396.82 72.0914L1397.72 70.3086C1391.27 67.0291 1384.02 65.4 1375.99 65.4V67.4ZM1396.82 72.0914C1402.94 75.2056 1407.76 79.7139 1411.29 85.6323L1413.01 84.6077C1409.29 78.3661 1404.19 73.5944 1397.72 70.3086L1396.82 72.0914ZM1411.29 85.6323C1414.81 91.5283 1416.59 98.6499 1416.59 107.04H1418.59C1418.59 98.3634 1416.75 90.8717 1413.01 84.6077L1411.29 85.6323ZM1416.59 107.04V109.6H1418.59V107.04H1416.59ZM1416.59 109.6C1416.59 117.99 1414.81 125.112 1411.29 131.008L1413.01 132.032C1416.75 125.768 1418.59 118.277 1418.59 109.6H1416.59ZM1411.29 131.008C1407.76 136.926 1402.94 141.434 1396.82 144.549L1397.72 146.331C1404.19 143.046 1409.29 138.274 1413.01 132.032L1411.29 131.008ZM1396.82 144.549C1390.68 147.669 1383.75 149.24 1375.99 149.24V151.24C1384.02 151.24 1391.27 149.611 1397.72 146.331L1396.82 144.549ZM1375.99 133.32C1382.41 133.32 1387.79 131.263 1392.05 127.116L1390.65 125.684C1386.81 129.431 1381.94 131.32 1375.99 131.32V133.32ZM1392.06 127.107C1396.35 122.814 1398.43 116.768 1398.43 109.12H1396.43C1396.43 116.405 1394.46 121.879 1390.64 125.693L1392.06 127.107ZM1398.43 109.12V107.52H1396.43V109.12H1398.43ZM1398.43 107.52C1398.43 99.8733 1396.35 93.873 1392.05 89.6835L1390.65 91.1165C1394.46 94.8203 1396.43 100.233 1396.43 107.52H1398.43ZM1392.07 89.7024C1387.91 85.4331 1382.52 83.32 1375.99 83.32V85.32C1382.05 85.32 1386.9 87.2603 1390.63 91.0976L1392.07 89.7024ZM1375.99 83.32C1369.56 83.32 1364.18 85.4362 1359.92 89.6929L1361.34 91.1071C1365.19 87.2571 1370.05 85.32 1375.99 85.32V83.32ZM1359.93 89.6835C1355.63 93.873 1353.55 99.8733 1353.55 107.52H1355.55C1355.55 100.233 1357.52 94.8203 1361.33 91.1165L1359.93 89.6835ZM1353.55 107.52V109.12H1355.55V107.52H1353.55ZM1353.55 109.12C1353.55 116.768 1355.63 122.814 1359.92 127.107L1361.34 125.693C1357.52 121.879 1355.55 116.405 1355.55 109.12H1353.55ZM1359.93 127.116C1364.19 131.263 1369.57 133.32 1375.99 133.32V131.32C1370.04 131.32 1365.18 129.431 1361.33 125.684L1359.93 127.116ZM1436.2 148H1435.2V149H1436.2V148ZM1436.2 68.64V67.64H1435.2V68.64H1436.2ZM1456.04 68.64H1457.04V67.64H1456.04V68.64ZM1456.04 79.04H1455.04V80.04H1456.04V79.04ZM1458.92 79.04V80.04H1459.56L1459.83 79.4591L1458.92 79.04ZM1466.12 71.2L1466.69 72.0204L1466.7 72.0146L1466.71 72.0087L1466.12 71.2ZM1498.28 71.68L1497.75 72.5269L1497.76 72.5341L1497.77 72.5409L1498.28 71.68ZM1509.16 83.36L1508.27 83.8148L1508.27 83.8226L1509.16 83.36ZM1513 148V149H1514V148H1513ZM1492.84 148H1491.84V149H1492.84V148ZM1488.36 88.8L1487.64 89.4941L1487.65 89.5007L1487.65 89.5071L1488.36 88.8ZM1461.48 90.56L1462.24 91.2042L1462.25 91.1943L1461.48 90.56ZM1456.36 148V149H1457.36V148H1456.36ZM1437.2 148V68.64H1435.2V148H1437.2ZM1436.2 69.64H1456.04V67.64H1436.2V69.64ZM1455.04 68.64V79.04H1457.04V68.64H1455.04ZM1456.04 80.04H1458.92V78.04H1456.04V80.04ZM1459.83 79.4591C1461.01 76.8994 1463.26 74.4112 1466.69 72.0204L1465.55 70.3796C1461.94 72.8954 1459.39 75.634 1458.01 78.6209L1459.83 79.4591ZM1466.71 72.0087C1469.98 69.6301 1475.06 68.36 1482.12 68.36V66.36C1474.89 66.36 1469.3 67.6499 1465.53 70.3913L1466.71 72.0087ZM1482.12 68.36C1488.15 68.36 1493.34 69.7606 1497.75 72.5269L1498.81 70.8331C1494.04 67.8394 1488.47 66.36 1482.12 66.36V68.36ZM1497.77 72.5409C1502.3 75.2145 1505.79 78.9645 1508.27 83.8148L1510.05 82.9052C1507.41 77.7288 1503.65 73.6921 1498.79 70.8191L1497.77 72.5409ZM1508.27 83.8226C1510.75 88.5611 1512 94.1565 1512 100.64H1514C1514 93.8968 1512.69 87.9722 1510.05 82.8974L1508.27 83.8226ZM1512 100.64V148H1514V100.64H1512ZM1513 147H1492.84V149H1513V147ZM1493.84 148V102.24H1491.84V148H1493.84ZM1493.84 102.24C1493.84 96.1125 1492.31 91.3332 1489.07 88.0929L1487.65 89.5071C1490.39 92.2401 1491.84 96.4208 1491.84 102.24H1493.84ZM1489.08 88.1059C1485.96 84.8682 1481.5 83.32 1475.88 83.32V85.32C1481.14 85.32 1485 86.7585 1487.64 89.4941L1489.08 88.1059ZM1475.88 83.32C1469.44 83.32 1464.34 85.498 1460.71 89.9257L1462.25 91.1943C1465.45 87.302 1469.94 85.32 1475.88 85.32V83.32ZM1460.72 89.9159C1457.1 94.2086 1455.36 100.175 1455.36 107.68H1457.36C1457.36 100.465 1459.03 95.018 1462.24 91.2041L1460.72 89.9159ZM1455.36 107.68V148H1457.36V107.68H1455.36ZM1456.36 147H1436.2V149H1456.36V147ZM1549.99 145.28L1549.5 146.148L1549.51 146.153L1549.52 146.158L1549.99 145.28ZM1535.91 131.04L1535.03 131.511L1535.04 131.521L1535.04 131.53L1535.91 131.04ZM1535.91 85.76L1536.79 86.2378L1536.8 86.2314L1535.91 85.76ZM1549.83 71.52L1550.32 72.395L1550.33 72.3882L1549.83 71.52ZM1590.95 71.68L1590.43 72.5334L1590.44 72.5403L1590.95 71.68ZM1604.39 86.08L1603.51 86.5394L1603.51 86.5457L1604.39 86.08ZM1609.19 114.24V115.24H1610.19V114.24H1609.19ZM1551.43 114.24V113.24H1550.39L1550.43 114.279L1551.43 114.24ZM1584.07 128.96L1583.4 128.224L1584.07 128.96ZM1590.15 120.8L1590.62 119.914L1589.69 119.427L1589.25 120.379L1590.15 120.8ZM1606.63 129.44L1607.51 129.914L1607.99 129.024L1607.1 128.554L1606.63 129.44ZM1600.07 138.56L1599.32 137.903L1599.32 137.905L1600.07 138.56ZM1588.87 146.88L1589.3 147.782L1589.31 147.779L1589.32 147.774L1588.87 146.88ZM1551.59 99.2L1550.61 99.0393L1550.42 100.2H1551.59V99.2ZM1588.71 99.2V100.2H1589.81L1589.71 99.1074L1588.71 99.2ZM1583.11 88.16L1582.46 88.9157L1582.46 88.921L1582.47 88.9262L1583.11 88.16ZM1570.95 149.24C1563.2 149.24 1556.39 147.618 1550.47 144.402L1549.52 146.158C1555.76 149.556 1562.92 151.24 1570.95 151.24V149.24ZM1550.49 144.412C1544.68 141.09 1540.11 136.475 1536.79 130.55L1535.04 131.53C1538.54 137.765 1543.36 142.644 1549.5 146.148L1550.49 144.412ZM1536.8 130.569C1533.58 124.552 1531.95 117.466 1531.95 109.28H1529.95C1529.95 117.734 1531.63 125.155 1535.03 131.511L1536.8 130.569ZM1531.95 109.28V107.36H1529.95V109.28H1531.95ZM1531.95 107.36C1531.95 99.1733 1533.58 92.1442 1536.79 86.2378L1535.04 85.2822C1531.63 91.5358 1529.95 98.9067 1529.95 107.36H1531.95ZM1536.8 86.2314C1540.01 80.2098 1544.52 75.6055 1550.32 72.3949L1549.35 70.6451C1543.2 74.0478 1538.43 78.9369 1535.03 85.2886L1536.8 86.2314ZM1550.33 72.3882C1556.13 69.0733 1562.89 67.4 1570.63 67.4V65.4C1562.59 65.4 1555.48 67.14 1549.34 70.6518L1550.33 72.3882ZM1570.63 67.4C1578.27 67.4 1584.85 69.1232 1590.43 72.5333L1591.48 70.8267C1585.54 67.1968 1578.58 65.4 1570.63 65.4V67.4ZM1590.44 72.5403C1596.04 75.8541 1600.39 80.5121 1603.51 86.5394L1605.28 85.6206C1602 79.2745 1597.39 74.3325 1591.46 70.8197L1590.44 72.5403ZM1603.51 86.5457C1606.62 92.4584 1608.19 99.3865 1608.19 107.36H1610.19C1610.19 99.1202 1608.57 91.8616 1605.28 85.6142L1603.51 86.5457ZM1608.19 107.36V114.24H1610.19V107.36H1608.19ZM1609.19 113.24H1551.43V115.24H1609.19V113.24ZM1550.43 114.279C1550.66 119.973 1552.79 124.662 1556.85 128.267L1558.18 126.773C1554.55 123.552 1552.64 119.387 1552.43 114.201L1550.43 114.279ZM1556.85 128.267C1560.89 131.857 1565.82 133.64 1571.59 133.64V131.64C1566.27 131.64 1561.82 130.01 1558.18 126.773L1556.85 128.267ZM1571.59 133.64C1577.36 133.64 1581.82 132.392 1584.75 129.696L1583.4 128.224C1580.99 130.434 1577.13 131.64 1571.59 131.64V133.64ZM1584.75 129.696C1587.5 127.163 1589.61 124.338 1591.06 121.221L1589.25 120.379C1587.92 123.235 1585.98 125.851 1583.4 128.224L1584.75 129.696ZM1589.69 121.686L1606.17 130.326L1607.1 128.554L1590.62 119.914L1589.69 121.686ZM1605.75 128.966C1604.31 131.654 1602.17 134.633 1599.32 137.903L1600.83 139.217C1603.74 135.874 1605.97 132.773 1607.51 129.914L1605.75 128.966ZM1599.32 137.905C1596.65 140.985 1593.03 143.684 1588.43 145.986L1589.32 147.774C1594.1 145.383 1597.95 142.535 1600.83 139.215L1599.32 137.905ZM1588.44 145.978C1583.93 148.133 1578.11 149.24 1570.95 149.24V151.24C1578.3 151.24 1584.43 150.107 1589.3 147.782L1588.44 145.978ZM1551.59 100.2H1588.71V98.2H1551.59V100.2ZM1589.71 99.1074C1589.26 94.278 1587.28 90.3486 1583.76 87.3938L1582.47 88.9262C1585.56 91.5181 1587.31 94.9487 1587.72 99.2926L1589.71 99.1074ZM1583.77 87.4043C1580.35 84.4389 1575.88 83 1570.47 83V85C1575.52 85 1579.48 86.3344 1582.46 88.9157L1583.77 87.4043ZM1570.47 83C1564.86 83 1560.29 84.4328 1556.86 87.4043L1558.17 88.9157C1561.14 86.3405 1565.2 85 1570.47 85V83ZM1556.86 87.4043C1553.46 90.3463 1551.39 94.2457 1550.61 99.0393L1552.58 99.3607C1553.29 94.981 1555.16 91.5204 1558.17 88.9157L1556.86 87.4043ZM1634.66 143.52L1635.22 142.692L1635.22 142.692L1634.66 143.52ZM1622.66 124.32L1622.41 123.352L1621.52 123.581L1621.67 124.484L1622.66 124.32ZM1641.22 119.52L1642.2 119.324L1641.99 118.287L1640.97 118.552L1641.22 119.52ZM1644.9 128.32L1644.12 128.945L1644.13 128.956L1644.14 128.968L1644.9 128.32ZM1651.46 132.96L1651.11 133.896L1651.13 133.905L1651.15 133.912L1651.46 132.96ZM1670.5 131.84L1671.08 132.654L1671.09 132.645L1671.1 132.635L1670.5 131.84ZM1670.66 120L1670.11 120.838L1670.13 120.848L1670.14 120.857L1670.66 120ZM1660.42 116.64L1660.6 115.656L1660.59 115.656L1660.42 116.64ZM1655.94 115.84L1655.75 116.822L1655.76 116.824L1655.94 115.84ZM1640.74 111.52L1640.35 112.442L1640.36 112.446L1640.37 112.45L1640.74 111.52ZM1629.7 103.68L1628.93 104.323L1628.93 104.323L1629.7 103.68ZM1634.18 72.8L1634.76 73.6107L1634.77 73.6036L1634.18 72.8ZM1678.98 72.32L1678.42 73.1497L1678.42 73.1497L1678.98 72.32ZM1690.5 87.84L1690.79 88.7958L1691.73 88.5082L1691.46 87.5674L1690.5 87.84ZM1671.78 93.6L1670.8 93.806L1671.02 94.8779L1672.07 94.5558L1671.78 93.6ZM1666.5 84.96L1665.94 85.792L1665.95 85.7972L1665.96 85.8023L1666.5 84.96ZM1648.1 84.48L1648.63 85.3255L1648.65 85.3157L1648.66 85.3053L1648.1 84.48ZM1648.26 95.68L1647.74 96.5375L1647.76 96.5472L1647.78 96.5562L1648.26 95.68ZM1656.9 98.4L1657.07 97.4156L1657.07 97.4152L1656.9 98.4ZM1677.54 103.52L1677.18 104.455L1677.2 104.46L1677.21 104.464L1677.54 103.52ZM1689.06 111.04L1688.29 111.683L1688.3 111.696L1688.31 111.709L1689.06 111.04ZM1684.26 143.52L1684.86 144.32L1684.86 144.318L1684.26 143.52ZM1660.1 149.24C1649.89 149.24 1641.62 147.031 1635.22 142.692L1634.1 144.348C1640.92 148.969 1649.61 151.24 1660.1 151.24V149.24ZM1635.22 142.692C1628.85 138.375 1624.99 132.222 1623.64 124.156L1621.67 124.484C1623.1 133.058 1627.24 139.705 1634.1 144.348L1635.22 142.692ZM1622.91 125.288L1641.47 120.488L1640.97 118.552L1622.41 123.352L1622.91 125.288ZM1640.24 119.716C1641 123.548 1642.28 126.647 1644.12 128.945L1645.68 127.695C1644.1 125.726 1642.93 122.959 1642.2 119.324L1640.24 119.716ZM1644.14 128.968C1646.06 131.227 1648.38 132.875 1651.11 133.896L1651.81 132.024C1649.41 131.125 1647.37 129.679 1645.66 127.672L1644.14 128.968ZM1651.15 133.912C1653.93 134.8 1656.91 135.24 1660.1 135.24V133.24C1657.1 133.24 1654.32 132.826 1651.76 132.008L1651.15 133.912ZM1660.1 135.24C1664.87 135.24 1668.59 134.434 1671.08 132.654L1669.92 131.026C1667.93 132.446 1664.71 133.24 1660.1 133.24V135.24ZM1671.1 132.635C1673.55 130.771 1674.86 128.414 1674.86 125.6H1672.86C1672.86 127.692 1671.92 129.495 1669.89 131.045L1671.1 132.635ZM1674.86 125.6C1674.86 122.789 1673.6 120.6 1671.17 119.143L1670.14 120.857C1671.98 121.96 1672.86 123.504 1672.86 125.6H1674.86ZM1671.2 119.162C1668.9 117.664 1665.33 116.516 1660.6 115.656L1660.24 117.624C1664.9 118.471 1668.15 119.562 1670.11 120.838L1671.2 119.162ZM1660.59 115.656L1656.11 114.856L1655.76 116.824L1660.24 117.624L1660.59 115.656ZM1656.13 114.858C1650.63 113.801 1645.63 112.377 1641.11 110.59L1640.37 112.45C1645.02 114.289 1650.15 115.745 1655.75 116.822L1656.13 114.858ZM1641.12 110.598C1636.66 108.73 1633.12 106.204 1630.46 103.037L1628.93 104.323C1631.82 107.769 1635.64 110.47 1640.35 112.442L1641.12 110.598ZM1630.46 103.037C1627.87 99.9467 1626.54 95.9232 1626.54 90.88H1624.54C1624.54 96.2901 1625.98 100.8 1628.93 104.323L1630.46 103.037ZM1626.54 90.88C1626.54 83.2665 1629.3 77.5597 1634.76 73.6107L1633.59 71.9893C1627.54 76.3603 1624.54 82.7068 1624.54 90.88H1626.54ZM1634.77 73.6036C1640.31 69.4989 1647.66 67.4 1656.9 67.4V65.4C1647.36 65.4 1639.56 67.5677 1633.58 71.9964L1634.77 73.6036ZM1656.9 67.4C1665.6 67.4 1672.75 69.3391 1678.42 73.1497L1679.54 71.4903C1673.47 67.4075 1665.9 65.4 1656.9 65.4V67.4ZM1678.42 73.1497C1684.1 76.9733 1687.79 81.9553 1689.54 88.1126L1691.46 87.5674C1689.58 80.9247 1685.59 75.56 1679.54 71.4903L1678.42 73.1497ZM1690.2 86.8842L1671.48 92.6442L1672.07 94.5558L1690.79 88.7958L1690.2 86.8842ZM1672.76 93.394C1671.87 89.1626 1669.99 86.0096 1667.04 84.1177L1665.96 85.8023C1668.34 87.3237 1669.98 89.9307 1670.8 93.806L1672.76 93.394ZM1667.05 84.1279C1664.29 82.2874 1660.89 81.4 1656.9 81.4V83.4C1660.59 83.4 1663.58 84.2193 1665.94 85.792L1667.05 84.1279ZM1656.9 81.4C1652.96 81.4 1649.8 82.1066 1647.53 83.6547L1648.66 85.3053C1650.45 84.0801 1653.15 83.4 1656.9 83.4V81.4ZM1647.56 83.6345C1645.25 85.0929 1644.06 87.2214 1644.06 89.92H1646.06C1646.06 87.9253 1646.89 86.427 1648.63 85.3255L1647.56 83.6345ZM1644.06 89.92C1644.06 92.8188 1645.3 95.0704 1647.74 96.5375L1648.77 94.8225C1646.95 93.7296 1646.06 92.1412 1646.06 89.92H1644.06ZM1647.78 96.5562C1650.04 97.8021 1653.04 98.7345 1656.72 99.3848L1657.07 97.4152C1653.5 96.7855 1650.74 95.9045 1648.74 94.8038L1647.78 96.5562ZM1656.72 99.3844L1661.2 100.184L1661.55 98.2156L1657.07 97.4156L1656.72 99.3844ZM1661.2 100.184C1667.13 101.242 1672.45 102.667 1677.18 104.455L1677.89 102.585C1673.02 100.746 1667.58 99.2912 1661.55 98.2156L1661.2 100.184ZM1677.21 104.464C1681.98 106.124 1685.66 108.54 1688.29 111.683L1689.82 110.397C1686.91 106.927 1682.91 104.329 1677.87 102.575L1677.21 104.464ZM1688.31 111.709C1690.99 114.677 1692.38 118.787 1692.38 124.16H1694.38C1694.38 118.44 1692.89 113.803 1689.8 110.371L1688.31 111.709ZM1692.38 124.16C1692.38 132.2 1689.46 138.343 1683.66 142.722L1684.86 144.318C1691.22 139.523 1694.38 132.76 1694.38 124.16H1692.38ZM1683.66 142.72C1677.91 147.031 1670.09 149.24 1660.1 149.24V151.24C1670.37 151.24 1678.66 148.969 1684.86 144.32L1683.66 142.72ZM1710.72 116.32H1709.72V117.32H1710.72V116.32ZM1710.72 98.08V97.08H1709.72V98.08H1710.72ZM1758.08 98.08H1759.08V97.08H1758.08V98.08ZM1758.08 116.32V117.32H1759.08V116.32H1758.08ZM1711.72 116.32V98.08H1709.72V116.32H1711.72ZM1710.72 99.08H1758.08V97.08H1710.72V99.08ZM1757.08 98.08V116.32H1759.08V98.08H1757.08ZM1758.08 115.32H1710.72V117.32H1758.08V115.32Z" fill="black"/>
</svg>
