<svg width="1627" height="159" viewBox="0 0 1627 159" fill="none" xmlns="http://www.w3.org/2000/svg">
<g clip-path="url(#clip0_323_12)">
<path opacity="0.3" d="M51.185 114H50.185V115H51.185V114ZM51.185 1.99999V0.999992H50.185V1.99999H51.185ZM118.225 5.67999L117.8 6.58523L117.8 6.58523L118.225 5.67999ZM130.385 16.08L131.226 15.5392L131.226 15.5392L130.385 16.08ZM129.905 50.16L130.698 50.7697L130.698 50.7697L129.905 50.16ZM118.065 59.28L117.686 58.3545L117.065 58.6086V59.28H118.065ZM118.065 62.16H117.065V63.1112L118.015 63.1588L118.065 62.16ZM127.985 66.64L127.222 67.2859L127.228 67.2933L127.234 67.3006L127.985 66.64ZM131.505 114V115H132.505V114H131.505ZM110.385 114H109.385V115H110.385V114ZM108.305 74.16L107.524 74.7847L107.536 74.8001L107.549 74.8149L108.305 74.16ZM72.305 71.76V70.76H71.305V71.76H72.305ZM72.305 114V115H73.305V114H72.305ZM72.305 52.56H71.305V53.56H72.305V52.56ZM109.265 48.56L109.958 49.2808L109.959 49.2803L109.265 48.56ZM109.425 25.36L108.718 26.0671L108.725 26.074L108.732 26.0808L109.425 25.36ZM72.305 21.2V20.2H71.305V21.2H72.305ZM52.185 114V1.99999H50.185V114H52.185ZM51.185 2.99999H99.825V0.999992H51.185V2.99999ZM99.825 2.99999C106.75 2.99999 112.732 4.20646 117.8 6.58523L118.65 4.77476C113.264 2.24686 106.98 0.999992 99.825 0.999992V2.99999ZM117.8 6.58523C122.871 8.96563 126.774 12.3123 129.544 16.6208L131.226 15.5392C128.236 10.8877 124.032 7.30103 118.65 4.77476L117.8 6.58523ZM129.544 16.6207C132.306 20.9175 133.705 26.0039 133.705 31.92H135.705C135.705 25.6761 134.224 20.2025 131.226 15.5392L129.544 16.6207ZM133.705 31.92V33.84H135.705V31.92H133.705ZM133.705 33.84C133.705 40.4019 132.144 45.6089 129.112 49.5503L130.698 50.7697C134.066 46.3911 135.705 40.7181 135.705 33.84H133.705ZM129.112 49.5503C126.016 53.5754 122.21 56.5037 117.686 58.3545L118.444 60.2055C123.306 58.2163 127.394 55.0646 130.698 50.7697L129.112 49.5503ZM117.065 59.28V62.16H119.065V59.28H117.065ZM118.015 63.1588C122.058 63.3609 125.085 64.7612 127.222 67.2859L128.748 65.9941C126.191 62.9722 122.605 61.3858 118.115 61.1612L118.015 63.1588ZM127.234 67.3006C129.382 69.7408 130.505 73.0576 130.505 77.36H132.505C132.505 72.7024 131.282 68.8725 128.736 65.9794L127.234 67.3006ZM130.505 77.36V114H132.505V77.36H130.505ZM131.505 113H110.385V115H131.505V113ZM111.385 114V80.4H109.385V114H111.385ZM111.385 80.4C111.385 77.652 110.636 75.323 109.061 73.5051L107.549 74.8149C108.747 76.197 109.385 78.028 109.385 80.4H111.385ZM109.086 73.5353C107.535 71.5972 104.984 70.76 101.745 70.76V72.76C104.693 72.76 106.515 73.5228 107.524 74.7847L109.086 73.5353ZM101.745 70.76H72.305V72.76H101.745V70.76ZM71.305 71.76V114H73.305V71.76H71.305ZM72.305 113H51.185V115H72.305V113ZM72.305 53.56H97.585V51.56H72.305V53.56ZM97.585 53.56C102.776 53.56 106.947 52.1759 109.958 49.2808L108.572 47.8392C106.036 50.2775 102.421 51.56 97.585 51.56V53.56ZM109.959 49.2803C113.059 46.2949 114.585 42.3958 114.585 37.68H112.585C112.585 41.9242 111.231 45.2784 108.571 47.8397L109.959 49.2803ZM114.585 37.68V36.08H112.585V37.68H114.585ZM114.585 36.08C114.585 31.3766 113.12 27.5256 110.118 24.6392L108.732 26.0808C111.277 28.5277 112.585 31.8234 112.585 36.08H114.585ZM110.132 24.6529C107.119 21.6398 102.886 20.2 97.585 20.2V22.2C102.524 22.2 106.184 23.5335 108.718 26.0671L110.132 24.6529ZM97.585 20.2H72.305V22.2H97.585V20.2ZM71.305 21.2V52.56H73.305V21.2H71.305ZM168.119 111.28L167.623 112.148L167.632 112.153L167.641 112.158L168.119 111.28ZM154.039 97.04L153.157 97.5114L153.162 97.5205L153.167 97.5295L154.039 97.04ZM154.039 51.76L154.917 52.2378L154.921 52.2314L154.039 51.76ZM167.959 37.52L168.443 38.395L168.455 38.3882L167.959 37.52ZM209.079 37.68L208.557 38.5334L208.569 38.5403L209.079 37.68ZM222.519 52.08L221.631 52.5394L221.634 52.5457L222.519 52.08ZM227.319 80.24V81.24H228.319V80.24H227.319ZM169.559 80.24V79.24H168.519L168.56 80.2792L169.559 80.24ZM202.199 94.96L201.522 94.2241L202.199 94.96ZM208.279 86.8L208.743 85.9143L207.814 85.4271L207.372 86.3789L208.279 86.8ZM224.759 95.44L225.639 95.9141L226.119 95.0238L225.223 94.5543L224.759 95.44ZM218.199 104.56L217.445 103.903L217.443 103.905L218.199 104.56ZM206.999 112.88L207.429 113.782L207.438 113.779L207.446 113.774L206.999 112.88ZM169.719 65.2L168.732 65.0393L168.543 66.2H169.719V65.2ZM206.839 65.2V66.2H207.936L207.834 65.1074L206.839 65.2ZM201.239 54.16L200.584 54.9157L200.59 54.921L200.596 54.9262L201.239 54.16ZM189.079 115.24C181.329 115.24 174.51 113.618 168.597 110.402L167.641 112.158C173.887 115.556 181.042 117.24 189.079 117.24V115.24ZM168.615 110.412C162.801 107.09 158.237 102.475 154.911 96.5505L153.167 97.5295C156.668 103.765 161.49 108.644 167.623 112.148L168.615 110.412ZM154.921 96.5686C151.705 90.5517 150.079 83.4661 150.079 75.28H148.079C148.079 83.7339 149.759 91.1549 153.157 97.5114L154.921 96.5686ZM150.079 75.28V73.36H148.079V75.28H150.079ZM150.079 73.36C150.079 65.1733 151.705 58.1442 154.917 52.2378L153.16 51.2822C149.759 57.5358 148.079 64.9067 148.079 73.36H150.079ZM154.921 52.2314C158.139 46.2098 162.643 41.6055 168.443 38.3949L167.474 36.6451C161.328 40.0478 156.552 44.9369 153.157 51.2886L154.921 52.2314ZM168.455 38.3882C174.256 35.0733 181.013 33.4 188.759 33.4V31.4C180.717 31.4 173.608 33.14 167.463 36.6518L168.455 38.3882ZM188.759 33.4C196.39 33.4 202.977 35.1232 208.557 38.5333L209.6 36.8267C203.66 33.1968 196.701 31.4 188.759 31.4V33.4ZM208.569 38.5403C214.161 41.8541 218.513 46.5121 221.631 52.5394L223.407 51.6206C220.125 45.2745 215.516 40.3325 209.589 36.8197L208.569 38.5403ZM221.634 52.5457C224.746 58.4584 226.319 65.3865 226.319 73.36H228.319C228.319 65.1202 226.692 57.8616 223.404 51.6142L221.634 52.5457ZM226.319 73.36V80.24H228.319V73.36H226.319ZM227.319 79.24H169.559V81.24H227.319V79.24ZM168.56 80.2792C168.783 85.9729 170.918 90.6617 174.974 94.2674L176.303 92.7726C172.68 89.5517 170.761 85.3871 170.558 80.2008L168.56 80.2792ZM174.974 94.2674C179.013 97.857 183.948 99.64 189.719 99.64V97.64C184.396 97.64 179.945 96.0097 176.303 92.7726L174.974 94.2674ZM189.719 99.64C195.488 99.64 199.945 98.3925 202.876 95.6959L201.522 94.2241C199.119 96.4342 195.256 97.64 189.719 97.64V99.64ZM202.876 95.6959C205.629 93.1627 207.739 90.3382 209.186 87.2211L207.372 86.3789C206.046 89.2351 204.102 91.8506 201.522 94.2241L202.876 95.6959ZM207.814 87.6857L224.294 96.3257L225.223 94.5543L208.743 85.9143L207.814 87.6857ZM223.878 94.9659C222.431 97.654 220.293 100.633 217.445 103.903L218.953 105.217C221.864 101.874 224.1 98.7727 225.639 95.9141L223.878 94.9659ZM217.443 103.905C214.774 106.985 211.155 109.684 206.552 111.986L207.446 113.774C212.23 111.383 216.077 108.535 218.954 105.215L217.443 103.905ZM206.568 111.978C202.051 114.133 196.238 115.24 189.079 115.24V117.24C196.426 117.24 202.559 116.107 207.429 113.782L206.568 111.978ZM169.719 66.2H206.839V64.2H169.719V66.2ZM207.834 65.1074C207.385 60.278 205.404 56.3486 201.881 53.3938L200.596 54.9262C203.686 57.5181 205.439 60.9487 205.843 65.2926L207.834 65.1074ZM201.894 53.4043C198.472 50.4389 194.007 49 188.599 49V51C193.643 51 197.605 52.3344 200.584 54.9157L201.894 53.4043ZM188.599 49C182.988 49 178.412 50.4328 174.984 53.4043L176.294 54.9157C179.265 52.3405 183.329 51 188.599 51V49ZM174.984 53.4043C171.589 56.3463 169.512 60.2457 168.732 65.0393L170.706 65.3607C171.419 60.981 173.288 57.5204 176.294 54.9157L174.984 53.4043ZM254.703 113.36L254.29 114.271L254.299 114.275L254.309 114.279L254.703 113.36ZM243.983 104.72L243.15 105.275L243.159 105.288L243.169 105.301L243.983 104.72ZM243.983 77.2L243.169 76.6188L243.166 76.6233L243.983 77.2ZM254.863 68.88L255.23 69.81L255.241 69.8055L254.863 68.88ZM292.623 66V67H293.623V66H292.623ZM289.103 52.4L288.38 53.0912L288.388 53.0992L288.395 53.1071L289.103 52.4ZM266.703 52.24L267.377 52.9785L267.385 52.9707L267.394 52.9626L266.703 52.24ZM261.903 61.04L261.584 61.9879L262.654 62.3477L262.882 61.2416L261.903 61.04ZM243.343 54.8L242.389 54.4989L242.093 55.435L243.024 55.7479L243.343 54.8ZM249.423 43.76L248.658 43.1151L248.656 43.1174L249.423 43.76ZM260.783 35.6L261.179 36.5181L261.189 36.5138L260.783 35.6ZM303.023 40.24L302.371 40.9983L302.371 40.9983L303.023 40.24ZM323.023 97.36H324.023V96.36H323.023V97.36ZM323.023 114V115H324.023V114H323.023ZM299.823 111.12L299.223 111.92L299.223 111.92L299.823 111.12ZM295.983 103.28H296.983V102.28H295.983V103.28ZM292.943 103.28V102.28H292.222L291.994 102.964L292.943 103.28ZM290.063 108.4L290.868 108.993L290.875 108.983L290.882 108.973L290.063 108.4ZM283.023 113.84L283.47 114.734L283.023 113.84ZM287.183 95.28L287.843 96.0312L287.844 96.0298L287.183 95.28ZM292.623 81.04H293.623V80.04H292.623V81.04ZM263.503 83.44L264.103 84.24L264.103 84.24L263.503 83.44ZM263.663 97.2L263.033 97.9772L263.033 97.9772L263.663 97.2ZM269.903 115.24C264.363 115.24 259.434 114.3 255.096 112.441L254.309 114.279C258.931 116.26 264.135 117.24 269.903 117.24V115.24ZM255.115 112.449C250.783 110.489 247.353 107.718 244.796 104.139L243.169 105.301C245.945 109.188 249.662 112.177 254.29 114.271L255.115 112.449ZM244.815 104.165C242.382 100.517 241.143 96.0786 241.143 90.8H239.143C239.143 96.4014 240.463 101.243 243.15 105.275L244.815 104.165ZM241.143 90.8C241.143 85.5193 242.383 81.1998 244.799 77.7767L243.166 76.6233C240.462 80.4536 239.143 85.2007 239.143 90.8H241.143ZM244.796 77.7812C247.342 74.2165 250.809 71.558 255.23 69.81L254.495 67.95C249.743 69.8287 245.956 72.7168 243.169 76.6188L244.796 77.7812ZM255.241 69.8055C259.795 67.9426 264.996 67 270.863 67V65C264.782 65 259.317 65.9774 254.484 67.9545L255.241 69.8055ZM270.863 67H292.623V65H270.863V67ZM293.623 66V61.52H291.623V66H293.623ZM293.623 61.52C293.623 57.5576 292.368 54.2512 289.81 51.6929L288.395 53.1071C290.53 55.2421 291.623 58.0157 291.623 61.52H293.623ZM289.825 51.7088C287.212 48.977 283.158 47.72 277.903 47.72V49.72C282.887 49.72 286.3 50.9163 288.38 53.0912L289.825 51.7088ZM277.903 47.72C272.753 47.72 268.723 48.9236 266.011 51.5174L267.394 52.9626C269.589 50.8631 273.025 49.72 277.903 49.72V47.72ZM266.028 51.5015C263.401 53.9 261.707 57.0298 260.923 60.8383L262.882 61.2416C263.591 57.7968 265.097 55.06 267.377 52.9785L266.028 51.5015ZM262.221 60.0921L243.661 53.8521L243.024 55.7479L261.584 61.9879L262.221 60.0921ZM244.296 55.1011C245.536 51.1748 247.498 47.6104 250.189 44.4026L248.656 43.1174C245.8 46.5229 243.709 50.3186 242.389 54.4989L244.296 55.1011ZM250.187 44.4049C252.953 41.1259 256.607 38.4923 261.179 36.5181L260.386 34.6819C255.571 36.7611 251.652 39.5674 248.658 43.1151L250.187 44.4049ZM261.189 36.5138C265.829 34.4516 271.496 33.4 278.223 33.4V31.4C271.296 31.4 265.336 32.4817 260.376 34.6862L261.189 36.5138ZM278.223 33.4C288.511 33.4 296.521 35.9699 302.371 40.9983L303.674 39.4817C297.364 34.0568 288.841 31.4 278.223 31.4V33.4ZM302.371 40.9983C308.178 45.991 311.143 53.2563 311.143 62.96H313.143C313.143 52.8237 310.027 44.9424 303.674 39.4817L302.371 40.9983ZM311.143 62.96V92.56H313.143V62.96H311.143ZM311.143 92.56C311.143 94.2976 311.547 95.7871 312.531 96.8423C313.528 97.9105 314.957 98.36 316.623 98.36V96.36C315.302 96.36 314.49 96.0095 313.994 95.4777C313.485 94.9329 313.143 94.0224 313.143 92.56H311.143ZM316.623 98.36H323.023V96.36H316.623V98.36ZM322.023 97.36V114H324.023V97.36H322.023ZM323.023 113H309.583V115H323.023V113ZM309.583 113C305.801 113 302.772 112.082 300.423 110.32L299.223 111.92C301.993 113.998 305.471 115 309.583 115V113ZM300.423 110.32C298.114 108.589 296.983 106.325 296.983 103.44H294.983C294.983 106.955 296.411 109.811 299.223 111.92L300.423 110.32ZM296.983 103.44V103.28H294.983V103.44H296.983ZM295.983 102.28H292.943V104.28H295.983V102.28ZM291.994 102.964C291.614 104.103 290.723 105.713 289.243 107.827L290.882 108.973C292.389 106.82 293.417 105.017 293.891 103.596L291.994 102.964ZM289.257 107.807C287.889 109.664 285.69 111.388 282.575 112.946L283.47 114.734C286.755 113.092 289.249 111.189 290.868 108.993L289.257 107.807ZM282.575 112.946C279.57 114.448 275.371 115.24 269.903 115.24V117.24C275.527 117.24 280.075 116.432 283.47 114.734L282.575 112.946ZM273.423 100.92C279.266 100.92 284.104 99.3165 287.843 96.0312L286.522 94.5288C283.221 97.4302 278.885 98.92 273.423 98.92V100.92ZM287.844 96.0298C291.705 92.6234 293.623 88.1275 293.623 82.64H291.623C291.623 87.6058 289.914 91.5366 286.521 94.5302L287.844 96.0298ZM293.623 82.64V81.04H291.623V82.64H293.623ZM292.623 80.04H272.303V82.04H292.623V80.04ZM272.303 80.04C268.437 80.04 265.266 80.8673 262.903 82.64L264.103 84.24C266.006 82.8127 268.701 82.04 272.303 82.04V80.04ZM262.903 82.64C260.495 84.4457 259.303 86.9945 259.303 90.16H261.303C261.303 87.5655 262.243 85.6343 264.103 84.24L262.903 82.64ZM259.303 90.16C259.303 93.342 260.559 95.9742 263.033 97.9772L264.292 96.4228C262.286 94.7991 261.303 92.738 261.303 90.16H259.303ZM263.033 97.9772C265.519 99.9897 269.033 100.92 273.423 100.92V98.92C269.279 98.92 266.286 98.037 264.292 96.4228L263.033 97.9772ZM352.52 111.44L352.061 112.328L352.067 112.331L352.52 111.44ZM337.8 51.12L338.659 51.6323L338.659 51.6323L337.8 51.12ZM352.52 37.2L352.067 36.3086L352.061 36.3118L352.52 37.2ZM393 36.4L392.56 37.2979L392.56 37.2979L393 36.4ZM406.12 47.44L405.303 48.016L405.31 48.0266L405.318 48.037L406.12 47.44ZM412.84 63.12L413.048 64.098L413.997 63.8958L413.824 62.9411L412.84 63.12ZM393.32 67.28L392.329 67.4122L392.472 68.4833L393.528 68.258L393.32 67.28ZM384.04 52.56L383.551 53.4325L383.559 53.4365L383.566 53.4405L384.04 52.56ZM362.92 53.04L363.391 53.9224L363.401 53.9168L362.92 53.04ZM355.24 60.88L354.362 60.4011L354.357 60.4108L355.24 60.88ZM355.24 87.92L354.351 88.378L354.359 88.3943L354.368 88.4103L355.24 87.92ZM362.92 95.76L362.427 96.63L362.444 96.6397L362.461 96.6486L362.92 95.76ZM387.72 93.68L388.427 94.3871L388.427 94.3871L387.72 93.68ZM393.8 81.2L394.031 80.2271L392.99 79.9795L392.814 81.0356L393.8 81.2ZM413.32 85.84L414.291 86.0782L414.531 85.1L413.551 84.8671L413.32 85.84ZM406.12 101.36L405.311 100.772L405.309 100.775L406.12 101.36ZM373.48 115.24C365.943 115.24 359.114 113.671 352.973 110.549L352.067 112.331C358.513 115.609 365.657 117.24 373.48 117.24V115.24ZM352.979 110.552C346.961 107.439 342.192 102.93 338.659 97.0077L336.941 98.0323C340.662 104.27 345.705 109.041 352.061 112.328L352.979 110.552ZM338.659 97.0077C335.143 91.1135 333.36 83.9393 333.36 75.44H331.36C331.36 84.2207 333.204 91.7665 336.941 98.0323L338.659 97.0077ZM333.36 75.44V73.2H331.36V75.44H333.36ZM333.36 73.2C333.36 64.7007 335.143 57.5265 338.659 51.6323L336.941 50.6077C333.204 56.8735 331.36 64.4193 331.36 73.2H333.36ZM338.659 51.6323C342.192 45.7096 346.961 41.2011 352.979 38.0882L352.061 36.3118C345.705 39.5989 340.662 44.3704 336.941 50.6077L338.659 51.6323ZM352.973 38.0914C359.114 34.9689 365.943 33.4 373.48 33.4V31.4C365.657 31.4 358.513 33.0311 352.067 36.3086L352.973 38.0914ZM373.48 33.4C380.938 33.4 387.287 34.7131 392.56 37.2979L393.44 35.5021C387.833 32.7536 381.169 31.4 373.48 31.4V33.4ZM392.56 37.2979C397.858 39.8949 402.098 43.4676 405.303 48.016L406.937 46.864C403.529 42.0258 399.022 38.2384 393.44 35.5021L392.56 37.2979ZM405.318 48.037C408.635 52.4948 410.816 57.577 411.856 63.2989L413.824 62.9411C412.731 56.9296 410.431 51.5585 406.922 46.843L405.318 48.037ZM412.632 62.142L393.112 66.302L393.528 68.258L413.048 64.098L412.632 62.142ZM394.311 67.1478C393.869 63.8285 392.87 60.8202 391.304 58.1361L389.576 59.1439C390.997 61.5798 391.918 64.3315 392.329 67.4122L394.311 67.1478ZM391.304 58.1361C389.712 55.407 387.439 53.2544 384.514 51.6795L383.566 53.4405C386.188 54.8522 388.182 56.753 389.576 59.1439L391.304 58.1361ZM384.529 51.6875C381.672 50.0877 378.131 49.32 373.96 49.32V51.32C377.896 51.32 381.075 52.0457 383.551 53.4325L384.529 51.6875ZM373.96 49.32C369.752 49.32 365.904 50.263 362.439 52.1632L363.401 53.9168C366.549 52.1903 370.062 51.32 373.96 51.32V49.32ZM362.449 52.1576C359.059 53.9658 356.365 56.7286 354.362 60.4011L356.118 61.3588C357.955 57.9914 360.381 55.5276 363.391 53.9224L362.449 52.1576ZM354.357 60.4108C352.447 64.0052 351.52 68.3902 351.52 73.52H353.52C353.52 68.6231 354.406 64.5815 356.123 61.3492L354.357 60.4108ZM351.52 73.52V75.12H353.52V73.52H351.52ZM351.52 75.12C351.52 80.2513 352.448 84.6837 354.351 88.378L356.129 87.462C354.405 84.1163 353.52 80.0154 353.52 75.12H351.52ZM354.368 88.4103C356.372 91.9716 359.058 94.7211 362.427 96.63L363.413 94.89C360.382 93.1723 357.948 90.6951 356.112 87.4297L354.368 88.4103ZM362.461 96.6486C365.922 98.4349 369.762 99.32 373.96 99.32V97.32C370.052 97.32 366.531 96.4985 363.379 94.8714L362.461 96.6486ZM373.96 99.32C380.2 99.32 385.083 97.7312 388.427 94.3871L387.013 92.9729C384.17 95.8155 379.88 97.32 373.96 97.32V99.32ZM388.427 94.3871C391.795 91.0188 393.904 86.6587 394.786 81.3644L392.814 81.0356C391.989 85.9813 390.045 89.9412 387.013 92.9729L388.427 94.3871ZM393.569 82.1729L413.089 86.8129L413.551 84.8671L394.031 80.2271L393.569 82.1729ZM412.349 85.6018C410.993 91.1294 408.648 96.1838 405.311 100.772L406.929 101.948C410.419 97.1495 412.874 91.8573 414.291 86.0782L412.349 85.6018ZM405.309 100.775C402.105 105.219 397.863 108.742 392.56 111.342L393.44 113.138C399.017 110.404 403.522 106.674 406.931 101.945L405.309 100.775ZM392.56 111.342C387.287 113.927 380.938 115.24 373.48 115.24V117.24C381.169 117.24 387.833 115.886 393.44 113.138L392.56 111.342ZM429.95 114H428.95V115H429.95V114ZM429.95 34.64V33.64H428.95V34.64H429.95ZM450.11 34.64H451.11V33.64H450.11V34.64ZM450.11 114V115H451.11V114H450.11ZM430.75 21.84L430.059 22.5626L430.066 22.57L430.074 22.5771L430.75 21.84ZM430.75 3.27999L430.074 2.54284L430.066 2.55001L430.059 2.55735L430.75 3.27999ZM430.95 114V34.64H428.95V114H430.95ZM429.95 35.64H450.11V33.64H429.95V35.64ZM449.11 34.64V114H451.11V34.64H449.11ZM450.11 113H429.95V115H450.11V113ZM440.03 24.36C436.641 24.36 433.793 23.2724 431.426 21.1028L430.074 22.5771C432.827 25.1009 436.165 26.36 440.03 26.36V24.36ZM431.441 21.1174C429.212 18.9849 428.07 16.1663 428.07 12.56H426.07C426.07 16.6337 427.382 20.0018 430.059 22.5626L431.441 21.1174ZM428.07 12.56C428.07 8.95365 429.212 6.13513 431.441 4.00264L430.059 2.55735C427.382 5.1182 426.07 8.48634 426.07 12.56H428.07ZM431.426 4.01715C433.793 1.8476 436.641 0.759993 440.03 0.759993V-1.24001C436.165 -1.24001 432.827 0.0190515 430.074 2.54284L431.426 4.01715ZM440.03 0.759993C443.534 0.759993 446.371 1.85244 448.619 4.00264L450.001 2.55735C447.342 0.014214 443.993 -1.24001 440.03 -1.24001V0.759993ZM448.619 4.00264C450.848 6.13513 451.99 8.95365 451.99 12.56H453.99C453.99 8.48634 452.678 5.1182 450.001 2.55735L448.619 4.00264ZM451.99 12.56C451.99 16.1663 450.848 18.9849 448.619 21.1174L450.001 22.5626C452.678 20.0018 453.99 16.6337 453.99 12.56H451.99ZM448.619 21.1174C446.371 23.2675 443.534 24.36 440.03 24.36V26.36C443.993 26.36 447.342 25.1058 450.001 22.5626L448.619 21.1174ZM488.93 111.44L488.477 112.331L488.93 111.44ZM474.05 51.12L474.909 51.6323L474.909 51.6323L474.05 51.12ZM488.93 37.2L489.383 38.0914L489.383 38.0914L488.93 37.2ZM531.49 37.2L531.037 38.0914L531.037 38.0914L531.49 37.2ZM546.37 51.12L545.511 51.6323L545.511 51.6323L546.37 51.12ZM546.37 97.52L545.511 97.0077L545.511 97.0077L546.37 97.52ZM531.49 111.44L531.037 110.549L531.037 110.549L531.49 111.44ZM525.57 92.4L526.268 93.1165L526.277 93.1071L525.57 92.4ZM525.57 56.4L524.854 57.0976L524.863 57.1072L524.872 57.1165L525.57 56.4ZM494.85 56.4L495.548 57.1165L495.557 57.1071L494.85 56.4ZM494.85 92.4L494.143 93.1072L494.152 93.1165L494.85 92.4ZM510.21 115.24C502.455 115.24 495.52 113.669 489.383 110.549L488.477 112.331C494.926 115.611 502.178 117.24 510.21 117.24V115.24ZM489.383 110.549C483.259 107.434 478.439 102.926 474.909 97.0077L473.191 98.0323C476.914 104.274 482.015 109.046 488.477 112.331L489.383 110.549ZM474.909 97.0077C471.392 91.1117 469.61 83.9901 469.61 75.6H467.61C467.61 84.2766 469.455 91.7683 473.191 98.0323L474.909 97.0077ZM469.61 75.6V73.04H467.61V75.6H469.61ZM469.61 73.04C469.61 64.6499 471.392 57.5283 474.909 51.6323L473.191 50.6077C469.455 56.8717 467.61 64.3634 467.61 73.04H469.61ZM474.909 51.6323C478.439 45.7139 483.259 41.2056 489.383 38.0914L488.477 36.3086C482.015 39.5944 476.914 44.3661 473.191 50.6077L474.909 51.6323ZM489.383 38.0914C495.52 34.9708 502.455 33.4 510.21 33.4V31.4C502.178 31.4 494.926 33.0291 488.477 36.3086L489.383 38.0914ZM510.21 33.4C517.965 33.4 524.9 34.9708 531.037 38.0914L531.943 36.3086C525.494 33.0291 518.242 31.4 510.21 31.4V33.4ZM531.037 38.0914C537.161 41.2056 541.981 45.7139 545.511 51.6323L547.229 50.6077C543.506 44.3661 538.405 39.5944 531.943 36.3086L531.037 38.0914ZM545.511 51.6323C549.028 57.5283 550.81 64.6499 550.81 73.04H552.81C552.81 64.3634 550.965 56.8717 547.229 50.6077L545.511 51.6323ZM550.81 73.04V75.6H552.81V73.04H550.81ZM550.81 75.6C550.81 83.9901 549.028 91.1117 545.511 97.0077L547.229 98.0323C550.965 91.7683 552.81 84.2766 552.81 75.6H550.81ZM545.511 97.0077C541.981 102.926 537.161 107.434 531.037 110.549L531.943 112.331C538.405 109.046 543.506 104.274 547.229 98.0323L545.511 97.0077ZM531.037 110.549C524.9 113.669 517.965 115.24 510.21 115.24V117.24C518.242 117.24 525.494 115.611 531.943 112.331L531.037 110.549ZM510.21 99.32C516.631 99.32 522.009 97.2628 526.268 93.1165L524.872 91.6835C521.024 95.4306 516.163 97.32 510.21 97.32V99.32ZM526.277 93.1071C530.57 88.8144 532.65 82.7683 532.65 75.12H530.65C530.65 82.405 528.677 87.8789 524.863 91.6929L526.277 93.1071ZM532.65 75.12V73.52H530.65V75.12H532.65ZM532.65 73.52C532.65 65.8733 530.57 59.873 526.268 55.6835L524.872 57.1165C528.676 60.8203 530.65 66.2333 530.65 73.52H532.65ZM526.286 55.7024C522.129 51.4331 516.74 49.32 510.21 49.32V51.32C516.267 51.32 521.117 53.2603 524.854 57.0976L526.286 55.7024ZM510.21 49.32C503.781 49.32 498.4 51.4362 494.143 55.6929L495.557 57.1071C499.407 53.2571 504.265 51.32 510.21 51.32V49.32ZM494.152 55.6835C489.85 59.873 487.77 65.8733 487.77 73.52H489.77C489.77 66.2333 491.744 60.8203 495.548 57.1165L494.152 55.6835ZM487.77 73.52V75.12H489.77V73.52H487.77ZM487.77 75.12C487.77 82.7683 489.85 88.8144 494.143 93.1071L495.557 91.6929C491.743 87.8789 489.77 82.405 489.77 75.12H487.77ZM494.152 93.1165C498.411 97.2628 503.789 99.32 510.21 99.32V97.32C504.257 97.32 499.396 95.4306 495.548 91.6835L494.152 93.1165ZM570.419 114H569.419V115H570.419V114ZM570.419 34.64V33.64H569.419V34.64H570.419ZM590.259 34.64H591.259V33.64H590.259V34.64ZM590.259 45.04H589.259V46.04H590.259V45.04ZM593.139 45.04V46.04H593.779L594.047 45.4591L593.139 45.04ZM600.339 37.2L600.911 38.0204L600.919 38.0146L600.927 38.0087L600.339 37.2ZM632.499 37.68L631.967 38.5269L631.978 38.5341L631.99 38.5409L632.499 37.68ZM643.379 49.36L642.488 49.8148L642.492 49.8226L643.379 49.36ZM647.219 114V115H648.219V114H647.219ZM627.059 114H626.059V115H627.059V114ZM622.579 54.8L621.859 55.4941L621.865 55.5007L621.872 55.5071L622.579 54.8ZM595.699 56.56L596.464 57.2042L596.472 57.1943L595.699 56.56ZM590.579 114V115H591.579V114H590.579ZM571.419 114V34.64H569.419V114H571.419ZM570.419 35.64H590.259V33.64H570.419V35.64ZM589.259 34.64V45.04H591.259V34.64H589.259ZM590.259 46.04H593.139V44.04H590.259V46.04ZM594.047 45.4591C595.228 42.8994 597.48 40.4112 600.911 38.0204L599.767 36.3796C596.157 38.8954 593.609 41.634 592.231 44.6209L594.047 45.4591ZM600.927 38.0087C604.198 35.6301 609.28 34.36 616.339 34.36V32.36C609.105 32.36 603.52 33.6499 599.751 36.3913L600.927 38.0087ZM616.339 34.36C622.365 34.36 627.561 35.7606 631.967 38.5269L633.031 36.8331C628.263 33.8394 622.686 32.36 616.339 32.36V34.36ZM631.99 38.5409C636.515 41.2145 640.011 44.9645 642.488 49.8148L644.269 48.9052C641.626 43.7288 637.87 39.6921 633.007 36.8191L631.99 38.5409ZM642.492 49.8226C644.964 54.5611 646.219 60.1565 646.219 66.64H648.219C648.219 59.8968 646.913 53.9722 644.265 48.8974L642.492 49.8226ZM646.219 66.64V114H648.219V66.64H646.219ZM647.219 113H627.059V115H647.219V113ZM628.059 114V68.24H626.059V114H628.059ZM628.059 68.24C628.059 62.1125 626.526 57.3332 623.286 54.0929L621.872 55.5071C624.605 58.2401 626.059 62.4208 626.059 68.24H628.059ZM623.299 54.1059C620.177 50.8682 615.722 49.32 610.099 49.32V51.32C615.356 51.32 619.221 52.7585 621.859 55.4941L623.299 54.1059ZM610.099 49.32C603.663 49.32 598.559 51.498 594.926 55.9257L596.472 57.1943C599.665 53.302 604.161 51.32 610.099 51.32V49.32ZM594.934 55.9159C591.319 60.2086 589.579 66.1753 589.579 73.68H591.579C591.579 66.4647 593.252 61.018 596.464 57.2041L594.934 55.9159ZM589.579 73.68V114H591.579V73.68H589.579ZM590.579 113H570.419V115H590.579V113ZM684.213 111.28L683.716 112.148L683.725 112.153L683.735 112.158L684.213 111.28ZM670.133 97.04L669.251 97.5114L669.255 97.5205L669.261 97.5295L670.133 97.04ZM670.133 51.76L671.011 52.2378L671.014 52.2314L670.133 51.76ZM684.053 37.52L684.537 38.395L684.549 38.3882L684.053 37.52ZM725.173 37.68L724.651 38.5334L724.663 38.5403L725.173 37.68ZM738.612 52.08L737.724 52.5394L737.728 52.5457L738.612 52.08ZM743.413 80.24V81.24H744.413V80.24H743.413ZM685.653 80.24V79.24H684.613L684.653 80.2792L685.653 80.24ZM718.293 94.96L717.615 94.2241L718.293 94.96ZM724.373 86.8L724.837 85.9143L723.907 85.4271L723.465 86.3789L724.373 86.8ZM740.853 95.44L741.733 95.9141L742.212 95.0238L741.317 94.5543L740.853 95.44ZM734.293 104.56L733.538 103.903L733.537 103.905L734.293 104.56ZM723.093 112.88L723.523 113.782L723.532 113.779L723.54 113.774L723.093 112.88ZM685.813 65.2L684.825 65.0393L684.637 66.2H685.813V65.2ZM722.933 65.2V66.2H724.03L723.928 65.1074L722.933 65.2ZM717.333 54.16L716.678 54.9157L716.684 54.921L716.69 54.9262L717.333 54.16ZM705.173 115.24C697.422 115.24 690.604 113.618 684.69 110.402L683.735 112.158C689.981 115.556 697.136 117.24 705.173 117.24V115.24ZM684.709 110.412C678.895 107.09 674.33 102.475 671.004 96.5505L669.261 97.5295C672.761 103.765 677.584 108.644 683.716 112.148L684.709 110.412ZM671.014 96.5686C667.799 90.5517 666.173 83.4661 666.173 75.28H664.173C664.173 83.7339 665.853 91.1549 669.251 97.5114L671.014 96.5686ZM666.173 75.28V73.36H664.173V75.28H666.173ZM666.173 73.36C666.173 65.1733 667.799 58.1442 671.011 52.2378L669.254 51.2822C665.853 57.5358 664.173 64.9067 664.173 73.36H666.173ZM671.014 52.2314C674.233 46.2098 678.737 41.6055 684.537 38.3949L683.568 36.6451C677.421 40.0478 672.645 44.9369 669.251 51.2886L671.014 52.2314ZM684.549 38.3882C690.35 35.0733 697.107 33.4 704.852 33.4V31.4C696.811 31.4 689.702 33.14 683.556 36.6518L684.549 38.3882ZM704.852 33.4C712.484 33.4 719.071 35.1232 724.651 38.5333L725.694 36.8267C719.754 33.1968 712.794 31.4 704.852 31.4V33.4ZM724.663 38.5403C730.255 41.8541 734.607 46.5121 737.724 52.5394L739.501 51.6206C736.218 45.2745 731.61 40.3325 725.682 36.8197L724.663 38.5403ZM737.728 52.5457C740.839 58.4584 742.413 65.3865 742.413 73.36H744.413C744.413 65.1202 742.786 57.8616 739.497 51.6142L737.728 52.5457ZM742.413 73.36V80.24H744.413V73.36H742.413ZM743.413 79.24H685.653V81.24H743.413V79.24ZM684.653 80.2792C684.877 85.9729 687.012 90.6617 691.068 94.2674L692.397 92.7726C688.773 89.5517 686.855 85.3871 686.652 80.2008L684.653 80.2792ZM691.068 94.2674C695.106 97.857 700.042 99.64 705.813 99.64V97.64C700.49 97.64 696.039 96.0097 692.397 92.7726L691.068 94.2674ZM705.813 99.64C711.582 99.64 716.039 98.3925 718.97 95.6959L717.615 94.2241C715.213 96.4342 711.35 97.64 705.813 97.64V99.64ZM718.97 95.6959C721.723 93.1627 723.832 90.3382 725.28 87.2211L723.465 86.3789C722.139 89.2351 720.195 91.8506 717.615 94.2241L718.97 95.6959ZM723.908 87.6857L740.388 96.3257L741.317 94.5543L724.837 85.9143L723.908 87.6857ZM739.972 94.9659C738.525 97.654 736.387 100.633 733.538 103.903L735.047 105.217C737.958 101.874 740.194 98.7727 741.733 95.9141L739.972 94.9659ZM733.537 103.905C730.867 106.985 727.248 109.684 722.645 111.986L723.54 113.774C728.323 111.383 732.171 108.535 735.048 105.215L733.537 103.905ZM722.662 111.978C718.145 114.133 712.332 115.24 705.173 115.24V117.24C712.52 117.24 718.653 116.107 723.523 113.782L722.662 111.978ZM685.813 66.2H722.933V64.2H685.813V66.2ZM723.928 65.1074C723.479 60.278 721.498 56.3486 717.975 53.3938L716.69 54.9262C719.78 57.5181 721.533 60.9487 721.937 65.2926L723.928 65.1074ZM717.987 53.4043C714.566 50.4389 710.101 49 704.693 49V51C709.737 51 713.699 52.3344 716.678 54.9157L717.987 53.4043ZM704.693 49C699.082 49 694.506 50.4328 691.078 53.4043L692.387 54.9157C695.359 52.3405 699.423 51 704.693 51V49ZM691.078 53.4043C687.683 56.3463 685.606 60.2457 684.825 65.0393L686.8 65.3607C687.512 60.981 689.382 57.5204 692.387 54.9157L691.078 53.4043ZM768.876 109.52L769.437 108.692L769.437 108.692L768.876 109.52ZM756.876 90.32L756.626 89.3519L755.739 89.5811L755.89 90.4844L756.876 90.32ZM775.436 85.52L776.417 85.3239L776.209 84.2871L775.186 84.5519L775.436 85.52ZM779.116 94.32L778.335 94.9447L778.345 94.9563L778.354 94.9676L779.116 94.32ZM785.676 98.96L785.325 99.8963L785.348 99.9049L785.371 99.9124L785.676 98.96ZM804.716 97.84L805.297 98.6537L805.31 98.6448L805.322 98.6354L804.716 97.84ZM804.876 86L804.331 86.8384L804.346 86.8482L804.362 86.8575L804.876 86ZM794.636 82.64L794.815 81.6561L794.812 81.6556L794.636 82.64ZM790.156 81.84L789.967 82.8221L789.98 82.8244L790.156 81.84ZM774.956 77.52L774.57 78.4424L774.579 78.4463L774.589 78.45L774.956 77.52ZM763.916 69.68L763.15 70.3226L763.15 70.3226L763.916 69.68ZM768.396 38.8L768.982 39.6107L768.991 39.6036L768.396 38.8ZM813.196 38.32L812.638 39.1497L812.638 39.1497L813.196 38.32ZM824.716 53.84L825.01 54.7958L825.945 54.5082L825.678 53.5674L824.716 53.84ZM805.996 59.6L805.018 59.806L805.243 60.8779L806.29 60.5558L805.996 59.6ZM800.716 50.96L800.162 51.792L800.169 51.7972L800.177 51.8023L800.716 50.96ZM782.316 50.48L782.85 51.3255L782.866 51.3157L782.881 51.3053L782.316 50.48ZM782.476 61.68L781.962 62.5375L781.978 62.5472L781.994 62.5562L782.476 61.68ZM791.116 64.4L791.292 63.4156L791.29 63.4152L791.116 64.4ZM811.756 69.52L811.403 70.4555L811.415 70.4601L811.428 70.4645L811.756 69.52ZM823.276 77.04L822.51 77.6826L822.521 77.696L822.533 77.709L823.276 77.04ZM818.476 109.52L819.076 110.32L819.078 110.318L818.476 109.52ZM794.316 115.24C784.111 115.24 775.842 113.031 769.437 108.692L768.315 110.348C775.137 114.969 783.828 117.24 794.316 117.24V115.24ZM769.437 108.692C763.064 104.375 759.207 98.2224 757.863 90.1556L755.89 90.4844C757.319 99.0576 761.462 105.705 768.315 110.348L769.437 108.692ZM757.127 91.2881L775.687 86.4881L775.186 84.5519L756.626 89.3519L757.127 91.2881ZM774.456 85.7161C775.222 89.548 776.497 92.6472 778.335 94.9447L779.897 93.6953C778.322 91.7261 777.144 88.9587 776.417 85.3239L774.456 85.7161ZM778.354 94.9676C780.275 97.2273 782.602 98.8751 785.325 99.8963L786.027 98.0237C783.631 97.1249 781.584 95.6793 779.878 93.6724L778.354 94.9676ZM785.371 99.9124C788.146 100.8 791.13 101.24 794.316 101.24V99.24C791.316 99.24 788.539 98.8263 785.981 98.0076L785.371 99.9124ZM794.316 101.24C799.086 101.24 802.805 100.434 805.297 98.6537L804.135 97.0263C802.147 98.4462 798.933 99.24 794.316 99.24V101.24ZM805.322 98.6354C807.769 96.7714 809.076 94.4144 809.076 91.6H807.076C807.076 93.6923 806.144 95.4953 804.11 97.0446L805.322 98.6354ZM809.076 91.6C809.076 88.7894 807.82 86.6001 805.391 85.1425L804.362 86.8575C806.199 87.9599 807.076 89.504 807.076 91.6H809.076ZM805.421 85.1616C803.118 83.6643 799.545 82.5161 794.815 81.6561L794.457 83.6239C799.114 84.4706 802.368 85.5624 804.331 86.8384L805.421 85.1616ZM794.812 81.6556L790.332 80.8556L789.98 82.8244L794.46 83.6244L794.812 81.6556ZM790.345 80.858C784.851 79.8014 779.845 78.3775 775.324 76.59L774.589 78.45C779.241 80.2892 784.368 81.7452 789.967 82.822L790.345 80.858ZM775.342 76.5976C770.88 74.7298 767.339 72.2044 764.682 69.0374L763.15 70.3226C766.041 73.7689 769.859 76.4702 774.57 78.4424L775.342 76.5976ZM764.682 69.0374C762.09 65.9467 760.756 61.9232 760.756 56.88H758.756C758.756 62.2901 760.196 66.7999 763.15 70.3226L764.682 69.0374ZM760.756 56.88C760.756 49.2665 763.514 43.5597 768.982 39.6107L767.811 37.9893C761.759 42.3603 758.756 48.7068 758.756 56.88H760.756ZM768.991 39.6036C774.533 35.4989 781.878 33.4 791.116 33.4V31.4C781.581 31.4 773.78 33.5677 767.801 37.9964L768.991 39.6036ZM791.116 33.4C799.821 33.4 806.974 35.3391 812.638 39.1497L813.754 37.4903C807.686 33.4075 800.118 31.4 791.116 31.4V33.4ZM812.638 39.1497C818.322 42.9733 822.01 47.9553 823.754 54.1126L825.678 53.5674C823.796 46.9247 819.804 41.56 813.754 37.4903L812.638 39.1497ZM824.422 52.8842L805.702 58.6442L806.29 60.5558L825.01 54.7958L824.422 52.8842ZM806.975 59.394C806.084 55.1626 804.211 52.0096 801.255 50.1177L800.177 51.8023C802.554 53.3237 804.202 55.9307 805.018 59.806L806.975 59.394ZM801.271 50.1279C798.51 48.2874 795.105 47.4 791.116 47.4V49.4C794.808 49.4 797.802 50.2193 800.162 51.792L801.271 50.1279ZM791.116 47.4C787.18 47.4 784.014 48.1066 781.752 49.6547L782.881 51.3053C784.672 50.0801 787.373 49.4 791.116 49.4V47.4ZM781.782 49.6345C779.473 51.0929 778.276 53.2214 778.276 55.92H780.276C780.276 53.9253 781.106 52.427 782.85 51.3255L781.782 49.6345ZM778.276 55.92C778.276 58.8188 779.517 61.0704 781.962 62.5375L782.991 60.8225C781.169 59.7296 780.276 58.1412 780.276 55.92H778.276ZM781.994 62.5562C784.26 63.8021 787.257 64.7345 790.942 65.3848L791.29 63.4152C787.722 62.7855 784.96 61.9045 782.958 60.8038L781.994 62.5562ZM790.94 65.3844L795.42 66.1844L795.772 64.2156L791.292 63.4156L790.94 65.3844ZM795.42 66.1844C801.344 67.2422 806.67 68.6674 811.403 70.4555L812.11 68.5845C807.243 66.7459 801.795 65.2912 795.772 64.2156L795.42 66.1844ZM811.428 70.4645C816.199 72.124 819.874 74.54 822.51 77.6826L824.042 76.3974C821.132 72.9267 817.127 70.3293 812.085 68.5755L811.428 70.4645ZM822.533 77.709C825.204 80.6773 826.596 84.7871 826.596 90.16H828.596C828.596 84.4396 827.108 79.8027 824.02 76.371L822.533 77.709ZM826.596 90.16C826.596 98.1997 823.678 104.343 817.874 108.722L819.078 110.318C825.435 105.523 828.596 98.7603 828.596 90.16H826.596ZM817.876 108.72C812.128 113.031 804.309 115.24 794.316 115.24V117.24C804.59 117.24 812.877 114.969 819.076 110.32L817.876 108.72ZM885.888 146H884.888V147H885.888V146ZM885.888 34.64V33.64H884.888V34.64H885.888ZM905.728 34.64H906.728V33.64H905.728V34.64ZM905.728 44.24H904.728V45.24H905.728V44.24ZM908.608 44.24V45.24H909.18L909.47 44.7457L908.608 44.24ZM917.088 36.08L917.609 36.9333L917.617 36.9281L917.626 36.9227L917.088 36.08ZM951.328 37.2L950.82 38.0619L950.827 38.0657L950.833 38.0693L951.328 37.2ZM964.448 50.96L965.326 50.4822L965.326 50.4822L964.448 50.96ZM964.448 97.68L965.326 98.1578L965.326 98.1578L964.448 97.68ZM951.328 111.6L951.822 112.469L951.828 112.466L951.835 112.462L951.328 111.6ZM921.408 114.48L921.742 113.538L921.733 113.534L921.724 113.531L921.408 114.48ZM913.568 110.32L912.881 111.047L912.902 111.067L912.923 111.085L913.568 110.32ZM908.928 104.88L909.767 104.337L909.472 103.88H908.928V104.88ZM906.048 104.88V103.88H905.048V104.88H906.048ZM906.048 146V147H907.048V146H906.048ZM943.008 92.72L943.705 93.4365L943.705 93.4362L943.008 92.72ZM943.008 56.08L942.31 56.7963L942.319 56.8055L943.008 56.08ZM911.968 56.08L912.656 56.8055L912.665 56.7962L911.968 56.08ZM911.968 92.72L911.27 93.4363L911.279 93.4455L911.968 92.72ZM886.888 146V34.64H884.888V146H886.888ZM885.888 35.64H905.728V33.64H885.888V35.64ZM904.728 34.64V44.24H906.728V34.64H904.728ZM905.728 45.24H908.608V43.24H905.728V45.24ZM909.47 44.7457C911.182 41.8264 913.874 39.2155 917.609 36.9333L916.566 35.2267C912.621 37.6378 909.66 40.467 907.745 43.7343L909.47 44.7457ZM917.626 36.9227C921.238 34.615 926.512 33.4 933.568 33.4V31.4C926.33 31.4 920.617 32.6383 916.549 35.2373L917.626 36.9227ZM933.568 33.4C939.792 33.4 945.536 34.9537 950.82 38.0619L951.835 36.3381C946.239 33.0463 940.143 31.4 933.568 31.4V33.4ZM950.833 38.0693C956.094 41.0609 960.342 45.5036 963.569 51.4378L965.326 50.4822C961.94 44.2564 957.441 39.5258 951.822 36.3307L950.833 38.0693ZM963.569 51.4378C966.779 57.3391 968.408 64.5261 968.408 73.04H970.408C970.408 64.2739 968.73 56.7409 965.326 50.4822L963.569 51.4378ZM968.408 73.04V75.6H970.408V73.04H968.408ZM968.408 75.6C968.408 84.1139 966.779 91.3009 963.569 97.2022L965.326 98.1578C968.73 91.8991 970.408 84.3661 970.408 75.6H968.408ZM963.569 97.2022C960.34 103.139 956.089 107.639 950.82 110.738L951.835 112.462C957.446 109.161 961.941 104.381 965.326 98.1578L963.569 97.2022ZM950.833 110.731C945.547 113.736 939.798 115.24 933.568 115.24V117.24C940.137 117.24 946.228 115.65 951.822 112.469L950.833 110.731ZM933.568 115.24C928.842 115.24 924.91 114.662 921.742 113.538L921.073 115.422C924.519 116.645 928.693 117.24 933.568 117.24V115.24ZM921.724 113.531C918.612 112.494 916.119 111.161 914.212 109.555L912.923 111.085C915.069 112.892 917.803 114.332 921.091 115.429L921.724 113.531ZM914.254 109.593C912.38 107.823 910.889 106.07 909.767 104.337L908.088 105.423C909.313 107.317 910.915 109.19 912.881 111.047L914.254 109.593ZM908.928 103.88H906.048V105.88H908.928V103.88ZM905.048 104.88V146H907.048V104.88H905.048ZM906.048 145H885.888V147H906.048V145ZM927.488 99.64C934.009 99.64 939.443 97.5861 943.705 93.4365L942.31 92.0035C938.465 95.7473 933.552 97.64 927.488 97.64V99.64ZM943.705 93.4362C948.115 89.1397 950.248 82.9793 950.248 75.12H948.248C948.248 82.6207 946.22 88.1936 942.31 92.0038L943.705 93.4362ZM950.248 75.12V73.52H948.248V75.12H950.248ZM950.248 73.52C950.248 65.6625 948.116 59.5477 943.696 55.3545L942.319 56.8055C946.219 60.5057 948.248 66.0175 948.248 73.52H950.248ZM943.705 55.3638C939.346 51.1158 933.916 49 927.488 49V51C933.432 51 938.349 52.9375 942.31 56.7962L943.705 55.3638ZM927.488 49C921.059 49 915.629 51.1158 911.27 55.3638L912.665 56.7962C916.626 52.9375 921.543 51 927.488 51V49ZM911.279 55.3545C906.859 59.5477 904.728 65.6625 904.728 73.52H906.728C906.728 66.0175 908.756 60.5057 912.656 56.8055L911.279 55.3545ZM904.728 73.52V75.12H906.728V73.52H904.728ZM904.728 75.12C904.728 82.9793 906.86 89.1397 911.27 93.4362L912.665 92.0038C908.755 88.1936 906.728 82.6207 906.728 75.12H904.728ZM911.279 93.4455C915.641 97.5831 921.067 99.64 927.488 99.64V97.64C921.535 97.64 916.614 95.7503 912.656 91.9945L911.279 93.4455ZM1001.84 111.12L1001.31 111.967L1001.32 111.974L1001.33 111.981L1001.84 111.12ZM987.279 34.64V33.64H986.279V34.64H987.279ZM1007.44 34.64H1008.44V33.64H1007.44V34.64ZM1011.76 93.84L1011.04 94.5341L1011.05 94.5407L1011.05 94.5471L1011.76 93.84ZM1038.8 92.24L1039.56 92.8842L1039.57 92.8743L1038.8 92.24ZM1043.92 34.64V33.64H1042.92V34.64H1043.92ZM1064.08 34.64H1065.08V33.64H1064.08V34.64ZM1064.08 114V115H1065.08V114H1064.08ZM1044.24 114H1043.24V115H1044.24V114ZM1044.24 103.6H1045.24V102.6H1044.24V103.6ZM1041.36 103.6V102.6H1040.73L1040.46 103.167L1041.36 103.6ZM1034.16 111.44L1034.75 112.249L1034.75 112.249L1034.16 111.44ZM1013.52 25.68L1012.62 25.2328L1011.9 26.68H1013.52V25.68ZM1025.36 1.99999V0.999992H1024.74L1024.46 1.55278L1025.36 1.99999ZM1048.08 1.99999L1048.89 2.58227L1050.02 0.999992H1048.08V1.99999ZM1031.12 25.68V26.68H1031.63L1031.93 26.2623L1031.12 25.68ZM1018.16 114.28C1012.13 114.28 1006.87 112.93 1002.35 110.259L1001.33 111.981C1006.2 114.857 1011.82 116.28 1018.16 116.28V114.28ZM1002.37 110.273C997.943 107.493 994.491 103.684 992.009 98.8252L990.228 99.7348C992.867 104.902 996.561 108.987 1001.31 111.967L1002.37 110.273ZM992.009 98.8252C989.532 93.9732 988.279 88.3733 988.279 82H986.279C986.279 88.6401 987.586 94.5602 990.228 99.7348L992.009 98.8252ZM988.279 82V34.64H986.279V82H988.279ZM987.279 35.64H1007.44V33.64H987.279V35.64ZM1006.44 34.64V80.4H1008.44V34.64H1006.44ZM1006.44 80.4C1006.44 86.5186 1007.91 91.2928 1011.04 94.5341L1012.48 93.1459C1009.84 90.4139 1008.44 86.2281 1008.44 80.4H1006.44ZM1011.05 94.5471C1014.28 97.7711 1018.77 99.32 1024.4 99.32V97.32C1019.14 97.32 1015.22 95.8822 1012.47 93.1329L1011.05 94.5471ZM1024.4 99.32C1030.83 99.32 1035.93 97.202 1039.56 92.8841L1038.03 91.5959C1034.84 95.3847 1030.35 97.32 1024.4 97.32V99.32ZM1039.57 92.8743C1043.18 88.4795 1044.92 82.4667 1044.92 74.96H1042.92C1042.92 82.1733 1041.25 87.6805 1038.03 91.6057L1039.57 92.8743ZM1044.92 74.96V34.64H1042.92V74.96H1044.92ZM1043.92 35.64H1064.08V33.64H1043.92V35.64ZM1063.08 34.64V114H1065.08V34.64H1063.08ZM1064.08 113H1044.24V115H1064.08V113ZM1045.24 114V103.6H1043.24V114H1045.24ZM1044.24 102.6H1041.36V104.6H1044.24V102.6ZM1040.46 103.167C1039.27 105.631 1037.02 108.126 1033.57 110.631L1034.75 112.249C1038.34 109.634 1040.88 106.903 1042.26 104.033L1040.46 103.167ZM1033.57 110.631C1030.3 113.01 1025.22 114.28 1018.16 114.28V116.28C1025.39 116.28 1030.98 114.99 1034.75 112.249L1033.57 110.631ZM1014.41 26.1272L1026.25 2.44721L1024.46 1.55278L1012.62 25.2328L1014.41 26.1272ZM1025.36 2.99999H1048.08V0.999992H1025.36V2.99999ZM1047.27 1.41772L1030.31 25.0977L1031.93 26.2623L1048.89 2.58227L1047.27 1.41772ZM1031.12 24.68H1013.52V26.68H1031.12V24.68ZM1117.71 112.56L1117.17 113.403L1117.17 113.403L1117.71 112.56ZM1109.23 104.4L1110.09 103.881L1109.8 103.4H1109.23V104.4ZM1106.35 104.4V103.4H1105.35V104.4H1106.35ZM1106.35 114V115H1107.35V114H1106.35ZM1086.51 114H1085.51V115H1086.51V114ZM1086.51 1.99999V0.999992H1085.51V1.99999H1086.51ZM1106.67 1.99999H1107.67V0.999992H1106.67V1.99999ZM1106.67 43.76H1105.67V44.76H1106.67V43.76ZM1109.55 43.76V44.76H1110.11L1110.41 44.2814L1109.55 43.76ZM1114.19 38.32L1113.55 37.5551L1113.54 37.5637L1113.53 37.5726L1114.19 38.32ZM1122.03 34.16L1122.35 35.1087L1122.36 35.1056L1122.37 35.1024L1122.03 34.16ZM1151.95 37.2L1151.45 38.0619L1151.45 38.0657L1151.46 38.0693L1151.95 37.2ZM1165.07 50.96L1165.95 50.4822L1165.95 50.4822L1165.07 50.96ZM1165.07 97.68L1165.95 98.1578L1165.95 98.1578L1165.07 97.68ZM1151.95 111.6L1152.45 112.469L1152.45 112.466L1152.46 112.462L1151.95 111.6ZM1143.63 92.72L1144.32 93.4455L1144.33 93.4362L1143.63 92.72ZM1143.63 56.08L1142.93 56.7871L1142.93 56.7964L1142.94 56.8055L1143.63 56.08ZM1112.59 56.08L1113.28 56.8055L1113.29 56.7962L1112.59 56.08ZM1112.59 92.72L1111.89 93.4363L1111.9 93.4455L1112.59 92.72ZM1134.19 115.24C1127.14 115.24 1121.86 114.025 1118.25 111.717L1117.17 113.403C1121.24 116.002 1126.95 117.24 1134.19 117.24V115.24ZM1118.25 111.717C1114.5 109.322 1111.8 106.704 1110.09 103.881L1108.38 104.919C1110.29 108.07 1113.24 110.891 1117.17 113.403L1118.25 111.717ZM1109.23 103.4H1106.35V105.4H1109.23V103.4ZM1105.35 104.4V114H1107.35V104.4H1105.35ZM1106.35 113H1086.51V115H1106.35V113ZM1087.51 114V1.99999H1085.51V114H1087.51ZM1086.51 2.99999H1106.67V0.999992H1086.51V2.99999ZM1105.67 1.99999V43.76H1107.67V1.99999H1105.67ZM1106.67 44.76H1109.55V42.76H1106.67V44.76ZM1110.41 44.2814C1111.52 42.4566 1113 40.7176 1114.86 39.0674L1113.53 37.5726C1111.54 39.3357 1109.93 41.2234 1108.7 43.2385L1110.41 44.2814ZM1114.84 39.0849C1116.74 37.4786 1119.24 36.1458 1122.35 35.1087L1121.72 33.2113C1118.43 34.3075 1115.69 35.7481 1113.55 37.5551L1114.84 39.0849ZM1122.37 35.1024C1125.53 33.9784 1129.47 33.4 1134.19 33.4V31.4C1129.32 31.4 1125.14 31.995 1121.7 33.2176L1122.37 35.1024ZM1134.19 33.4C1140.42 33.4 1146.16 34.9537 1151.45 38.0619L1152.46 36.3381C1146.86 33.0463 1140.77 31.4 1134.19 31.4V33.4ZM1151.46 38.0693C1156.72 41.0609 1160.97 45.5036 1164.19 51.4378L1165.95 50.4822C1162.57 44.2564 1158.07 39.5258 1152.45 36.3307L1151.46 38.0693ZM1164.19 51.4378C1167.4 57.3391 1169.03 64.5261 1169.03 73.04H1171.03C1171.03 64.2739 1169.35 56.7409 1165.95 50.4822L1164.19 51.4378ZM1169.03 73.04V75.6H1171.03V73.04H1169.03ZM1169.03 75.6C1169.03 84.1139 1167.4 91.3009 1164.19 97.2022L1165.95 98.1578C1169.35 91.8991 1171.03 84.3661 1171.03 75.6H1169.03ZM1164.19 97.2022C1160.97 103.139 1156.71 107.639 1151.45 110.738L1152.46 112.462C1158.07 109.161 1162.57 104.381 1165.95 98.1578L1164.19 97.2022ZM1151.46 110.731C1146.17 113.736 1140.42 115.24 1134.19 115.24V117.24C1140.76 117.24 1146.85 115.65 1152.45 112.469L1151.46 110.731ZM1128.11 99.64C1134.53 99.64 1139.96 97.5831 1144.32 93.4455L1142.94 91.9945C1138.99 95.7503 1134.07 97.64 1128.11 97.64V99.64ZM1144.33 93.4362C1148.74 89.1397 1150.87 82.9793 1150.87 75.12H1148.87C1148.87 82.6207 1146.85 88.1936 1142.93 92.0038L1144.33 93.4362ZM1150.87 75.12V73.52H1148.87V75.12H1150.87ZM1150.87 73.52C1150.87 65.6625 1148.74 59.5477 1144.32 55.3545L1142.94 56.8055C1146.84 60.5057 1148.87 66.0175 1148.87 73.52H1150.87ZM1144.34 55.3729C1140.08 51.1128 1134.64 49 1128.11 49V51C1134.17 51 1139.08 52.9406 1142.93 56.7871L1144.34 55.3729ZM1128.11 49C1121.68 49 1116.25 51.1158 1111.89 55.3638L1113.29 56.7962C1117.25 52.9375 1122.17 51 1128.11 51V49ZM1111.9 55.3545C1107.48 59.5477 1105.35 65.6625 1105.35 73.52H1107.35C1107.35 66.0175 1109.38 60.5057 1113.28 56.8055L1111.9 55.3545ZM1105.35 73.52V75.12H1107.35V73.52H1105.35ZM1105.35 75.12C1105.35 82.9793 1107.49 89.1397 1111.89 93.4362L1113.29 92.0038C1109.38 88.1936 1107.35 82.6207 1107.35 75.12H1105.35ZM1111.9 93.4455C1116.27 97.5831 1121.69 99.64 1128.11 99.64V97.64C1122.16 97.64 1117.24 95.7503 1113.28 91.9945L1111.9 93.4455ZM1188.54 114H1187.54V115H1188.54V114ZM1188.54 1.99999V0.999992H1187.54V1.99999H1188.54ZM1208.7 1.99999H1209.7V0.999992H1208.7V1.99999ZM1208.7 114V115H1209.7V114H1208.7ZM1189.54 114V1.99999H1187.54V114H1189.54ZM1188.54 2.99999H1208.7V0.999992H1188.54V2.99999ZM1207.7 1.99999V114H1209.7V1.99999H1207.7ZM1208.7 113H1188.54V115H1208.7V113ZM1231.04 114H1230.04V115H1231.04V114ZM1231.04 34.64V33.64H1230.04V34.64H1231.04ZM1251.2 34.64H1252.2V33.64H1251.2V34.64ZM1251.2 114V115H1252.2V114H1251.2ZM1231.84 21.84L1231.15 22.5626L1231.16 22.57L1231.17 22.5771L1231.84 21.84ZM1231.84 3.27999L1231.17 2.54284L1231.16 2.55001L1231.15 2.55735L1231.84 3.27999ZM1232.04 114V34.64H1230.04V114H1232.04ZM1231.04 35.64H1251.2V33.64H1231.04V35.64ZM1250.2 34.64V114H1252.2V34.64H1250.2ZM1251.2 113H1231.04V115H1251.2V113ZM1241.12 24.36C1237.74 24.36 1234.89 23.2724 1232.52 21.1028L1231.17 22.5771C1233.92 25.1009 1237.26 26.36 1241.12 26.36V24.36ZM1232.53 21.1174C1230.31 18.9849 1229.16 16.1663 1229.16 12.56H1227.16C1227.16 16.6337 1228.48 20.0018 1231.15 22.5626L1232.53 21.1174ZM1229.16 12.56C1229.16 8.95365 1230.31 6.13513 1232.53 4.00264L1231.15 2.55735C1228.48 5.1182 1227.16 8.48634 1227.16 12.56H1229.16ZM1232.52 4.01715C1234.89 1.8476 1237.74 0.759993 1241.12 0.759993V-1.24001C1237.26 -1.24001 1233.92 0.0190515 1231.17 2.54284L1232.52 4.01715ZM1241.12 0.759993C1244.63 0.759993 1247.46 1.85244 1249.71 4.00264L1251.09 2.55735C1248.44 0.014214 1245.09 -1.24001 1241.12 -1.24001V0.759993ZM1249.71 4.00264C1251.94 6.13513 1253.08 8.95365 1253.08 12.56H1255.08C1255.08 8.48634 1253.77 5.1182 1251.09 2.55735L1249.71 4.00264ZM1253.08 12.56C1253.08 16.1663 1251.94 18.9849 1249.71 21.1174L1251.09 22.5626C1253.77 20.0018 1255.08 16.6337 1255.08 12.56H1253.08ZM1249.71 21.1174C1247.46 23.2675 1244.63 24.36 1241.12 24.36V26.36C1245.09 26.36 1248.44 25.1058 1251.09 22.5626L1249.71 21.1174ZM1289.86 111.44L1289.4 112.328L1289.41 112.331L1289.86 111.44ZM1275.14 51.12L1276 51.6323L1276 51.6323L1275.14 51.12ZM1289.86 37.2L1289.41 36.3086L1289.4 36.3118L1289.86 37.2ZM1330.34 36.4L1329.9 37.2979L1329.9 37.2979L1330.34 36.4ZM1343.46 47.44L1342.65 48.016L1342.65 48.0266L1342.66 48.037L1343.46 47.44ZM1350.18 63.12L1350.39 64.098L1351.34 63.8958L1351.17 62.9411L1350.18 63.12ZM1330.66 67.28L1329.67 67.4122L1329.82 68.4833L1330.87 68.258L1330.66 67.28ZM1321.38 52.56L1320.9 53.4325L1320.9 53.4365L1320.91 53.4405L1321.38 52.56ZM1300.26 53.04L1300.73 53.9224L1300.74 53.9168L1300.26 53.04ZM1292.58 60.88L1291.71 60.4011L1291.7 60.4108L1292.58 60.88ZM1292.58 87.92L1291.69 88.378L1291.7 88.3943L1291.71 88.4103L1292.58 87.92ZM1300.26 95.76L1299.77 96.63L1299.79 96.6397L1299.81 96.6486L1300.26 95.76ZM1325.06 93.68L1325.77 94.3871L1325.77 94.3871L1325.06 93.68ZM1331.14 81.2L1331.38 80.2271L1330.33 79.9795L1330.16 81.0356L1331.14 81.2ZM1350.66 85.84L1351.63 86.0782L1351.87 85.1L1350.9 84.8671L1350.66 85.84ZM1343.46 101.36L1342.66 100.772L1342.65 100.775L1343.46 101.36ZM1310.82 115.24C1303.29 115.24 1296.46 113.671 1290.32 110.549L1289.41 112.331C1295.86 115.609 1303 117.24 1310.82 117.24V115.24ZM1290.32 110.552C1284.3 107.439 1279.54 102.93 1276 97.0077L1274.28 98.0323C1278.01 104.27 1283.05 109.041 1289.4 112.328L1290.32 110.552ZM1276 97.0077C1272.49 91.1135 1270.7 83.9393 1270.7 75.44H1268.7C1268.7 84.2207 1270.55 91.7665 1274.28 98.0323L1276 97.0077ZM1270.7 75.44V73.2H1268.7V75.44H1270.7ZM1270.7 73.2C1270.7 64.7007 1272.49 57.5265 1276 51.6323L1274.28 50.6077C1270.55 56.8735 1268.7 64.4193 1268.7 73.2H1270.7ZM1276 51.6323C1279.54 45.7096 1284.3 41.2011 1290.32 38.0882L1289.4 36.3118C1283.05 39.5989 1278.01 44.3704 1274.28 50.6077L1276 51.6323ZM1290.32 38.0914C1296.46 34.9689 1303.29 33.4 1310.82 33.4V31.4C1303 31.4 1295.86 33.0311 1289.41 36.3086L1290.32 38.0914ZM1310.82 33.4C1318.28 33.4 1324.63 34.7131 1329.9 37.2979L1330.78 35.5021C1325.18 32.7536 1318.51 31.4 1310.82 31.4V33.4ZM1329.9 37.2979C1335.2 39.8949 1339.44 43.4676 1342.65 48.016L1344.28 46.864C1340.87 42.0258 1336.37 38.2384 1330.78 35.5021L1329.9 37.2979ZM1342.66 48.037C1345.98 52.4948 1348.16 57.577 1349.2 63.2989L1351.17 62.9411C1350.07 56.9296 1347.78 51.5585 1344.27 46.843L1342.66 48.037ZM1349.98 62.142L1330.46 66.302L1330.87 68.258L1350.39 64.098L1349.98 62.142ZM1331.65 67.1478C1331.21 63.8285 1330.21 60.8202 1328.65 58.1361L1326.92 59.1439C1328.34 61.5798 1329.26 64.3315 1329.67 67.4122L1331.65 67.1478ZM1328.65 58.1361C1327.06 55.407 1324.78 53.2544 1321.86 51.6795L1320.91 53.4405C1323.53 54.8522 1325.53 56.753 1326.92 59.1439L1328.65 58.1361ZM1321.87 51.6875C1319.02 50.0877 1315.47 49.32 1311.3 49.32V51.32C1315.24 51.32 1318.42 52.0457 1320.9 53.4325L1321.87 51.6875ZM1311.3 49.32C1307.1 49.32 1303.25 50.263 1299.78 52.1632L1300.74 53.9168C1303.89 52.1903 1307.41 51.32 1311.3 51.32V49.32ZM1299.79 52.1576C1296.4 53.9658 1293.71 56.7286 1291.71 60.4011L1293.46 61.3588C1295.3 57.9914 1297.72 55.5276 1300.73 53.9224L1299.79 52.1576ZM1291.7 60.4108C1289.79 64.0052 1288.86 68.3902 1288.86 73.52H1290.86C1290.86 68.6231 1291.75 64.5815 1293.47 61.3492L1291.7 60.4108ZM1288.86 73.52V75.12H1290.86V73.52H1288.86ZM1288.86 75.12C1288.86 80.2513 1289.79 84.6837 1291.69 88.378L1293.47 87.462C1291.75 84.1163 1290.86 80.0154 1290.86 75.12H1288.86ZM1291.71 88.4103C1293.72 91.9716 1296.4 94.7211 1299.77 96.63L1300.76 94.89C1297.73 93.1723 1295.29 90.6951 1293.46 87.4297L1291.71 88.4103ZM1299.81 96.6486C1303.27 98.4349 1307.11 99.32 1311.3 99.32V97.32C1307.4 97.32 1303.87 96.4985 1300.72 94.8714L1299.81 96.6486ZM1311.3 99.32C1317.54 99.32 1322.43 97.7312 1325.77 94.3871L1324.36 92.9729C1321.51 95.8155 1317.22 97.32 1311.3 97.32V99.32ZM1325.77 94.3871C1329.14 91.0188 1331.25 86.6587 1332.13 81.3644L1330.16 81.0356C1329.33 85.9813 1327.39 89.9412 1324.36 92.9729L1325.77 94.3871ZM1330.91 82.1729L1350.43 86.8129L1350.9 84.8671L1331.38 80.2271L1330.91 82.1729ZM1349.69 85.6018C1348.34 91.1294 1345.99 96.1838 1342.66 100.772L1344.27 101.948C1347.76 97.1495 1350.22 91.8573 1351.63 86.0782L1349.69 85.6018ZM1342.65 100.775C1339.45 105.219 1335.21 108.742 1329.9 111.342L1330.78 113.138C1336.36 110.404 1340.87 106.674 1344.27 101.945L1342.65 100.775ZM1329.9 111.342C1324.63 113.927 1318.28 115.24 1310.82 115.24V117.24C1318.51 117.24 1325.18 115.886 1330.78 113.138L1329.9 111.342ZM1376.73 113.36L1376.32 114.271L1376.33 114.275L1376.34 114.279L1376.73 113.36ZM1366.01 104.72L1365.18 105.275L1365.19 105.288L1365.2 105.301L1366.01 104.72ZM1366.01 77.2L1365.2 76.6188L1365.2 76.6233L1366.01 77.2ZM1376.89 68.88L1377.26 69.81L1377.27 69.8055L1376.89 68.88ZM1414.65 66V67H1415.65V66H1414.65ZM1411.13 52.4L1410.41 53.0912L1410.42 53.0992L1410.43 53.1071L1411.13 52.4ZM1388.73 52.24L1389.41 52.9785L1389.42 52.9707L1389.42 52.9626L1388.73 52.24ZM1383.93 61.04L1383.62 61.9879L1384.69 62.3477L1384.91 61.2416L1383.93 61.04ZM1365.37 54.8L1364.42 54.4989L1364.12 55.435L1365.06 55.7479L1365.37 54.8ZM1371.45 43.76L1370.69 43.1151L1370.69 43.1174L1371.45 43.76ZM1382.81 35.6L1383.21 36.5181L1383.22 36.5138L1382.81 35.6ZM1425.05 40.24L1424.4 40.9983L1424.4 40.9983L1425.05 40.24ZM1445.05 97.36H1446.05V96.36H1445.05V97.36ZM1445.05 114V115H1446.05V114H1445.05ZM1421.85 111.12L1421.25 111.92L1421.25 111.92L1421.85 111.12ZM1418.01 103.28H1419.01V102.28H1418.01V103.28ZM1414.97 103.28V102.28H1414.25L1414.03 102.964L1414.97 103.28ZM1412.09 108.4L1412.9 108.993L1412.91 108.983L1412.91 108.973L1412.09 108.4ZM1405.05 113.84L1405.5 114.734L1405.05 113.84ZM1409.21 95.28L1409.87 96.0312L1409.88 96.0298L1409.21 95.28ZM1414.65 81.04H1415.65V80.04H1414.65V81.04ZM1385.53 83.44L1386.13 84.24L1386.13 84.24L1385.53 83.44ZM1385.69 97.2L1385.06 97.9772L1385.06 97.9772L1385.69 97.2ZM1391.93 115.24C1386.39 115.24 1381.46 114.3 1377.13 112.441L1376.34 114.279C1380.96 116.26 1386.17 117.24 1391.93 117.24V115.24ZM1377.15 112.449C1372.81 110.489 1369.38 107.718 1366.83 104.139L1365.2 105.301C1367.98 109.188 1371.69 112.177 1376.32 114.271L1377.15 112.449ZM1366.85 104.165C1364.41 100.517 1363.17 96.0786 1363.17 90.8H1361.17C1361.17 96.4014 1362.49 101.243 1365.18 105.275L1366.85 104.165ZM1363.17 90.8C1363.17 85.5193 1364.41 81.1998 1366.83 77.7767L1365.2 76.6233C1362.49 80.4536 1361.17 85.2007 1361.17 90.8H1363.17ZM1366.83 77.7812C1369.37 74.2165 1372.84 71.558 1377.26 69.81L1376.53 67.95C1371.77 69.8287 1367.99 72.7168 1365.2 76.6188L1366.83 77.7812ZM1377.27 69.8055C1381.83 67.9426 1387.03 67 1392.89 67V65C1386.81 65 1381.35 65.9774 1376.52 67.9545L1377.27 69.8055ZM1392.89 67H1414.65V65H1392.89V67ZM1415.65 66V61.52H1413.65V66H1415.65ZM1415.65 61.52C1415.65 57.5576 1414.4 54.2512 1411.84 51.6929L1410.43 53.1071C1412.56 55.2421 1413.65 58.0157 1413.65 61.52H1415.65ZM1411.86 51.7088C1409.24 48.977 1405.19 47.72 1399.93 47.72V49.72C1404.92 49.72 1408.33 50.9163 1410.41 53.0912L1411.86 51.7088ZM1399.93 47.72C1394.78 47.72 1390.75 48.9236 1388.04 51.5174L1389.42 52.9626C1391.62 50.8631 1395.06 49.72 1399.93 49.72V47.72ZM1388.06 51.5015C1385.43 53.9 1383.74 57.0298 1382.95 60.8383L1384.91 61.2416C1385.62 57.7968 1387.13 55.06 1389.41 52.9785L1388.06 51.5015ZM1384.25 60.0921L1365.69 53.8521L1365.06 55.7479L1383.62 61.9879L1384.25 60.0921ZM1366.33 55.1011C1367.57 51.1748 1369.53 47.6104 1372.22 44.4026L1370.69 43.1174C1367.83 46.5229 1365.74 50.3186 1364.42 54.4989L1366.33 55.1011ZM1372.22 44.4049C1374.98 41.1259 1378.64 38.4923 1383.21 36.5181L1382.42 34.6819C1377.6 36.7611 1373.68 39.5674 1370.69 43.1151L1372.22 44.4049ZM1383.22 36.5138C1387.86 34.4516 1393.53 33.4 1400.25 33.4V31.4C1393.33 31.4 1387.37 32.4817 1382.41 34.6862L1383.22 36.5138ZM1400.25 33.4C1410.54 33.4 1418.55 35.9699 1424.4 40.9983L1425.71 39.4817C1419.4 34.0568 1410.87 31.4 1400.25 31.4V33.4ZM1424.4 40.9983C1430.21 45.991 1433.17 53.2563 1433.17 62.96H1435.17C1435.17 52.8237 1432.06 44.9424 1425.71 39.4817L1424.4 40.9983ZM1433.17 62.96V92.56H1435.17V62.96H1433.17ZM1433.17 92.56C1433.17 94.2976 1433.58 95.7871 1434.56 96.8423C1435.56 97.9105 1436.99 98.36 1438.65 98.36V96.36C1437.33 96.36 1436.52 96.0095 1436.02 95.4777C1435.52 94.9329 1435.17 94.0224 1435.17 92.56H1433.17ZM1438.65 98.36H1445.05V96.36H1438.65V98.36ZM1444.05 97.36V114H1446.05V97.36H1444.05ZM1445.05 113H1431.61V115H1445.05V113ZM1431.61 113C1427.83 113 1424.8 112.082 1422.45 110.32L1421.25 111.92C1424.02 113.998 1427.5 115 1431.61 115V113ZM1422.45 110.32C1420.15 108.589 1419.01 106.325 1419.01 103.44H1417.01C1417.01 106.955 1418.44 109.811 1421.25 111.92L1422.45 110.32ZM1419.01 103.44V103.28H1417.01V103.44H1419.01ZM1418.01 102.28H1414.97V104.28H1418.01V102.28ZM1414.03 102.964C1413.65 104.103 1412.75 105.713 1411.27 107.827L1412.91 108.973C1414.42 106.82 1415.45 105.017 1415.92 103.596L1414.03 102.964ZM1411.29 107.807C1409.92 109.664 1407.72 111.388 1404.61 112.946L1405.5 114.734C1408.79 113.092 1411.28 111.189 1412.9 108.993L1411.29 107.807ZM1404.61 112.946C1401.6 114.448 1397.4 115.24 1391.93 115.24V117.24C1397.56 117.24 1402.11 116.432 1405.5 114.734L1404.61 112.946ZM1395.45 100.92C1401.3 100.92 1406.14 99.3165 1409.87 96.0312L1408.55 94.5288C1405.25 97.4302 1400.92 98.92 1395.45 98.92V100.92ZM1409.88 96.0298C1413.74 92.6234 1415.65 88.1275 1415.65 82.64H1413.65C1413.65 87.6058 1411.94 91.5366 1408.55 94.5302L1409.88 96.0298ZM1415.65 82.64V81.04H1413.65V82.64H1415.65ZM1414.65 80.04H1394.33V82.04H1414.65V80.04ZM1394.33 80.04C1390.47 80.04 1387.3 80.8673 1384.93 82.64L1386.13 84.24C1388.04 82.8127 1390.73 82.04 1394.33 82.04V80.04ZM1384.93 82.64C1382.53 84.4457 1381.33 86.9945 1381.33 90.16H1383.33C1383.33 87.5655 1384.27 85.6343 1386.13 84.24L1384.93 82.64ZM1381.33 90.16C1381.33 93.342 1382.59 95.9742 1385.06 97.9772L1386.32 96.4228C1384.32 94.7991 1383.33 92.738 1383.33 90.16H1381.33ZM1385.06 97.9772C1387.55 99.9897 1391.06 100.92 1395.45 100.92V98.92C1391.31 98.92 1388.32 98.037 1386.32 96.4228L1385.06 97.9772ZM1466.69 109.52L1467.25 108.692L1467.25 108.692L1466.69 109.52ZM1454.69 90.32L1454.44 89.3519L1453.55 89.5811L1453.7 90.4844L1454.69 90.32ZM1473.25 85.52L1474.23 85.3239L1474.02 84.2871L1473 84.5519L1473.25 85.52ZM1476.93 94.32L1476.15 94.9447L1476.16 94.9563L1476.17 94.9676L1476.93 94.32ZM1483.49 98.96L1483.14 99.8963L1483.16 99.9049L1483.18 99.9124L1483.49 98.96ZM1502.53 97.84L1503.11 98.6537L1503.12 98.6448L1503.13 98.6354L1502.53 97.84ZM1502.69 86L1502.14 86.8384L1502.16 86.8482L1502.17 86.8575L1502.69 86ZM1492.45 82.64L1492.63 81.6561L1492.62 81.6556L1492.45 82.64ZM1487.97 81.84L1487.78 82.8221L1487.79 82.8244L1487.97 81.84ZM1472.77 77.52L1472.38 78.4424L1472.39 78.4463L1472.4 78.45L1472.77 77.52ZM1461.73 69.68L1460.96 70.3226L1460.96 70.3226L1461.73 69.68ZM1466.21 38.8L1466.79 39.6107L1466.8 39.6036L1466.21 38.8ZM1511.01 38.32L1510.45 39.1497L1510.45 39.1497L1511.01 38.32ZM1522.53 53.84L1522.82 54.7958L1523.76 54.5082L1523.49 53.5674L1522.53 53.84ZM1503.81 59.6L1502.83 59.806L1503.06 60.8779L1504.1 60.5558L1503.81 59.6ZM1498.53 50.96L1497.97 51.792L1497.98 51.7972L1497.99 51.8023L1498.53 50.96ZM1480.13 50.48L1480.66 51.3255L1480.68 51.3157L1480.69 51.3053L1480.13 50.48ZM1480.29 61.68L1479.77 62.5375L1479.79 62.5472L1479.81 62.5562L1480.29 61.68ZM1488.93 64.4L1489.1 63.4156L1489.1 63.4152L1488.93 64.4ZM1509.57 69.52L1509.22 70.4555L1509.23 70.4601L1509.24 70.4645L1509.57 69.52ZM1521.09 77.04L1520.32 77.6826L1520.33 77.696L1520.35 77.709L1521.09 77.04ZM1516.29 109.52L1516.89 110.32L1516.89 110.318L1516.29 109.52ZM1492.13 115.24C1481.92 115.24 1473.65 113.031 1467.25 108.692L1466.13 110.348C1472.95 114.969 1481.64 117.24 1492.13 117.24V115.24ZM1467.25 108.692C1460.88 104.375 1457.02 98.2224 1455.68 90.1556L1453.7 90.4844C1455.13 99.0576 1459.27 105.705 1466.13 110.348L1467.25 108.692ZM1454.94 91.2881L1473.5 86.4881L1473 84.5519L1454.44 89.3519L1454.94 91.2881ZM1472.27 85.7161C1473.03 89.548 1474.31 92.6472 1476.15 94.9447L1477.71 93.6953C1476.13 91.7261 1474.96 88.9587 1474.23 85.3239L1472.27 85.7161ZM1476.17 94.9676C1478.09 97.2273 1480.41 98.8751 1483.14 99.8963L1483.84 98.0237C1481.44 97.1249 1479.4 95.6793 1477.69 93.6724L1476.17 94.9676ZM1483.18 99.9124C1485.96 100.8 1488.94 101.24 1492.13 101.24V99.24C1489.13 99.24 1486.35 98.8263 1483.79 98.0076L1483.18 99.9124ZM1492.13 101.24C1496.9 101.24 1500.62 100.434 1503.11 98.6537L1501.95 97.0263C1499.96 98.4462 1496.75 99.24 1492.13 99.24V101.24ZM1503.13 98.6354C1505.58 96.7714 1506.89 94.4144 1506.89 91.6H1504.89C1504.89 93.6923 1503.96 95.4953 1501.92 97.0446L1503.13 98.6354ZM1506.89 91.6C1506.89 88.7894 1505.63 86.6001 1503.2 85.1425L1502.17 86.8575C1504.01 87.9599 1504.89 89.504 1504.89 91.6H1506.89ZM1503.23 85.1616C1500.93 83.6643 1497.36 82.5161 1492.63 81.6561L1492.27 83.6239C1496.93 84.4706 1500.18 85.5624 1502.14 86.8384L1503.23 85.1616ZM1492.62 81.6556L1488.14 80.8556L1487.79 82.8244L1492.27 83.6244L1492.62 81.6556ZM1488.16 80.858C1482.66 79.8014 1477.66 78.3775 1473.14 76.59L1472.4 78.45C1477.05 80.2892 1482.18 81.7452 1487.78 82.822L1488.16 80.858ZM1473.15 76.5976C1468.69 74.7298 1465.15 72.2044 1462.49 69.0374L1460.96 70.3226C1463.85 73.7689 1467.67 76.4702 1472.38 78.4424L1473.15 76.5976ZM1462.49 69.0374C1459.9 65.9467 1458.57 61.9232 1458.57 56.88H1456.57C1456.57 62.2901 1458.01 66.7999 1460.96 70.3226L1462.49 69.0374ZM1458.57 56.88C1458.57 49.2665 1461.33 43.5597 1466.79 39.6107L1465.62 37.9893C1459.57 42.3603 1456.57 48.7068 1456.57 56.88H1458.57ZM1466.8 39.6036C1472.35 35.4989 1479.69 33.4 1488.93 33.4V31.4C1479.39 31.4 1471.59 33.5677 1465.61 37.9964L1466.8 39.6036ZM1488.93 33.4C1497.63 33.4 1504.79 35.3391 1510.45 39.1497L1511.57 37.4903C1505.5 33.4075 1497.93 31.4 1488.93 31.4V33.4ZM1510.45 39.1497C1516.13 42.9733 1519.82 47.9553 1521.57 54.1126L1523.49 53.5674C1521.61 46.9247 1517.62 41.56 1511.57 37.4903L1510.45 39.1497ZM1522.23 52.8842L1503.51 58.6442L1504.1 60.5558L1522.82 54.7958L1522.23 52.8842ZM1504.79 59.394C1503.9 55.1626 1502.02 52.0096 1499.07 50.1177L1497.99 51.8023C1500.37 53.3237 1502.01 55.9307 1502.83 59.806L1504.79 59.394ZM1499.08 50.1279C1496.32 48.2874 1492.92 47.4 1488.93 47.4V49.4C1492.62 49.4 1495.61 50.2193 1497.97 51.792L1499.08 50.1279ZM1488.93 47.4C1484.99 47.4 1481.83 48.1066 1479.56 49.6547L1480.69 51.3053C1482.48 50.0801 1485.19 49.4 1488.93 49.4V47.4ZM1479.59 49.6345C1477.29 51.0929 1476.09 53.2214 1476.09 55.92H1478.09C1478.09 53.9253 1478.92 52.427 1480.66 51.3255L1479.59 49.6345ZM1476.09 55.92C1476.09 58.8188 1477.33 61.0704 1479.77 62.5375L1480.8 60.8225C1478.98 59.7296 1478.09 58.1412 1478.09 55.92H1476.09ZM1479.81 62.5562C1482.07 63.8021 1485.07 64.7345 1488.75 65.3848L1489.1 63.4152C1485.53 62.7855 1482.77 61.9045 1480.77 60.8038L1479.81 62.5562ZM1488.75 65.3844L1493.23 66.1844L1493.58 64.2156L1489.1 63.4156L1488.75 65.3844ZM1493.23 66.1844C1499.16 67.2422 1504.48 68.6674 1509.22 70.4555L1509.92 68.5845C1505.06 66.7459 1499.61 65.2912 1493.58 64.2156L1493.23 66.1844ZM1509.24 70.4645C1514.01 72.124 1517.69 74.54 1520.32 77.6826L1521.85 76.3974C1518.94 72.9267 1514.94 70.3293 1509.9 68.5755L1509.24 70.4645ZM1520.35 77.709C1523.02 80.6773 1524.41 84.7871 1524.41 90.16H1526.41C1526.41 84.4396 1524.92 79.8027 1521.83 76.371L1520.35 77.709ZM1524.41 90.16C1524.41 98.1997 1521.49 104.343 1515.69 108.722L1516.89 110.318C1523.25 105.523 1526.41 98.7603 1526.41 90.16H1524.41ZM1515.69 108.72C1509.94 113.031 1502.12 115.24 1492.13 115.24V117.24C1502.4 117.24 1510.69 114.969 1516.89 110.32L1515.69 108.72ZM1579.16 82.32H1578.16V83.32H1579.16V82.32ZM1579.16 64.08V63.08H1578.16V64.08H1579.16ZM1626.52 64.08H1627.52V63.08H1626.52V64.08ZM1626.52 82.32V83.32H1627.52V82.32H1626.52ZM1580.16 82.32V64.08H1578.16V82.32H1580.16ZM1579.16 65.08H1626.52V63.08H1579.16V65.08ZM1625.52 64.08V82.32H1627.52V64.08H1625.52ZM1626.52 81.32H1579.16V83.32H1626.52V81.32Z" fill="black"/>
</g>
<defs>
<clipPath id="clip0_323_12">
<rect width="1627" height="159" fill="white"/>
</clipPath>
</defs>
</svg>
