<svg width="754" height="120" viewBox="0 0 754 120" fill="none" xmlns="http://www.w3.org/2000/svg">
<g clip-path="url(#clip0_323_9)">
<path opacity="0.3" d="M51.185 114H50.185V115H51.185V114ZM51.185 1.99999V0.999992H50.185V1.99999H51.185ZM123.185 1.99999H124.185V0.999992H123.185V1.99999ZM123.185 21.2V22.2H124.185V21.2H123.185ZM72.305 21.2V20.2H71.305V21.2H72.305ZM72.305 47.92H71.305V48.92H72.305V47.92ZM118.705 47.92H119.705V46.92H118.705V47.92ZM118.705 67.12V68.12H119.705V67.12H118.705ZM72.305 67.12V66.12H71.305V67.12H72.305ZM72.305 94.8H71.305V95.8H72.305V94.8ZM124.145 94.8H125.145V93.8H124.145V94.8ZM124.145 114V115H125.145V114H124.145ZM52.185 114V1.99999H50.185V114H52.185ZM51.185 2.99999H123.185V0.999992H51.185V2.99999ZM122.185 1.99999V21.2H124.185V1.99999H122.185ZM123.185 20.2H72.305V22.2H123.185V20.2ZM71.305 21.2V47.92H73.305V21.2H71.305ZM72.305 48.92H118.705V46.92H72.305V48.92ZM117.705 47.92V67.12H119.705V47.92H117.705ZM118.705 66.12H72.305V68.12H118.705V66.12ZM71.305 67.12V94.8H73.305V67.12H71.305ZM72.305 95.8H124.145V93.8H72.305V95.8ZM123.145 94.8V114H125.145V94.8H123.145ZM124.145 113H51.185V115H124.145V113ZM157.059 114L156.106 114.304L156.328 115H157.059V114ZM131.779 34.64V33.64H130.411L130.826 34.9435L131.779 34.64ZM153.219 34.64L154.181 34.3662L153.974 33.64H153.219V34.64ZM171.619 99.28L170.657 99.5538L170.864 100.28H171.619V99.28ZM174.499 99.28V100.28H175.254L175.461 99.5538L174.499 99.28ZM192.899 34.64V33.64H192.144L191.937 34.3662L192.899 34.64ZM214.339 34.64L215.292 34.9435L215.707 33.64H214.339V34.64ZM189.059 114V115H189.79L190.012 114.304L189.059 114ZM158.012 113.696L132.732 34.3365L130.826 34.9435L156.106 114.304L158.012 113.696ZM131.779 35.64H153.219V33.64H131.779V35.64ZM152.257 34.9138L170.657 99.5538L172.581 99.0062L154.181 34.3662L152.257 34.9138ZM171.619 100.28H174.499V98.28H171.619V100.28ZM175.461 99.5538L193.861 34.9138L191.937 34.3662L173.537 99.0062L175.461 99.5538ZM192.899 35.64H214.339V33.64H192.899V35.64ZM213.386 34.3365L188.106 113.696L190.012 114.304L215.292 34.9435L213.386 34.3365ZM189.059 113H157.059V115H189.059V113ZM240.931 111.28L240.435 112.148L240.444 112.153L240.453 112.158L240.931 111.28ZM226.851 97.04L225.969 97.5114L225.974 97.5205L225.979 97.5295L226.851 97.04ZM226.851 51.76L227.73 52.2378L227.733 52.2314L226.851 51.76ZM240.771 37.52L241.256 38.395L241.267 38.3882L240.771 37.52ZM281.891 37.68L281.37 38.5334L281.381 38.5403L281.891 37.68ZM295.331 52.08L294.443 52.5394L294.446 52.5457L295.331 52.08ZM300.131 80.24V81.24H301.131V80.24H300.131ZM242.371 80.24V79.24H241.331L241.372 80.2792L242.371 80.24ZM275.011 94.96L274.334 94.2241L275.011 94.96ZM281.091 86.8L281.556 85.9143L280.626 85.4271L280.184 86.3789L281.091 86.8ZM297.571 95.44L298.452 95.9141L298.931 95.0238L298.036 94.5543L297.571 95.44ZM291.011 104.56L290.257 103.903L290.256 103.905L291.011 104.56ZM279.811 112.88L280.242 113.782L280.25 113.779L280.258 113.774L279.811 112.88ZM242.531 65.2L241.544 65.0393L241.355 66.2H242.531V65.2ZM279.651 65.2V66.2H280.749L280.647 65.1074L279.651 65.2ZM274.051 54.16L273.396 54.9157L273.402 54.921L273.409 54.9262L274.051 54.16ZM261.891 115.24C254.141 115.24 247.323 113.618 241.409 110.402L240.453 112.158C246.7 115.556 253.855 117.24 261.891 117.24V115.24ZM241.427 110.412C235.614 107.09 231.049 102.475 227.723 96.5505L225.979 97.5295C229.48 103.765 234.302 108.644 240.435 112.148L241.427 110.412ZM227.733 96.5686C224.517 90.5517 222.891 83.4661 222.891 75.28H220.891C220.891 83.7339 222.572 91.1549 225.969 97.5114L227.733 96.5686ZM222.891 75.28V73.36H220.891V75.28H222.891ZM222.891 73.36C222.891 65.1733 224.517 58.1442 227.73 52.2378L225.973 51.2822C222.572 57.5358 220.891 64.9067 220.891 73.36H222.891ZM227.733 52.2314C230.952 46.2098 235.456 41.6055 241.256 38.3949L240.287 36.6451C234.14 40.0478 229.364 44.9369 225.969 51.2886L227.733 52.2314ZM241.267 38.3882C247.069 35.0733 253.826 33.4 261.571 33.4V31.4C253.53 31.4 246.421 33.14 240.275 36.6518L241.267 38.3882ZM261.571 33.4C269.203 33.4 275.79 35.1232 281.37 38.5333L282.413 36.8267C276.473 33.1968 269.513 31.4 261.571 31.4V33.4ZM281.381 38.5403C286.974 41.8541 291.325 46.5121 294.443 52.5394L296.219 51.6206C292.937 45.2745 288.329 40.3325 282.401 36.8197L281.381 38.5403ZM294.446 52.5457C297.558 58.4584 299.131 65.3865 299.131 73.36H301.131C301.131 65.1202 299.504 57.8616 296.216 51.6142L294.446 52.5457ZM299.131 73.36V80.24H301.131V73.36H299.131ZM300.131 79.24H242.371V81.24H300.131V79.24ZM241.372 80.2792C241.595 85.9729 243.73 90.6617 247.787 94.2674L249.116 92.7726C245.492 89.5517 243.574 85.3871 243.37 80.2008L241.372 80.2792ZM247.787 94.2674C251.825 97.857 256.761 99.64 262.531 99.64V97.64C257.208 97.64 252.757 96.0097 249.116 92.7726L247.787 94.2674ZM262.531 99.64C268.3 99.64 272.757 98.3925 275.688 95.6959L274.334 94.2241C271.932 96.4342 268.069 97.64 262.531 97.64V99.64ZM275.688 95.6959C278.442 93.1627 280.551 90.3382 281.998 87.2211L280.184 86.3789C278.858 89.2351 276.914 91.8506 274.334 94.2241L275.688 95.6959ZM280.627 87.6857L297.107 96.3257L298.036 94.5543L281.556 85.9143L280.627 87.6857ZM296.691 94.9659C295.243 97.654 293.106 100.633 290.257 103.903L291.765 105.217C294.677 101.874 296.912 98.7727 298.452 95.9141L296.691 94.9659ZM290.256 103.905C287.586 106.985 283.967 109.684 279.364 111.986L280.258 113.774C285.042 111.383 288.89 108.535 291.767 105.215L290.256 103.905ZM279.381 111.978C274.864 114.133 269.051 115.24 261.891 115.24V117.24C269.238 117.24 275.372 116.107 280.242 113.782L279.381 111.978ZM242.531 66.2H279.651V64.2H242.531V66.2ZM280.647 65.1074C280.198 60.278 278.217 56.3486 274.694 53.3938L273.409 54.9262C276.499 57.5181 278.251 60.9487 278.656 65.2926L280.647 65.1074ZM274.706 53.4043C271.285 50.4389 266.82 49 261.411 49V51C266.456 51 270.418 52.3344 273.396 54.9157L274.706 53.4043ZM261.411 49C255.801 49 251.225 50.4328 247.796 53.4043L249.106 54.9157C252.078 52.3405 256.142 51 261.411 51V49ZM247.796 53.4043C244.402 56.3463 242.325 60.2457 241.544 65.0393L243.518 65.3607C244.231 60.981 246.101 57.5204 249.106 54.9157L247.796 53.4043ZM318.075 114H317.075V115H318.075V114ZM318.075 34.64V33.64H317.075V34.64H318.075ZM337.915 34.64H338.915V33.64H337.915V34.64ZM337.915 45.04H336.915V46.04H337.915V45.04ZM340.795 45.04V46.04H341.435L341.703 45.4591L340.795 45.04ZM347.995 37.2L348.567 38.0204L348.575 38.0146L348.583 38.0087L347.995 37.2ZM380.155 37.68L379.623 38.5269L379.635 38.5341L379.646 38.5409L380.155 37.68ZM391.035 49.36L390.144 49.8148L390.148 49.8226L391.035 49.36ZM394.875 114V115H395.875V114H394.875ZM374.715 114H373.715V115H374.715V114ZM370.235 54.8L369.515 55.4941L369.521 55.5007L369.528 55.5071L370.235 54.8ZM343.355 56.56L344.12 57.2042L344.128 57.1943L343.355 56.56ZM338.235 114V115H339.235V114H338.235ZM319.075 114V34.64H317.075V114H319.075ZM318.075 35.64H337.915V33.64H318.075V35.64ZM336.915 34.64V45.04H338.915V34.64H336.915ZM337.915 46.04H340.795V44.04H337.915V46.04ZM341.703 45.4591C342.884 42.8994 345.136 40.4112 348.567 38.0204L347.423 36.3796C343.814 38.8954 341.266 41.634 339.887 44.6209L341.703 45.4591ZM348.583 38.0087C351.854 35.6301 356.936 34.36 363.995 34.36V32.36C356.761 32.36 351.176 33.6499 347.407 36.3913L348.583 38.0087ZM363.995 34.36C370.021 34.36 375.218 35.7606 379.623 38.5269L380.687 36.8331C375.919 33.8394 370.342 32.36 363.995 32.36V34.36ZM379.646 38.5409C384.171 41.2145 387.668 44.9645 390.144 49.8148L391.926 48.9052C389.282 43.7288 385.526 39.6921 380.664 36.8191L379.646 38.5409ZM390.148 49.8226C392.621 54.5611 393.875 60.1565 393.875 66.64H395.875C395.875 59.8968 394.569 53.9722 391.922 48.8974L390.148 49.8226ZM393.875 66.64V114H395.875V66.64H393.875ZM394.875 113H374.715V115H394.875V113ZM375.715 114V68.24H373.715V114H375.715ZM375.715 68.24C375.715 62.1125 374.182 57.3332 370.942 54.0929L369.528 55.5071C372.261 58.2401 373.715 62.4208 373.715 68.24H375.715ZM370.955 54.1059C367.833 50.8682 363.378 49.32 357.755 49.32V51.32C363.012 51.32 366.877 52.7585 369.515 55.4941L370.955 54.1059ZM357.755 49.32C351.319 49.32 346.215 51.498 342.582 55.9257L344.128 57.1943C347.322 53.302 351.818 51.32 357.755 51.32V49.32ZM342.59 55.9159C338.975 60.2086 337.235 66.1753 337.235 73.68H339.235C339.235 66.4647 340.908 61.018 344.12 57.2041L342.59 55.9159ZM337.235 73.68V114H339.235V73.68H337.235ZM338.235 113H318.075V115H338.235V113ZM432.081 109.2L431.363 109.895L431.374 109.907L431.386 109.919L432.081 109.2ZM427.281 51.28H428.281V50.28H427.281V51.28ZM407.441 51.28H406.441V52.28H407.441V51.28ZM407.441 34.64V33.64H406.441V34.64H407.441ZM427.281 34.64V35.64H428.281V34.64H427.281ZM427.281 9.99999V8.99999H426.281V9.99999H427.281ZM447.441 9.99999H448.441V8.99999H447.441V9.99999ZM447.441 34.64H446.441V35.64H447.441V34.64ZM469.201 34.64H470.201V33.64H469.201V34.64ZM469.201 51.28V52.28H470.201V51.28H469.201ZM447.441 51.28V50.28H446.441V51.28H447.441ZM467.281 97.36H468.281V96.36H467.281V97.36ZM467.281 114V115H468.281V114H467.281ZM444.881 113C439.876 113 435.871 111.476 432.777 108.481L431.386 109.919C434.905 113.324 439.433 115 444.881 115V113ZM432.8 108.505C429.813 105.418 428.281 101.311 428.281 96.08H426.281C426.281 101.729 427.95 106.369 431.363 109.895L432.8 108.505ZM428.281 96.08V51.28H426.281V96.08H428.281ZM427.281 50.28H407.441V52.28H427.281V50.28ZM408.441 51.28V34.64H406.441V51.28H408.441ZM407.441 35.64H427.281V33.64H407.441V35.64ZM428.281 34.64V9.99999H426.281V34.64H428.281ZM427.281 11H447.441V8.99999H427.281V11ZM446.441 9.99999V34.64H448.441V9.99999H446.441ZM447.441 35.64H469.201V33.64H447.441V35.64ZM468.201 34.64V51.28H470.201V34.64H468.201ZM469.201 50.28H447.441V52.28H469.201V50.28ZM446.441 51.28V92.56H448.441V51.28H446.441ZM446.441 92.56C446.441 94.2976 446.845 95.7871 447.83 96.8423C448.827 97.9105 450.255 98.36 451.921 98.36V96.36C450.6 96.36 449.789 96.0095 449.292 95.4777C448.784 94.9329 448.441 94.0224 448.441 92.56H446.441ZM451.921 98.36H467.281V96.36H451.921V98.36ZM466.281 97.36V114H468.281V97.36H466.281ZM467.281 113H444.881V115H467.281V113ZM501.118 111.44L500.664 112.331L501.118 111.44ZM486.238 51.12L487.096 51.6323L487.096 51.6323L486.238 51.12ZM501.118 37.2L501.571 38.0914L501.571 38.0914L501.118 37.2ZM543.678 37.2L543.224 38.0914L543.224 38.0914L543.678 37.2ZM558.558 51.12L557.699 51.6323L557.699 51.6323L558.558 51.12ZM558.558 97.52L557.699 97.0077L557.699 97.0077L558.558 97.52ZM543.678 111.44L543.224 110.549L543.224 110.549L543.678 111.44ZM537.758 92.4L538.455 93.1165L538.465 93.1071L537.758 92.4ZM537.758 56.4L537.041 57.0976L537.05 57.1072L537.06 57.1165L537.758 56.4ZM507.038 56.4L507.735 57.1165L507.745 57.1071L507.038 56.4ZM507.038 92.4L506.33 93.1072L506.34 93.1165L507.038 92.4ZM522.398 115.24C514.643 115.24 507.708 113.669 501.571 110.549L500.664 112.331C507.114 115.611 514.365 117.24 522.398 117.24V115.24ZM501.571 110.549C495.446 107.434 490.627 102.926 487.096 97.0077L485.379 98.0323C489.102 104.274 494.202 109.046 500.664 112.331L501.571 110.549ZM487.096 97.0077C483.579 91.1117 481.798 83.9901 481.798 75.6H479.798C479.798 84.2766 481.642 91.7683 485.379 98.0323L487.096 97.0077ZM481.798 75.6V73.04H479.798V75.6H481.798ZM481.798 73.04C481.798 64.6499 483.579 57.5283 487.096 51.6323L485.379 50.6077C481.642 56.8717 479.798 64.3634 479.798 73.04H481.798ZM487.096 51.6323C490.627 45.7139 495.446 41.2056 501.571 38.0914L500.664 36.3086C494.202 39.5944 489.102 44.3661 485.379 50.6077L487.096 51.6323ZM501.571 38.0914C507.708 34.9708 514.643 33.4 522.398 33.4V31.4C514.365 31.4 507.114 33.0291 500.664 36.3086L501.571 38.0914ZM522.398 33.4C530.152 33.4 537.087 34.9708 543.224 38.0914L544.131 36.3086C537.681 33.0291 530.43 31.4 522.398 31.4V33.4ZM543.224 38.0914C549.349 41.2056 554.168 45.7139 557.699 51.6323L559.416 50.6077C555.693 44.3661 550.593 39.5944 544.131 36.3086L543.224 38.0914ZM557.699 51.6323C561.216 57.5283 562.998 64.6499 562.998 73.04H564.998C564.998 64.3634 563.153 56.8717 559.416 50.6077L557.699 51.6323ZM562.998 73.04V75.6H564.998V73.04H562.998ZM562.998 75.6C562.998 83.9901 561.216 91.1117 557.699 97.0077L559.416 98.0323C563.153 91.7683 564.998 84.2766 564.998 75.6H562.998ZM557.699 97.0077C554.168 102.926 549.349 107.434 543.224 110.549L544.131 112.331C550.593 109.046 555.693 104.274 559.416 98.0323L557.699 97.0077ZM543.224 110.549C537.087 113.669 530.152 115.24 522.398 115.24V117.24C530.43 117.24 537.681 115.611 544.131 112.331L543.224 110.549ZM522.398 99.32C528.818 99.32 534.197 97.2628 538.455 93.1165L537.06 91.6835C533.212 95.4306 528.35 97.32 522.398 97.32V99.32ZM538.465 93.1071C542.757 88.8144 544.838 82.7683 544.838 75.12H542.838C542.838 82.405 540.864 87.8789 537.05 91.6929L538.465 93.1071ZM544.838 75.12V73.52H542.838V75.12H544.838ZM544.838 73.52C544.838 65.8733 542.758 59.873 538.455 55.6835L537.06 57.1165C540.864 60.8203 542.838 66.2333 542.838 73.52H544.838ZM538.474 55.7024C534.317 51.4331 528.927 49.32 522.398 49.32V51.32C528.454 51.32 533.305 53.2603 537.041 57.0976L538.474 55.7024ZM522.398 49.32C515.969 49.32 510.587 51.4362 506.33 55.6929L507.745 57.1071C511.595 53.2571 516.453 51.32 522.398 51.32V49.32ZM506.34 55.6835C502.037 59.873 499.958 65.8733 499.958 73.52H501.958C501.958 66.2333 503.931 60.8203 507.735 57.1165L506.34 55.6835ZM499.958 73.52V75.12H501.958V73.52H499.958ZM499.958 75.12C499.958 82.7683 502.038 88.8144 506.33 93.1071L507.745 91.6929C503.931 87.8789 501.958 82.405 501.958 75.12H499.958ZM506.34 93.1165C510.598 97.2628 515.977 99.32 522.398 99.32V97.32C516.445 97.32 511.583 95.4306 507.735 91.6835L506.34 93.1165ZM590.126 109.52L590.687 108.692L590.687 108.692L590.126 109.52ZM578.126 90.32L577.876 89.3519L576.989 89.5811L577.14 90.4844L578.126 90.32ZM596.686 85.52L597.667 85.3239L597.459 84.2871L596.436 84.5519L596.686 85.52ZM600.366 94.32L599.585 94.9447L599.595 94.9563L599.604 94.9676L600.366 94.32ZM606.926 98.96L606.575 99.8963L606.598 99.9049L606.621 99.9124L606.926 98.96ZM625.966 97.84L626.547 98.6537L626.56 98.6448L626.572 98.6354L625.966 97.84ZM626.126 86L625.581 86.8384L625.596 86.8482L625.612 86.8575L626.126 86ZM615.886 82.64L616.065 81.6561L616.062 81.6556L615.886 82.64ZM611.406 81.84L611.217 82.8221L611.23 82.8244L611.406 81.84ZM596.206 77.52L595.82 78.4424L595.829 78.4463L595.839 78.45L596.206 77.52ZM585.166 69.68L584.4 70.3226L584.4 70.3226L585.166 69.68ZM589.646 38.8L590.232 39.6107L590.241 39.6036L589.646 38.8ZM634.446 38.32L633.888 39.1497L633.888 39.1497L634.446 38.32ZM645.966 53.84L646.26 54.7958L647.195 54.5082L646.928 53.5674L645.966 53.84ZM627.246 59.6L626.268 59.806L626.493 60.8779L627.54 60.5558L627.246 59.6ZM621.966 50.96L621.412 51.792L621.419 51.7972L621.427 51.8023L621.966 50.96ZM603.566 50.48L604.1 51.3255L604.116 51.3157L604.131 51.3053L603.566 50.48ZM603.726 61.68L603.212 62.5375L603.228 62.5472L603.244 62.5562L603.726 61.68ZM612.366 64.4L612.542 63.4156L612.54 63.4152L612.366 64.4ZM633.006 69.52L632.653 70.4555L632.665 70.4601L632.678 70.4645L633.006 69.52ZM644.526 77.04L643.76 77.6826L643.771 77.696L643.783 77.709L644.526 77.04ZM639.726 109.52L640.326 110.32L640.328 110.318L639.726 109.52ZM615.566 115.24C605.361 115.24 597.092 113.031 590.687 108.692L589.565 110.348C596.387 114.969 605.078 117.24 615.566 117.24V115.24ZM590.687 108.692C584.314 104.375 580.457 98.2224 579.113 90.1556L577.14 90.4844C578.569 99.0576 582.712 105.705 589.565 110.348L590.687 108.692ZM578.377 91.2881L596.937 86.4881L596.436 84.5519L577.876 89.3519L578.377 91.2881ZM595.706 85.7161C596.472 89.548 597.747 92.6472 599.585 94.9447L601.147 93.6953C599.572 91.7261 598.394 88.9587 597.667 85.3239L595.706 85.7161ZM599.604 94.9676C601.525 97.2273 603.852 98.8751 606.575 99.8963L607.277 98.0237C604.881 97.1249 602.834 95.6793 601.128 93.6724L599.604 94.9676ZM606.621 99.9124C609.396 100.8 612.38 101.24 615.566 101.24V99.24C612.566 99.24 609.789 98.8263 607.231 98.0076L606.621 99.9124ZM615.566 101.24C620.336 101.24 624.055 100.434 626.547 98.6537L625.385 97.0263C623.397 98.4462 620.183 99.24 615.566 99.24V101.24ZM626.572 98.6354C629.019 96.7714 630.326 94.4144 630.326 91.6H628.326C628.326 93.6923 627.394 95.4953 625.36 97.0446L626.572 98.6354ZM630.326 91.6C630.326 88.7894 629.07 86.6001 626.641 85.1425L625.612 86.8575C627.449 87.9599 628.326 89.504 628.326 91.6H630.326ZM626.671 85.1616C624.368 83.6643 620.795 82.5161 616.065 81.6561L615.707 83.6239C620.364 84.4706 623.618 85.5624 625.581 86.8384L626.671 85.1616ZM616.062 81.6556L611.582 80.8556L611.23 82.8244L615.71 83.6244L616.062 81.6556ZM611.595 80.858C606.101 79.8014 601.095 78.3775 596.574 76.59L595.839 78.45C600.491 80.2892 605.618 81.7452 611.217 82.822L611.595 80.858ZM596.592 76.5976C592.13 74.7298 588.589 72.2044 585.932 69.0374L584.4 70.3226C587.291 73.7689 591.109 76.4702 595.82 78.4424L596.592 76.5976ZM585.932 69.0374C583.34 65.9467 582.006 61.9232 582.006 56.88H580.006C580.006 62.2901 581.446 66.7999 584.4 70.3226L585.932 69.0374ZM582.006 56.88C582.006 49.2665 584.764 43.5597 590.232 39.6107L589.061 37.9893C583.009 42.3603 580.006 48.7068 580.006 56.88H582.006ZM590.241 39.6036C595.783 35.4989 603.128 33.4 612.366 33.4V31.4C602.831 31.4 595.03 33.5677 589.051 37.9964L590.241 39.6036ZM612.366 33.4C621.071 33.4 628.224 35.3391 633.888 39.1497L635.004 37.4903C628.936 33.4075 621.368 31.4 612.366 31.4V33.4ZM633.888 39.1497C639.572 42.9733 643.26 47.9553 645.004 54.1126L646.928 53.5674C645.046 46.9247 641.054 41.56 635.004 37.4903L633.888 39.1497ZM645.672 52.8842L626.952 58.6442L627.54 60.5558L646.26 54.7958L645.672 52.8842ZM628.225 59.394C627.334 55.1626 625.461 52.0096 622.505 50.1177L621.427 51.8023C623.804 53.3237 625.452 55.9307 626.268 59.806L628.225 59.394ZM622.521 50.1279C619.76 48.2874 616.355 47.4 612.366 47.4V49.4C616.058 49.4 619.052 50.2193 621.412 51.792L622.521 50.1279ZM612.366 47.4C608.43 47.4 605.264 48.1066 603.002 49.6547L604.131 51.3053C605.922 50.0801 608.623 49.4 612.366 49.4V47.4ZM603.032 49.6345C600.723 51.0929 599.526 53.2214 599.526 55.92H601.526C601.526 53.9253 602.356 52.427 604.1 51.3255L603.032 49.6345ZM599.526 55.92C599.526 58.8188 600.767 61.0704 603.212 62.5375L604.241 60.8225C602.419 59.7296 601.526 58.1412 601.526 55.92H599.526ZM603.244 62.5562C605.51 63.8021 608.507 64.7345 612.192 65.3848L612.54 63.4152C608.972 62.7855 606.21 61.9045 604.208 60.8038L603.244 62.5562ZM612.19 65.3844L616.67 66.1844L617.022 64.2156L612.542 63.4156L612.19 65.3844ZM616.67 66.1844C622.594 67.2422 627.92 68.6674 632.653 70.4555L633.36 68.5845C628.493 66.7459 623.045 65.2912 617.022 64.2156L616.67 66.1844ZM632.678 70.4645C637.449 72.124 641.124 74.54 643.76 77.6826L645.292 76.3974C642.382 72.9267 638.377 70.3293 633.335 68.5755L632.678 70.4645ZM643.783 77.709C646.454 80.6773 647.846 84.7871 647.846 90.16H649.846C649.846 84.4396 648.358 79.8027 645.27 76.371L643.783 77.709ZM647.846 90.16C647.846 98.1997 644.928 104.343 639.124 108.722L640.328 110.318C646.685 105.523 649.846 98.7603 649.846 90.16H647.846ZM639.126 108.72C633.378 113.031 625.559 115.24 615.566 115.24V117.24C625.84 117.24 634.127 114.969 640.326 110.32L639.126 108.72ZM702.599 82.32H701.599V83.32H702.599V82.32ZM702.599 64.08V63.08H701.599V64.08H702.599ZM749.959 64.08H750.959V63.08H749.959V64.08ZM749.959 82.32V83.32H750.959V82.32H749.959ZM703.599 82.32V64.08H701.599V82.32H703.599ZM702.599 65.08H749.959V63.08H702.599V65.08ZM748.959 64.08V82.32H750.959V64.08H748.959ZM749.959 81.32H702.599V83.32H749.959V81.32Z" fill="black"/>
</g>
<defs>
<clipPath id="clip0_323_9">
<rect width="754" height="120" fill="white"/>
</clipPath>
</defs>
</svg>
