<svg width="1827" height="1847" viewBox="0 0 1827 1847" fill="none" xmlns="http://www.w3.org/2000/svg">
<path opacity="0.4" d="M1201.17 67.9047C1261.5 71.6371 1160.12 508.945 1114.09 674.413C1137.11 660.728 1241.1 613.078 1472.97 492.149C1762.81 340.988 1830.6 493.393 1754.72 559.954C1678.84 626.514 1162.61 882.181 1169.45 882.181C1176.29 882.181 1179.4 959.939 1458.67 994.774C1737.93 1029.61 1993.56 1269.1 1689.42 1242.35C1446.1 1220.95 1220.66 1133.49 1138.35 1092.44C1201.17 1201.3 1340.37 1457.21 1394.6 1609.99C1462.4 1800.96 1318.1 1731.92 1256.53 1666.6C1207.27 1614.35 1056.46 1319.28 987.214 1178.28C970.213 1231.57 917.18 1399.74 841.051 1646.07C745.89 1953.99 616.521 1832.07 640.154 1771.73C663.787 1711.39 772.01 1207.52 804.977 1099.9C749.622 1139.71 161.859 1434.57 96.5557 1445.77C31.2523 1456.96 19.4299 1445.77 8.23446 1434.57C-2.96097 1423.37 -12.2905 1398.49 48.0404 1338.15C108.371 1277.81 581.067 975.49 640.154 948.742C605.946 936.3 393.853 879.071 170.567 784.518C-52.7199 689.964 39.9534 593.545 161.859 615.317C259.384 632.735 609.261 715.054 772.01 754.037C712.923 623.197 569.621 317.723 469.111 142.551C343.473 -76.414 489.636 6.32 559.296 67.9047C628.957 129.49 852.865 503.968 911.33 643.31C998.406 341.611 1140.84 64.1724 1201.17 67.9047Z" fill="#DEAA59"/>
</svg>
