<svg width="2081" height="1432" viewBox="0 0 2081 1432" fill="none" xmlns="http://www.w3.org/2000/svg">
<path opacity="0.45" d="M1093.58 516.807L1099.97 518.143C1141.02 405.976 1279.21 -60.4709 1364.05 6.55534C1431.92 60.1763 1370.43 430.143 1331.21 608.423C1353.56 603.864 1471.6 570.123 1764.97 471.636C2131.68 348.527 2108.42 444.278 2041.37 489.417C1974.32 534.556 1576.14 721.958 1373.63 745.212C1760.86 765.73 2083.79 909.358 1926.43 927.14C1769.07 944.923 1455.73 898.415 1239.53 846.435C1268.26 894.311 1428.36 1596.03 1279.21 1396.32C1130.06 1196.61 1143.75 851.907 1136.91 909.358C1130.06 966.809 961.76 1408.63 874.188 1396.32C786.615 1384.01 948.077 984.591 1058.91 831.389C983.654 894.311 374.75 1211.66 343.278 1185.67C312.912 1160.59 423.945 1098.59 725.541 909.954C545.505 1008.11 40.8443 1112.16 2.56671 909.358C-38.483 691.865 421.274 652.196 778.409 652.196V638.517C638.384 624.382 368.186 574.773 407.594 489.417C456.497 383.493 800.749 455.53 1093.58 516.807Z" fill="#963855"/>
</svg>
