<svg width="1031" height="1045" viewBox="0 0 1031 1045" fill="none" xmlns="http://www.w3.org/2000/svg">
<path opacity="0.1" d="M628.598 220.624L630.166 223.21C705.184 138.017 883.802 -58.819 878.145 17.0707C873.619 77.7824 743.625 261.501 664.441 352.148C674.897 353.409 735.317 351.925 893.347 335.9C1090.88 315.868 1031.07 391.285 982.78 414.028C934.494 436.77 691.113 503.819 606.079 477.167C733.736 582.919 772.161 777.778 706.241 756.827C640.32 735.876 553.102 625.089 503.622 531.88C488.169 578.809 168.175 1207.02 222.147 1004.57C276.118 802.118 466.374 514.614 433.031 561.49C399.688 608.365 101.83 942.433 77.0853 912.05C52.3406 881.667 122.696 713.271 244.772 609.419C183.983 645.28 -2.4928 642.273 0.210818 613.172C2.81944 585.093 75.9288 558.176 285.379 468.028C168.116 509.662 -68.5813 482.115 26.7626 302.381C129.011 109.631 348.982 232.337 476.892 313.915L484.247 302.382C441.697 258.479 337.625 103.801 397.636 40.8374C472.109 -37.2986 556.669 102.072 628.598 220.624Z" fill="#0A0A0A"/>
</svg>
