<svg width="143" height="139" viewBox="0 0 143 139" fill="none" xmlns="http://www.w3.org/2000/svg">
<path opacity="0.3" d="M2.58531 82.183C6.31551 80.4482 14.8321 74.0851 51.0778 59.6307C49.7101 54.3944 45.8498 40.8148 41.3507 28.3862C35.7268 12.8505 35.6347 4.61846 45.8256 15.6279C53.9783 24.4354 66.5016 36.1752 71.7442 40.9441C78.2518 31.6003 92.7051 11.0693 98.4569 3.69636C105.647 -5.51984 103.494 9.36181 103.228 11.0868C103.016 12.4667 95.643 44.5106 91.983 60.3601C100.633 64.6123 120.792 75.3635 132.231 84.351C146.529 95.5854 143.911 96.2687 137.232 95.1047C131.888 94.1734 100.115 93.1478 84.896 92.7514C80.5996 103.024 71.4669 125.049 69.3075 130.965C66.6083 138.359 65.6285 138.548 63.2608 138.048C60.893 137.547 58.8926 135.541 57.7442 130.203C56.8256 125.932 57.7655 101.365 58.3503 89.6147C48.2635 88.9672 25.3272 87.3553 14.2763 86.0885C0.462564 84.5049 -1.14488 83.9178 2.58531 82.183Z" fill="#FEE363"/>
</svg>
