<svg width="436" height="431" viewBox="0 0 436 431" fill="none" xmlns="http://www.w3.org/2000/svg">
<path opacity="0.3" d="M258.039 7.21838C258.622 21.1903 267.494 56.2223 265.615 188.853C283.836 191.386 331.499 196.972 376.381 199.052C432.485 201.652 458.447 212.096 410.599 229.734C372.321 243.845 319.139 267.853 297.333 278.093C318.181 310.704 363.79 382.845 379.436 410.514C398.995 445.1 355.084 418.939 350.015 415.858C345.96 413.392 254.978 348.468 209.994 316.314C185.368 337.924 125.335 387.191 82.2064 411.384C28.2964 441.624 29.5645 432.515 41.9273 413.064C51.8177 397.502 96.4624 299.094 117.548 251.835C90.9007 224.954 33.6663 167.569 17.9104 153.078C-1.78445 134.963 -1.09953 131.641 3.55839 124.861C8.21631 118.08 17.1214 114.415 35.3773 117.771C49.982 120.455 125.881 155.436 162.005 172.591C177.189 141.77 212.152 71.8679 230.537 38.8276C253.518 -2.47271 257.457 -6.75349 258.039 7.21838Z" fill="#FEE363"/>
</svg>
