<svg width="1678" height="160" viewBox="0 0 1678 160" fill="none" xmlns="http://www.w3.org/2000/svg">
<g clip-path="url(#clip0_323_12)">
<path opacity="0.3" d="M51.185 115H50.185V116H51.185V115ZM51.185 2.99999V1.99999H50.185V2.99999H51.185ZM118.225 6.67999L117.8 7.58523L117.8 7.58523L118.225 6.67999ZM130.385 17.08L131.226 16.5392L131.226 16.5392L130.385 17.08ZM129.905 51.16L130.698 51.7697L130.698 51.7697L129.905 51.16ZM118.065 60.28L117.686 59.3545L117.065 59.6086V60.28H118.065ZM118.065 63.16H117.065V64.1112L118.015 64.1588L118.065 63.16ZM127.985 67.64L127.222 68.2859L127.228 68.2933L127.234 68.3006L127.985 67.64ZM131.505 115V116H132.505V115H131.505ZM110.385 115H109.385V116H110.385V115ZM108.305 75.16L107.524 75.7847L107.536 75.8001L107.549 75.8149L108.305 75.16ZM72.305 72.76V71.76H71.305V72.76H72.305ZM72.305 115V116H73.305V115H72.305ZM72.305 53.56H71.305V54.56H72.305V53.56ZM109.265 49.56L109.958 50.2808L109.959 50.2803L109.265 49.56ZM109.425 26.36L108.718 27.0671L108.725 27.074L108.732 27.0808L109.425 26.36ZM72.305 22.2V21.2H71.305V22.2H72.305ZM52.185 115V2.99999H50.185V115H52.185ZM51.185 3.99999H99.825V1.99999H51.185V3.99999ZM99.825 3.99999C106.75 3.99999 112.732 5.20646 117.8 7.58523L118.65 5.77476C113.264 3.24686 106.98 1.99999 99.825 1.99999V3.99999ZM117.8 7.58523C122.871 9.96563 126.774 13.3123 129.544 17.6208L131.226 16.5392C128.236 11.8877 124.032 8.30103 118.65 5.77476L117.8 7.58523ZM129.544 17.6207C132.306 21.9175 133.705 27.0039 133.705 32.92H135.705C135.705 26.6761 134.224 21.2025 131.226 16.5392L129.544 17.6207ZM133.705 32.92V34.84H135.705V32.92H133.705ZM133.705 34.84C133.705 41.4019 132.144 46.6089 129.112 50.5503L130.698 51.7697C134.066 47.3911 135.705 41.7181 135.705 34.84H133.705ZM129.112 50.5503C126.016 54.5754 122.21 57.5037 117.686 59.3545L118.444 61.2055C123.306 59.2163 127.394 56.0646 130.698 51.7697L129.112 50.5503ZM117.065 60.28V63.16H119.065V60.28H117.065ZM118.015 64.1588C122.058 64.3609 125.085 65.7612 127.222 68.2859L128.748 66.9941C126.191 63.9722 122.605 62.3858 118.115 62.1612L118.015 64.1588ZM127.234 68.3006C129.382 70.7408 130.505 74.0576 130.505 78.36H132.505C132.505 73.7024 131.282 69.8725 128.736 66.9794L127.234 68.3006ZM130.505 78.36V115H132.505V78.36H130.505ZM131.505 114H110.385V116H131.505V114ZM111.385 115V81.4H109.385V115H111.385ZM111.385 81.4C111.385 78.652 110.636 76.323 109.061 74.5051L107.549 75.8149C108.747 77.197 109.385 79.028 109.385 81.4H111.385ZM109.086 74.5353C107.535 72.5972 104.984 71.76 101.745 71.76V73.76C104.693 73.76 106.515 74.5228 107.524 75.7847L109.086 74.5353ZM101.745 71.76H72.305V73.76H101.745V71.76ZM71.305 72.76V115H73.305V72.76H71.305ZM72.305 114H51.185V116H72.305V114ZM72.305 54.56H97.585V52.56H72.305V54.56ZM97.585 54.56C102.776 54.56 106.947 53.1759 109.958 50.2808L108.572 48.8392C106.036 51.2775 102.421 52.56 97.585 52.56V54.56ZM109.959 50.2803C113.059 47.2949 114.585 43.3958 114.585 38.68H112.585C112.585 42.9242 111.231 46.2784 108.571 48.8397L109.959 50.2803ZM114.585 38.68V37.08H112.585V38.68H114.585ZM114.585 37.08C114.585 32.3766 113.12 28.5256 110.118 25.6392L108.732 27.0808C111.277 29.5277 112.585 32.8234 112.585 37.08H114.585ZM110.132 25.6529C107.119 22.6398 102.886 21.2 97.585 21.2V23.2C102.524 23.2 106.184 24.5335 108.718 27.0671L110.132 25.6529ZM97.585 21.2H72.305V23.2H97.585V21.2ZM71.305 22.2V53.56H73.305V22.2H71.305ZM168.119 112.28L167.623 113.148L167.632 113.153L167.641 113.158L168.119 112.28ZM154.039 98.04L153.157 98.5114L153.162 98.5205L153.167 98.5295L154.039 98.04ZM154.039 52.76L154.917 53.2378L154.921 53.2314L154.039 52.76ZM167.959 38.52L168.443 39.395L168.455 39.3882L167.959 38.52ZM209.079 38.68L208.557 39.5334L208.569 39.5403L209.079 38.68ZM222.519 53.08L221.631 53.5394L221.634 53.5457L222.519 53.08ZM227.319 81.24V82.24H228.319V81.24H227.319ZM169.559 81.24V80.24H168.519L168.56 81.2792L169.559 81.24ZM202.199 95.96L201.522 95.2241L202.199 95.96ZM208.279 87.8L208.743 86.9143L207.814 86.4271L207.372 87.3789L208.279 87.8ZM224.759 96.44L225.639 96.9141L226.119 96.0238L225.223 95.5543L224.759 96.44ZM218.199 105.56L217.445 104.903L217.443 104.905L218.199 105.56ZM206.999 113.88L207.429 114.782L207.438 114.779L207.446 114.774L206.999 113.88ZM169.719 66.2L168.732 66.0393L168.543 67.2H169.719V66.2ZM206.839 66.2V67.2H207.936L207.834 66.1074L206.839 66.2ZM201.239 55.16L200.584 55.9157L200.59 55.921L200.596 55.9262L201.239 55.16ZM189.079 116.24C181.329 116.24 174.51 114.618 168.597 111.402L167.641 113.158C173.887 116.556 181.042 118.24 189.079 118.24V116.24ZM168.615 111.412C162.801 108.09 158.237 103.475 154.911 97.5505L153.167 98.5295C156.668 104.765 161.49 109.644 167.623 113.148L168.615 111.412ZM154.921 97.5686C151.705 91.5517 150.079 84.4661 150.079 76.28H148.079C148.079 84.7339 149.759 92.1549 153.157 98.5114L154.921 97.5686ZM150.079 76.28V74.36H148.079V76.28H150.079ZM150.079 74.36C150.079 66.1733 151.705 59.1442 154.917 53.2378L153.16 52.2822C149.759 58.5358 148.079 65.9067 148.079 74.36H150.079ZM154.921 53.2314C158.139 47.2098 162.643 42.6055 168.443 39.3949L167.474 37.6451C161.328 41.0478 156.552 45.9369 153.157 52.2886L154.921 53.2314ZM168.455 39.3882C174.256 36.0733 181.013 34.4 188.759 34.4V32.4C180.717 32.4 173.608 34.14 167.463 37.6518L168.455 39.3882ZM188.759 34.4C196.39 34.4 202.977 36.1232 208.557 39.5333L209.6 37.8267C203.66 34.1968 196.701 32.4 188.759 32.4V34.4ZM208.569 39.5403C214.161 42.8541 218.513 47.5121 221.631 53.5394L223.407 52.6206C220.125 46.2745 215.516 41.3325 209.589 37.8197L208.569 39.5403ZM221.634 53.5457C224.746 59.4584 226.319 66.3865 226.319 74.36H228.319C228.319 66.1202 226.692 58.8616 223.404 52.6142L221.634 53.5457ZM226.319 74.36V81.24H228.319V74.36H226.319ZM227.319 80.24H169.559V82.24H227.319V80.24ZM168.56 81.2792C168.783 86.9729 170.918 91.6617 174.974 95.2674L176.303 93.7726C172.68 90.5517 170.761 86.3871 170.558 81.2008L168.56 81.2792ZM174.974 95.2674C179.013 98.857 183.948 100.64 189.719 100.64V98.64C184.396 98.64 179.945 97.0097 176.303 93.7726L174.974 95.2674ZM189.719 100.64C195.488 100.64 199.945 99.3925 202.876 96.6959L201.522 95.2241C199.119 97.4342 195.256 98.64 189.719 98.64V100.64ZM202.876 96.6959C205.629 94.1627 207.739 91.3382 209.186 88.2211L207.372 87.3789C206.046 90.2351 204.102 92.8506 201.522 95.2241L202.876 96.6959ZM207.814 88.6857L224.294 97.3257L225.223 95.5543L208.743 86.9143L207.814 88.6857ZM223.878 95.9659C222.431 98.654 220.293 101.633 217.445 104.903L218.953 106.217C221.864 102.874 224.1 99.7727 225.639 96.9141L223.878 95.9659ZM217.443 104.905C214.774 107.985 211.155 110.684 206.552 112.986L207.446 114.774C212.23 112.383 216.077 109.535 218.954 106.215L217.443 104.905ZM206.568 112.978C202.051 115.133 196.238 116.24 189.079 116.24V118.24C196.426 118.24 202.559 117.107 207.429 114.782L206.568 112.978ZM169.719 67.2H206.839V65.2H169.719V67.2ZM207.834 66.1074C207.385 61.278 205.404 57.3486 201.881 54.3938L200.596 55.9262C203.686 58.5181 205.439 61.9487 205.843 66.2926L207.834 66.1074ZM201.894 54.4043C198.472 51.4389 194.007 50 188.599 50V52C193.643 52 197.605 53.3344 200.584 55.9157L201.894 54.4043ZM188.599 50C182.988 50 178.412 51.4328 174.984 54.4043L176.294 55.9157C179.265 53.3405 183.329 52 188.599 52V50ZM174.984 54.4043C171.589 57.3463 169.512 61.2457 168.732 66.0393L170.706 66.3607C171.419 61.981 173.288 58.5204 176.294 55.9157L174.984 54.4043ZM245.263 115H244.263V116H245.263V115ZM245.263 2.99999V1.99999H244.263V2.99999H245.263ZM265.423 2.99999H266.423V1.99999H265.423V2.99999ZM265.423 115V116H266.423V115H265.423ZM246.263 115V2.99999H244.263V115H246.263ZM245.263 3.99999H265.423V1.99999H245.263V3.99999ZM264.423 2.99999V115H266.423V2.99999H264.423ZM265.423 114H245.263V116H265.423V114ZM297.203 114.36L296.79 115.271L296.799 115.275L296.809 115.279L297.203 114.36ZM286.483 105.72L285.65 106.275L285.659 106.288L285.669 106.301L286.483 105.72ZM286.483 78.2L285.669 77.6188L285.666 77.6233L286.483 78.2ZM297.363 69.88L297.73 70.81L297.741 70.8055L297.363 69.88ZM335.123 67V68H336.123V67H335.123ZM331.603 53.4L330.88 54.0912L330.888 54.0992L330.895 54.1071L331.603 53.4ZM309.203 53.24L309.877 53.9785L309.885 53.9707L309.894 53.9626L309.203 53.24ZM304.403 62.04L304.084 62.9879L305.154 63.3477L305.382 62.2416L304.403 62.04ZM285.843 55.8L284.889 55.4989L284.593 56.435L285.524 56.7479L285.843 55.8ZM291.923 44.76L291.158 44.1151L291.156 44.1174L291.923 44.76ZM303.283 36.6L303.679 37.5181L303.689 37.5138L303.283 36.6ZM345.523 41.24L344.871 41.9983L344.871 41.9983L345.523 41.24ZM365.523 98.36H366.523V97.36H365.523V98.36ZM365.523 115V116H366.523V115H365.523ZM342.323 112.12L341.723 112.92L341.723 112.92L342.323 112.12ZM338.483 104.28H339.483V103.28H338.483V104.28ZM335.443 104.28V103.28H334.722L334.494 103.964L335.443 104.28ZM332.563 109.4L333.368 109.993L333.375 109.983L333.382 109.973L332.563 109.4ZM325.523 114.84L325.97 115.734L325.523 114.84ZM329.683 96.28L330.343 97.0312L330.344 97.0298L329.683 96.28ZM335.123 82.04H336.123V81.04H335.123V82.04ZM306.003 84.44L306.603 85.24L306.603 85.24L306.003 84.44ZM306.163 98.2L305.533 98.9772L305.533 98.9772L306.163 98.2ZM312.403 116.24C306.863 116.24 301.934 115.3 297.596 113.441L296.809 115.279C301.431 117.26 306.635 118.24 312.403 118.24V116.24ZM297.615 113.449C293.283 111.489 289.853 108.718 287.296 105.139L285.669 106.301C288.445 110.188 292.162 113.177 296.79 115.271L297.615 113.449ZM287.315 105.165C284.882 101.517 283.643 97.0786 283.643 91.8H281.643C281.643 97.4014 282.963 102.243 285.65 106.275L287.315 105.165ZM283.643 91.8C283.643 86.5193 284.883 82.1998 287.299 78.7767L285.666 77.6233C282.962 81.4536 281.643 86.2007 281.643 91.8H283.643ZM287.296 78.7812C289.842 75.2165 293.309 72.558 297.73 70.81L296.995 68.95C292.243 70.8287 288.456 73.7168 285.669 77.6188L287.296 78.7812ZM297.741 70.8055C302.295 68.9426 307.496 68 313.363 68V66C307.282 66 301.817 66.9774 296.984 68.9545L297.741 70.8055ZM313.363 68H335.123V66H313.363V68ZM336.123 67V62.52H334.123V67H336.123ZM336.123 62.52C336.123 58.5576 334.868 55.2512 332.31 52.6929L330.895 54.1071C333.03 56.2421 334.123 59.0157 334.123 62.52H336.123ZM332.325 52.7088C329.712 49.977 325.658 48.72 320.403 48.72V50.72C325.387 50.72 328.8 51.9163 330.88 54.0912L332.325 52.7088ZM320.403 48.72C315.253 48.72 311.223 49.9236 308.511 52.5174L309.894 53.9626C312.089 51.8631 315.525 50.72 320.403 50.72V48.72ZM308.528 52.5015C305.901 54.9 304.207 58.0298 303.423 61.8383L305.382 62.2416C306.091 58.7968 307.597 56.06 309.877 53.9785L308.528 52.5015ZM304.721 61.0921L286.161 54.8521L285.524 56.7479L304.084 62.9879L304.721 61.0921ZM286.796 56.1011C288.036 52.1748 289.998 48.6104 292.689 45.4026L291.156 44.1174C288.3 47.5229 286.209 51.3186 284.889 55.4989L286.796 56.1011ZM292.687 45.4049C295.453 42.1259 299.107 39.4923 303.679 37.5181L302.886 35.6819C298.071 37.7611 294.152 40.5674 291.158 44.1151L292.687 45.4049ZM303.689 37.5138C308.329 35.4516 313.996 34.4 320.723 34.4V32.4C313.796 32.4 307.836 33.4817 302.876 35.6862L303.689 37.5138ZM320.723 34.4C331.011 34.4 339.021 36.9699 344.871 41.9983L346.174 40.4817C339.864 35.0568 331.341 32.4 320.723 32.4V34.4ZM344.871 41.9983C350.678 46.991 353.643 54.2563 353.643 63.96H355.643C355.643 53.8237 352.527 45.9424 346.174 40.4817L344.871 41.9983ZM353.643 63.96V93.56H355.643V63.96H353.643ZM353.643 93.56C353.643 95.2976 354.047 96.7871 355.031 97.8423C356.028 98.9105 357.457 99.36 359.123 99.36V97.36C357.802 97.36 356.99 97.0095 356.494 96.4777C355.985 95.9329 355.643 95.0224 355.643 93.56H353.643ZM359.123 99.36H365.523V97.36H359.123V99.36ZM364.523 98.36V115H366.523V98.36H364.523ZM365.523 114H352.083V116H365.523V114ZM352.083 114C348.301 114 345.272 113.082 342.923 111.32L341.723 112.92C344.493 114.998 347.971 116 352.083 116V114ZM342.923 111.32C340.614 109.589 339.483 107.325 339.483 104.44H337.483C337.483 107.955 338.911 110.811 341.723 112.92L342.923 111.32ZM339.483 104.44V104.28H337.483V104.44H339.483ZM338.483 103.28H335.443V105.28H338.483V103.28ZM334.494 103.964C334.114 105.103 333.223 106.713 331.743 108.827L333.382 109.973C334.889 107.82 335.917 106.017 336.391 104.596L334.494 103.964ZM331.757 108.807C330.389 110.664 328.19 112.388 325.075 113.946L325.97 115.734C329.255 114.092 331.749 112.189 333.368 109.993L331.757 108.807ZM325.075 113.946C322.07 115.448 317.871 116.24 312.403 116.24V118.24C318.027 118.24 322.575 117.432 325.97 115.734L325.075 113.946ZM315.923 101.92C321.766 101.92 326.604 100.316 330.343 97.0312L329.022 95.5288C325.721 98.4302 321.385 99.92 315.923 99.92V101.92ZM330.344 97.0298C334.205 93.6234 336.123 89.1275 336.123 83.64H334.123C334.123 88.6058 332.414 92.5366 329.021 95.5302L330.344 97.0298ZM336.123 83.64V82.04H334.123V83.64H336.123ZM335.123 81.04H314.803V83.04H335.123V81.04ZM314.803 81.04C310.937 81.04 307.766 81.8673 305.403 83.64L306.603 85.24C308.506 83.8127 311.201 83.04 314.803 83.04V81.04ZM305.403 83.64C302.995 85.4457 301.803 87.9945 301.803 91.16H303.803C303.803 88.5655 304.743 86.6343 306.603 85.24L305.403 83.64ZM301.803 91.16C301.803 94.342 303.059 96.9742 305.533 98.9772L306.792 97.4228C304.786 95.7991 303.803 93.738 303.803 91.16H301.803ZM305.533 98.9772C308.019 100.99 311.533 101.92 315.923 101.92V99.92C311.779 99.92 308.786 99.037 306.792 97.4228L305.533 98.9772ZM395.02 112.44L394.561 113.328L394.567 113.331L395.02 112.44ZM380.3 52.12L381.159 52.6323L381.159 52.6323L380.3 52.12ZM395.02 38.2L394.567 37.3086L394.561 37.3118L395.02 38.2ZM435.5 37.4L435.06 38.2979L435.06 38.2979L435.5 37.4ZM448.62 48.44L447.803 49.016L447.81 49.0266L447.818 49.037L448.62 48.44ZM455.34 64.12L455.548 65.098L456.497 64.8958L456.324 63.9411L455.34 64.12ZM435.82 68.28L434.829 68.4122L434.972 69.4833L436.028 69.258L435.82 68.28ZM426.54 53.56L426.051 54.4325L426.059 54.4365L426.066 54.4405L426.54 53.56ZM405.42 54.04L405.891 54.9224L405.901 54.9168L405.42 54.04ZM397.74 61.88L396.862 61.4011L396.857 61.4108L397.74 61.88ZM397.74 88.92L396.851 89.378L396.859 89.3943L396.868 89.4103L397.74 88.92ZM405.42 96.76L404.927 97.63L404.944 97.6397L404.961 97.6486L405.42 96.76ZM430.22 94.68L430.927 95.3871L430.927 95.3871L430.22 94.68ZM436.3 82.2L436.531 81.2271L435.49 80.9795L435.314 82.0356L436.3 82.2ZM455.82 86.84L456.791 87.0782L457.031 86.1L456.051 85.8671L455.82 86.84ZM448.62 102.36L447.811 101.772L447.809 101.775L448.62 102.36ZM415.98 116.24C408.443 116.24 401.614 114.671 395.473 111.549L394.567 113.331C401.013 116.609 408.157 118.24 415.98 118.24V116.24ZM395.479 111.552C389.461 108.439 384.692 103.93 381.159 98.0077L379.441 99.0323C383.162 105.27 388.205 110.041 394.561 113.328L395.479 111.552ZM381.159 98.0077C377.643 92.1135 375.86 84.9393 375.86 76.44H373.86C373.86 85.2207 375.704 92.7665 379.441 99.0323L381.159 98.0077ZM375.86 76.44V74.2H373.86V76.44H375.86ZM375.86 74.2C375.86 65.7007 377.643 58.5265 381.159 52.6323L379.441 51.6077C375.704 57.8735 373.86 65.4193 373.86 74.2H375.86ZM381.159 52.6323C384.692 46.7096 389.461 42.2011 395.479 39.0882L394.561 37.3118C388.205 40.5989 383.162 45.3704 379.441 51.6077L381.159 52.6323ZM395.473 39.0914C401.614 35.9689 408.443 34.4 415.98 34.4V32.4C408.157 32.4 401.013 34.0311 394.567 37.3086L395.473 39.0914ZM415.98 34.4C423.438 34.4 429.787 35.7131 435.06 38.2979L435.94 36.5021C430.333 33.7536 423.669 32.4 415.98 32.4V34.4ZM435.06 38.2979C440.358 40.8949 444.598 44.4676 447.803 49.016L449.437 47.864C446.029 43.0258 441.522 39.2384 435.94 36.5021L435.06 38.2979ZM447.818 49.037C451.135 53.4948 453.316 58.577 454.356 64.2989L456.324 63.9411C455.231 57.9296 452.931 52.5585 449.422 47.843L447.818 49.037ZM455.132 63.142L435.612 67.302L436.028 69.258L455.548 65.098L455.132 63.142ZM436.811 68.1478C436.369 64.8285 435.37 61.8202 433.804 59.1361L432.076 60.1439C433.497 62.5798 434.418 65.3315 434.829 68.4122L436.811 68.1478ZM433.804 59.1361C432.212 56.407 429.939 54.2544 427.014 52.6795L426.066 54.4405C428.688 55.8522 430.682 57.753 432.076 60.1439L433.804 59.1361ZM427.029 52.6875C424.172 51.0877 420.631 50.32 416.46 50.32V52.32C420.396 52.32 423.575 53.0457 426.051 54.4325L427.029 52.6875ZM416.46 50.32C412.252 50.32 408.404 51.263 404.939 53.1632L405.901 54.9168C409.049 53.1903 412.562 52.32 416.46 52.32V50.32ZM404.949 53.1576C401.559 54.9658 398.865 57.7286 396.862 61.4011L398.618 62.3588C400.455 58.9914 402.881 56.5276 405.891 54.9224L404.949 53.1576ZM396.857 61.4108C394.947 65.0052 394.02 69.3902 394.02 74.52H396.02C396.02 69.6231 396.906 65.5815 398.623 62.3492L396.857 61.4108ZM394.02 74.52V76.12H396.02V74.52H394.02ZM394.02 76.12C394.02 81.2513 394.948 85.6837 396.851 89.378L398.629 88.462C396.905 85.1163 396.02 81.0154 396.02 76.12H394.02ZM396.868 89.4103C398.872 92.9716 401.558 95.7211 404.927 97.63L405.913 95.89C402.882 94.1723 400.448 91.6951 398.612 88.4297L396.868 89.4103ZM404.961 97.6486C408.422 99.4349 412.262 100.32 416.46 100.32V98.32C412.552 98.32 409.031 97.4985 405.879 95.8714L404.961 97.6486ZM416.46 100.32C422.7 100.32 427.583 98.7312 430.927 95.3871L429.513 93.9729C426.67 96.8155 422.38 98.32 416.46 98.32V100.32ZM430.927 95.3871C434.295 92.0188 436.404 87.6587 437.286 82.3644L435.314 82.0356C434.489 86.9813 432.545 90.9412 429.513 93.9729L430.927 95.3871ZM436.069 83.1729L455.589 87.8129L456.051 85.8671L436.531 81.2271L436.069 83.1729ZM454.849 86.6018C453.493 92.1294 451.148 97.1838 447.811 101.772L449.429 102.948C452.919 98.1495 455.374 92.8573 456.791 87.0782L454.849 86.6018ZM447.809 101.775C444.605 106.219 440.363 109.742 435.06 112.342L435.94 114.138C441.517 111.404 446.022 107.674 449.431 102.945L447.809 101.775ZM435.06 112.342C429.787 114.927 423.438 116.24 415.98 116.24V118.24C423.669 118.24 430.333 116.886 435.94 114.138L435.06 112.342ZM472.45 115H471.45V116H472.45V115ZM472.45 35.64V34.64H471.45V35.64H472.45ZM492.61 35.64H493.61V34.64H492.61V35.64ZM492.61 115V116H493.61V115H492.61ZM473.25 22.84L472.559 23.5626L472.566 23.57L472.574 23.5771L473.25 22.84ZM473.25 4.27999L472.574 3.54284L472.566 3.55001L472.559 3.55735L473.25 4.27999ZM473.45 115V35.64H471.45V115H473.45ZM472.45 36.64H492.61V34.64H472.45V36.64ZM491.61 35.64V115H493.61V35.64H491.61ZM492.61 114H472.45V116H492.61V114ZM482.53 25.36C479.141 25.36 476.293 24.2724 473.926 22.1028L472.574 23.5771C475.327 26.1009 478.665 27.36 482.53 27.36V25.36ZM473.941 22.1174C471.712 19.9849 470.57 17.1663 470.57 13.56H468.57C468.57 17.6337 469.882 21.0018 472.559 23.5626L473.941 22.1174ZM470.57 13.56C470.57 9.95365 471.712 7.13513 473.941 5.00264L472.559 3.55735C469.882 6.1182 468.57 9.48634 468.57 13.56H470.57ZM473.926 5.01715C476.293 2.8476 479.141 1.75999 482.53 1.75999V-0.240007C478.665 -0.240007 475.327 1.01905 472.574 3.54284L473.926 5.01715ZM482.53 1.75999C486.034 1.75999 488.871 2.85244 491.119 5.00264L492.501 3.55735C489.842 1.01421 486.493 -0.240007 482.53 -0.240007V1.75999ZM491.119 5.00264C493.348 7.13513 494.49 9.95365 494.49 13.56H496.49C496.49 9.48634 495.178 6.1182 492.501 3.55735L491.119 5.00264ZM494.49 13.56C494.49 17.1663 493.348 19.9849 491.119 22.1174L492.501 23.5626C495.178 21.0018 496.49 17.6337 496.49 13.56H494.49ZM491.119 22.1174C488.871 24.2675 486.034 25.36 482.53 25.36V27.36C486.493 27.36 489.842 26.1058 492.501 23.5626L491.119 22.1174ZM531.43 112.44L530.977 113.331L531.43 112.44ZM516.55 52.12L517.409 52.6323L517.409 52.6323L516.55 52.12ZM531.43 38.2L531.883 39.0914L531.883 39.0914L531.43 38.2ZM573.99 38.2L573.537 39.0914L573.537 39.0914L573.99 38.2ZM588.87 52.12L588.011 52.6323L588.011 52.6323L588.87 52.12ZM588.87 98.52L588.011 98.0077L588.011 98.0077L588.87 98.52ZM573.99 112.44L573.537 111.549L573.537 111.549L573.99 112.44ZM568.07 93.4L568.768 94.1165L568.777 94.1071L568.07 93.4ZM568.07 57.4L567.354 58.0976L567.363 58.1072L567.372 58.1165L568.07 57.4ZM537.35 57.4L538.048 58.1165L538.057 58.1071L537.35 57.4ZM537.35 93.4L536.643 94.1072L536.652 94.1165L537.35 93.4ZM552.71 116.24C544.955 116.24 538.02 114.669 531.883 111.549L530.977 113.331C537.426 116.611 544.678 118.24 552.71 118.24V116.24ZM531.883 111.549C525.759 108.434 520.939 103.926 517.409 98.0077L515.691 99.0323C519.414 105.274 524.515 110.046 530.977 113.331L531.883 111.549ZM517.409 98.0077C513.892 92.1117 512.11 84.9901 512.11 76.6H510.11C510.11 85.2766 511.955 92.7683 515.691 99.0323L517.409 98.0077ZM512.11 76.6V74.04H510.11V76.6H512.11ZM512.11 74.04C512.11 65.6499 513.892 58.5283 517.409 52.6323L515.691 51.6077C511.955 57.8717 510.11 65.3634 510.11 74.04H512.11ZM517.409 52.6323C520.939 46.7139 525.759 42.2056 531.883 39.0914L530.977 37.3086C524.515 40.5944 519.414 45.3661 515.691 51.6077L517.409 52.6323ZM531.883 39.0914C538.02 35.9708 544.955 34.4 552.71 34.4V32.4C544.678 32.4 537.426 34.0291 530.977 37.3086L531.883 39.0914ZM552.71 34.4C560.465 34.4 567.4 35.9708 573.537 39.0914L574.443 37.3086C567.994 34.0291 560.742 32.4 552.71 32.4V34.4ZM573.537 39.0914C579.661 42.2056 584.481 46.7139 588.011 52.6323L589.729 51.6077C586.006 45.3661 580.905 40.5944 574.443 37.3086L573.537 39.0914ZM588.011 52.6323C591.528 58.5283 593.31 65.6499 593.31 74.04H595.31C595.31 65.3634 593.465 57.8717 589.729 51.6077L588.011 52.6323ZM593.31 74.04V76.6H595.31V74.04H593.31ZM593.31 76.6C593.31 84.9901 591.528 92.1117 588.011 98.0077L589.729 99.0323C593.465 92.7683 595.31 85.2766 595.31 76.6H593.31ZM588.011 98.0077C584.481 103.926 579.661 108.434 573.537 111.549L574.443 113.331C580.905 110.046 586.006 105.274 589.729 99.0323L588.011 98.0077ZM573.537 111.549C567.4 114.669 560.465 116.24 552.71 116.24V118.24C560.742 118.24 567.994 116.611 574.443 113.331L573.537 111.549ZM552.71 100.32C559.131 100.32 564.509 98.2628 568.768 94.1165L567.372 92.6835C563.524 96.4306 558.663 98.32 552.71 98.32V100.32ZM568.777 94.1071C573.07 89.8144 575.15 83.7683 575.15 76.12H573.15C573.15 83.405 571.177 88.8789 567.363 92.6929L568.777 94.1071ZM575.15 76.12V74.52H573.15V76.12H575.15ZM575.15 74.52C575.15 66.8733 573.07 60.873 568.768 56.6835L567.372 58.1165C571.176 61.8203 573.15 67.2333 573.15 74.52H575.15ZM568.786 56.7024C564.629 52.4331 559.24 50.32 552.71 50.32V52.32C558.767 52.32 563.617 54.2603 567.354 58.0976L568.786 56.7024ZM552.71 50.32C546.281 50.32 540.9 52.4362 536.643 56.6929L538.057 58.1071C541.907 54.2571 546.765 52.32 552.71 52.32V50.32ZM536.652 56.6835C532.35 60.873 530.27 66.8733 530.27 74.52H532.27C532.27 67.2333 534.244 61.8203 538.048 58.1165L536.652 56.6835ZM530.27 74.52V76.12H532.27V74.52H530.27ZM530.27 76.12C530.27 83.7683 532.35 89.8144 536.643 94.1071L538.057 92.6929C534.243 88.8789 532.27 83.405 532.27 76.12H530.27ZM536.652 94.1165C540.911 98.2628 546.289 100.32 552.71 100.32V98.32C546.757 98.32 541.896 96.4306 538.048 92.6835L536.652 94.1165ZM612.919 115H611.919V116H612.919V115ZM612.919 35.64V34.64H611.919V35.64H612.919ZM632.759 35.64H633.759V34.64H632.759V35.64ZM632.759 46.04H631.759V47.04H632.759V46.04ZM635.639 46.04V47.04H636.279L636.547 46.4591L635.639 46.04ZM642.839 38.2L643.411 39.0204L643.419 39.0146L643.427 39.0087L642.839 38.2ZM674.999 38.68L674.467 39.5269L674.478 39.5341L674.49 39.5409L674.999 38.68ZM685.879 50.36L684.988 50.8148L684.992 50.8226L685.879 50.36ZM689.719 115V116H690.719V115H689.719ZM669.559 115H668.559V116H669.559V115ZM665.079 55.8L664.359 56.4941L664.365 56.5007L664.372 56.5071L665.079 55.8ZM638.199 57.56L638.964 58.2042L638.972 58.1943L638.199 57.56ZM633.079 115V116H634.079V115H633.079ZM613.919 115V35.64H611.919V115H613.919ZM612.919 36.64H632.759V34.64H612.919V36.64ZM631.759 35.64V46.04H633.759V35.64H631.759ZM632.759 47.04H635.639V45.04H632.759V47.04ZM636.547 46.4591C637.728 43.8994 639.98 41.4112 643.411 39.0204L642.267 37.3796C638.657 39.8954 636.109 42.634 634.731 45.6209L636.547 46.4591ZM643.427 39.0087C646.698 36.6301 651.78 35.36 658.839 35.36V33.36C651.605 33.36 646.02 34.6499 642.251 37.3913L643.427 39.0087ZM658.839 35.36C664.865 35.36 670.061 36.7606 674.467 39.5269L675.531 37.8331C670.763 34.8394 665.186 33.36 658.839 33.36V35.36ZM674.49 39.5409C679.015 42.2145 682.511 45.9645 684.988 50.8148L686.769 49.9052C684.126 44.7288 680.37 40.6921 675.507 37.8191L674.49 39.5409ZM684.992 50.8226C687.464 55.5611 688.719 61.1565 688.719 67.64H690.719C690.719 60.8968 689.413 54.9722 686.765 49.8974L684.992 50.8226ZM688.719 67.64V115H690.719V67.64H688.719ZM689.719 114H669.559V116H689.719V114ZM670.559 115V69.24H668.559V115H670.559ZM670.559 69.24C670.559 63.1125 669.026 58.3332 665.786 55.0929L664.372 56.5071C667.105 59.2401 668.559 63.4208 668.559 69.24H670.559ZM665.799 55.1059C662.677 51.8682 658.222 50.32 652.599 50.32V52.32C657.856 52.32 661.721 53.7585 664.359 56.4941L665.799 55.1059ZM652.599 50.32C646.163 50.32 641.059 52.498 637.426 56.9257L638.972 58.1943C642.165 54.302 646.661 52.32 652.599 52.32V50.32ZM637.434 56.9159C633.819 61.2086 632.079 67.1753 632.079 74.68H634.079C634.079 67.4647 635.752 62.018 638.964 58.2041L637.434 56.9159ZM632.079 74.68V115H634.079V74.68H632.079ZM633.079 114H612.919V116H633.079V114ZM726.713 112.28L726.216 113.148L726.225 113.153L726.235 113.158L726.713 112.28ZM712.633 98.04L711.751 98.5114L711.755 98.5205L711.761 98.5295L712.633 98.04ZM712.633 52.76L713.511 53.2378L713.514 53.2314L712.633 52.76ZM726.553 38.52L727.037 39.395L727.049 39.3882L726.553 38.52ZM767.673 38.68L767.151 39.5334L767.163 39.5403L767.673 38.68ZM781.112 53.08L780.224 53.5394L780.228 53.5457L781.112 53.08ZM785.913 81.24V82.24H786.913V81.24H785.913ZM728.153 81.24V80.24H727.113L727.153 81.2792L728.153 81.24ZM760.793 95.96L760.115 95.2241L760.793 95.96ZM766.873 87.8L767.337 86.9143L766.407 86.4271L765.965 87.3789L766.873 87.8ZM783.353 96.44L784.233 96.9141L784.712 96.0238L783.817 95.5543L783.353 96.44ZM776.793 105.56L776.038 104.903L776.037 104.905L776.793 105.56ZM765.593 113.88L766.023 114.782L766.032 114.779L766.04 114.774L765.593 113.88ZM728.313 66.2L727.325 66.0393L727.137 67.2H728.313V66.2ZM765.433 66.2V67.2H766.53L766.428 66.1074L765.433 66.2ZM759.833 55.16L759.178 55.9157L759.184 55.921L759.19 55.9262L759.833 55.16ZM747.673 116.24C739.922 116.24 733.104 114.618 727.19 111.402L726.235 113.158C732.481 116.556 739.636 118.24 747.673 118.24V116.24ZM727.209 111.412C721.395 108.09 716.83 103.475 713.504 97.5505L711.761 98.5295C715.261 104.765 720.084 109.644 726.216 113.148L727.209 111.412ZM713.514 97.5686C710.299 91.5517 708.673 84.4661 708.673 76.28H706.673C706.673 84.7339 708.353 92.1549 711.751 98.5114L713.514 97.5686ZM708.673 76.28V74.36H706.673V76.28H708.673ZM708.673 74.36C708.673 66.1733 710.299 59.1442 713.511 53.2378L711.754 52.2822C708.353 58.5358 706.673 65.9067 706.673 74.36H708.673ZM713.514 53.2314C716.733 47.2098 721.237 42.6055 727.037 39.3949L726.068 37.6451C719.921 41.0478 715.145 45.9369 711.751 52.2886L713.514 53.2314ZM727.049 39.3882C732.85 36.0733 739.607 34.4 747.352 34.4V32.4C739.311 32.4 732.202 34.14 726.056 37.6518L727.049 39.3882ZM747.352 34.4C754.984 34.4 761.571 36.1232 767.151 39.5333L768.194 37.8267C762.254 34.1968 755.294 32.4 747.352 32.4V34.4ZM767.163 39.5403C772.755 42.8541 777.107 47.5121 780.224 53.5394L782.001 52.6206C778.718 46.2745 774.11 41.3325 768.182 37.8197L767.163 39.5403ZM780.228 53.5457C783.339 59.4584 784.913 66.3865 784.913 74.36H786.913C786.913 66.1202 785.286 58.8616 781.997 52.6142L780.228 53.5457ZM784.913 74.36V81.24H786.913V74.36H784.913ZM785.913 80.24H728.153V82.24H785.913V80.24ZM727.153 81.2792C727.377 86.9729 729.512 91.6617 733.568 95.2674L734.897 93.7726C731.273 90.5517 729.355 86.3871 729.152 81.2008L727.153 81.2792ZM733.568 95.2674C737.606 98.857 742.542 100.64 748.313 100.64V98.64C742.99 98.64 738.539 97.0097 734.897 93.7726L733.568 95.2674ZM748.313 100.64C754.082 100.64 758.539 99.3925 761.47 96.6959L760.115 95.2241C757.713 97.4342 753.85 98.64 748.313 98.64V100.64ZM761.47 96.6959C764.223 94.1627 766.332 91.3382 767.78 88.2211L765.965 87.3789C764.639 90.2351 762.695 92.8506 760.115 95.2241L761.47 96.6959ZM766.408 88.6857L782.888 97.3257L783.817 95.5543L767.337 86.9143L766.408 88.6857ZM782.472 95.9659C781.025 98.654 778.887 101.633 776.038 104.903L777.547 106.217C780.458 102.874 782.694 99.7727 784.233 96.9141L782.472 95.9659ZM776.037 104.905C773.367 107.985 769.748 110.684 765.145 112.986L766.04 114.774C770.823 112.383 774.671 109.535 777.548 106.215L776.037 104.905ZM765.162 112.978C760.645 115.133 754.832 116.24 747.673 116.24V118.24C755.02 118.24 761.153 117.107 766.023 114.782L765.162 112.978ZM728.313 67.2H765.433V65.2H728.313V67.2ZM766.428 66.1074C765.979 61.278 763.998 57.3486 760.475 54.3938L759.19 55.9262C762.28 58.5181 764.033 61.9487 764.437 66.2926L766.428 66.1074ZM760.487 54.4043C757.066 51.4389 752.601 50 747.193 50V52C752.237 52 756.199 53.3344 759.178 55.9157L760.487 54.4043ZM747.193 50C741.582 50 737.006 51.4328 733.578 54.4043L734.887 55.9157C737.859 53.3405 741.923 52 747.193 52V50ZM733.578 54.4043C730.183 57.3463 728.106 61.2457 727.325 66.0393L729.3 66.3607C730.012 61.981 731.882 58.5204 734.887 55.9157L733.578 54.4043ZM811.376 110.52L811.937 109.692L811.937 109.692L811.376 110.52ZM799.376 91.32L799.126 90.3519L798.239 90.5811L798.39 91.4844L799.376 91.32ZM817.936 86.52L818.917 86.3239L818.709 85.2871L817.686 85.5519L817.936 86.52ZM821.616 95.32L820.835 95.9447L820.845 95.9563L820.854 95.9676L821.616 95.32ZM828.176 99.96L827.825 100.896L827.848 100.905L827.871 100.912L828.176 99.96ZM847.216 98.84L847.797 99.6537L847.81 99.6448L847.822 99.6354L847.216 98.84ZM847.376 87L846.831 87.8384L846.846 87.8482L846.862 87.8575L847.376 87ZM837.136 83.64L837.315 82.6561L837.312 82.6556L837.136 83.64ZM832.656 82.84L832.467 83.8221L832.48 83.8244L832.656 82.84ZM817.456 78.52L817.07 79.4424L817.079 79.4463L817.089 79.45L817.456 78.52ZM806.416 70.68L805.65 71.3226L805.65 71.3226L806.416 70.68ZM810.896 39.8L811.482 40.6107L811.491 40.6036L810.896 39.8ZM855.696 39.32L855.138 40.1497L855.138 40.1497L855.696 39.32ZM867.216 54.84L867.51 55.7958L868.445 55.5082L868.178 54.5674L867.216 54.84ZM848.496 60.6L847.518 60.806L847.743 61.8779L848.79 61.5558L848.496 60.6ZM843.216 51.96L842.662 52.792L842.669 52.7972L842.677 52.8023L843.216 51.96ZM824.816 51.48L825.35 52.3255L825.366 52.3157L825.381 52.3053L824.816 51.48ZM824.976 62.68L824.462 63.5375L824.478 63.5472L824.494 63.5562L824.976 62.68ZM833.616 65.4L833.792 64.4156L833.79 64.4152L833.616 65.4ZM854.256 70.52L853.903 71.4555L853.915 71.4601L853.928 71.4645L854.256 70.52ZM865.776 78.04L865.01 78.6826L865.021 78.696L865.033 78.709L865.776 78.04ZM860.976 110.52L861.576 111.32L861.578 111.318L860.976 110.52ZM836.816 116.24C826.611 116.24 818.342 114.031 811.937 109.692L810.815 111.348C817.637 115.969 826.328 118.24 836.816 118.24V116.24ZM811.937 109.692C805.564 105.375 801.707 99.2224 800.363 91.1556L798.39 91.4844C799.819 100.058 803.962 106.705 810.815 111.348L811.937 109.692ZM799.627 92.2881L818.187 87.4881L817.686 85.5519L799.126 90.3519L799.627 92.2881ZM816.956 86.7161C817.722 90.548 818.997 93.6472 820.835 95.9447L822.397 94.6953C820.822 92.7261 819.644 89.9587 818.917 86.3239L816.956 86.7161ZM820.854 95.9676C822.775 98.2273 825.102 99.8751 827.825 100.896L828.527 99.0237C826.131 98.1249 824.084 96.6793 822.378 94.6724L820.854 95.9676ZM827.871 100.912C830.646 101.8 833.63 102.24 836.816 102.24V100.24C833.816 100.24 831.039 99.8263 828.481 99.0076L827.871 100.912ZM836.816 102.24C841.586 102.24 845.305 101.434 847.797 99.6537L846.635 98.0263C844.647 99.4462 841.433 100.24 836.816 100.24V102.24ZM847.822 99.6354C850.269 97.7714 851.576 95.4144 851.576 92.6H849.576C849.576 94.6923 848.644 96.4953 846.61 98.0446L847.822 99.6354ZM851.576 92.6C851.576 89.7894 850.32 87.6001 847.891 86.1425L846.862 87.8575C848.699 88.9599 849.576 90.504 849.576 92.6H851.576ZM847.921 86.1616C845.618 84.6643 842.045 83.5161 837.315 82.6561L836.957 84.6239C841.614 85.4706 844.868 86.5624 846.831 87.8384L847.921 86.1616ZM837.312 82.6556L832.832 81.8556L832.48 83.8244L836.96 84.6244L837.312 82.6556ZM832.845 81.858C827.351 80.8014 822.345 79.3775 817.824 77.59L817.089 79.45C821.741 81.2892 826.868 82.7452 832.467 83.822L832.845 81.858ZM817.842 77.5976C813.38 75.7298 809.839 73.2044 807.182 70.0374L805.65 71.3226C808.541 74.7689 812.359 77.4702 817.07 79.4424L817.842 77.5976ZM807.182 70.0374C804.59 66.9467 803.256 62.9232 803.256 57.88H801.256C801.256 63.2901 802.696 67.7999 805.65 71.3226L807.182 70.0374ZM803.256 57.88C803.256 50.2665 806.014 44.5597 811.482 40.6107L810.311 38.9893C804.259 43.3603 801.256 49.7068 801.256 57.88H803.256ZM811.491 40.6036C817.033 36.4989 824.378 34.4 833.616 34.4V32.4C824.081 32.4 816.28 34.5677 810.301 38.9964L811.491 40.6036ZM833.616 34.4C842.321 34.4 849.474 36.3391 855.138 40.1497L856.254 38.4903C850.186 34.4075 842.618 32.4 833.616 32.4V34.4ZM855.138 40.1497C860.822 43.9733 864.51 48.9553 866.254 55.1126L868.178 54.5674C866.296 47.9247 862.304 42.56 856.254 38.4903L855.138 40.1497ZM866.922 53.8842L848.202 59.6442L848.79 61.5558L867.51 55.7958L866.922 53.8842ZM849.475 60.394C848.584 56.1626 846.711 53.0096 843.755 51.1177L842.677 52.8023C845.054 54.3237 846.702 56.9307 847.518 60.806L849.475 60.394ZM843.771 51.1279C841.01 49.2874 837.605 48.4 833.616 48.4V50.4C837.308 50.4 840.302 51.2193 842.662 52.792L843.771 51.1279ZM833.616 48.4C829.68 48.4 826.514 49.1066 824.252 50.6547L825.381 52.3053C827.172 51.0801 829.873 50.4 833.616 50.4V48.4ZM824.282 50.6345C821.973 52.0929 820.776 54.2214 820.776 56.92H822.776C822.776 54.9253 823.606 53.427 825.35 52.3255L824.282 50.6345ZM820.776 56.92C820.776 59.8188 822.017 62.0704 824.462 63.5375L825.491 61.8225C823.669 60.7296 822.776 59.1412 822.776 56.92H820.776ZM824.494 63.5562C826.76 64.8021 829.757 65.7345 833.442 66.3848L833.79 64.4152C830.222 63.7855 827.46 62.9045 825.458 61.8038L824.494 63.5562ZM833.44 66.3844L837.92 67.1844L838.272 65.2156L833.792 64.4156L833.44 66.3844ZM837.92 67.1844C843.844 68.2422 849.17 69.6674 853.903 71.4555L854.61 69.5845C849.743 67.7459 844.295 66.2912 838.272 65.2156L837.92 67.1844ZM853.928 71.4645C858.699 73.124 862.374 75.54 865.01 78.6826L866.542 77.3974C863.632 73.9267 859.627 71.3293 854.585 69.5755L853.928 71.4645ZM865.033 78.709C867.704 81.6773 869.096 85.7871 869.096 91.16H871.096C871.096 85.4396 869.608 80.8027 866.52 77.371L865.033 78.709ZM869.096 91.16C869.096 99.1997 866.178 105.343 860.374 109.722L861.578 111.318C867.935 106.523 871.096 99.7603 871.096 91.16H869.096ZM860.376 109.72C854.628 114.031 846.809 116.24 836.816 116.24V118.24C847.09 118.24 855.377 115.969 861.576 111.32L860.376 109.72ZM928.388 147H927.388V148H928.388V147ZM928.388 35.64V34.64H927.388V35.64H928.388ZM948.228 35.64H949.228V34.64H948.228V35.64ZM948.228 45.24H947.228V46.24H948.228V45.24ZM951.108 45.24V46.24H951.68L951.97 45.7457L951.108 45.24ZM959.588 37.08L960.109 37.9333L960.117 37.9281L960.126 37.9227L959.588 37.08ZM993.828 38.2L993.32 39.0619L993.327 39.0657L993.333 39.0693L993.828 38.2ZM1006.95 51.96L1007.83 51.4822L1007.83 51.4822L1006.95 51.96ZM1006.95 98.68L1007.83 99.1578L1007.83 99.1578L1006.95 98.68ZM993.828 112.6L994.322 113.469L994.328 113.466L994.335 113.462L993.828 112.6ZM963.908 115.48L964.242 114.538L964.233 114.534L964.224 114.531L963.908 115.48ZM956.068 111.32L955.381 112.047L955.402 112.067L955.423 112.085L956.068 111.32ZM951.428 105.88L952.267 105.337L951.972 104.88H951.428V105.88ZM948.548 105.88V104.88H947.548V105.88H948.548ZM948.548 147V148H949.548V147H948.548ZM985.508 93.72L986.205 94.4365L986.205 94.4362L985.508 93.72ZM985.508 57.08L984.81 57.7963L984.819 57.8055L985.508 57.08ZM954.468 57.08L955.156 57.8055L955.165 57.7962L954.468 57.08ZM954.468 93.72L953.77 94.4363L953.779 94.4455L954.468 93.72ZM929.388 147V35.64H927.388V147H929.388ZM928.388 36.64H948.228V34.64H928.388V36.64ZM947.228 35.64V45.24H949.228V35.64H947.228ZM948.228 46.24H951.108V44.24H948.228V46.24ZM951.97 45.7457C953.682 42.8264 956.374 40.2155 960.109 37.9333L959.066 36.2267C955.121 38.6378 952.16 41.467 950.245 44.7343L951.97 45.7457ZM960.126 37.9227C963.738 35.615 969.012 34.4 976.068 34.4V32.4C968.83 32.4 963.117 33.6383 959.049 36.2373L960.126 37.9227ZM976.068 34.4C982.292 34.4 988.036 35.9537 993.32 39.0619L994.335 37.3381C988.739 34.0463 982.643 32.4 976.068 32.4V34.4ZM993.333 39.0693C998.594 42.0609 1002.84 46.5036 1006.07 52.4378L1007.83 51.4822C1004.44 45.2564 999.941 40.5258 994.322 37.3307L993.333 39.0693ZM1006.07 52.4378C1009.28 58.3391 1010.91 65.5261 1010.91 74.04H1012.91C1012.91 65.2739 1011.23 57.7409 1007.83 51.4822L1006.07 52.4378ZM1010.91 74.04V76.6H1012.91V74.04H1010.91ZM1010.91 76.6C1010.91 85.1139 1009.28 92.3009 1006.07 98.2022L1007.83 99.1578C1011.23 92.8991 1012.91 85.3661 1012.91 76.6H1010.91ZM1006.07 98.2022C1002.84 104.139 998.589 108.639 993.32 111.738L994.335 113.462C999.946 110.161 1004.44 105.381 1007.83 99.1578L1006.07 98.2022ZM993.333 111.731C988.047 114.736 982.298 116.24 976.068 116.24V118.24C982.637 118.24 988.728 116.65 994.322 113.469L993.333 111.731ZM976.068 116.24C971.342 116.24 967.41 115.662 964.242 114.538L963.573 116.422C967.019 117.645 971.193 118.24 976.068 118.24V116.24ZM964.224 114.531C961.112 113.494 958.619 112.161 956.712 110.555L955.423 112.085C957.569 113.892 960.303 115.332 963.591 116.429L964.224 114.531ZM956.754 110.593C954.88 108.823 953.389 107.07 952.267 105.337L950.588 106.423C951.813 108.317 953.415 110.19 955.381 112.047L956.754 110.593ZM951.428 104.88H948.548V106.88H951.428V104.88ZM947.548 105.88V147H949.548V105.88H947.548ZM948.548 146H928.388V148H948.548V146ZM969.988 100.64C976.509 100.64 981.943 98.5861 986.205 94.4365L984.81 93.0035C980.965 96.7473 976.052 98.64 969.988 98.64V100.64ZM986.205 94.4362C990.615 90.1397 992.748 83.9793 992.748 76.12H990.748C990.748 83.6207 988.72 89.1936 984.81 93.0038L986.205 94.4362ZM992.748 76.12V74.52H990.748V76.12H992.748ZM992.748 74.52C992.748 66.6625 990.616 60.5477 986.196 56.3545L984.819 57.8055C988.719 61.5057 990.748 67.0175 990.748 74.52H992.748ZM986.205 56.3638C981.846 52.1158 976.416 50 969.988 50V52C975.932 52 980.849 53.9375 984.81 57.7962L986.205 56.3638ZM969.988 50C963.559 50 958.129 52.1158 953.77 56.3638L955.165 57.7962C959.126 53.9375 964.043 52 969.988 52V50ZM953.779 56.3545C949.359 60.5477 947.228 66.6625 947.228 74.52H949.228C949.228 67.0175 951.256 61.5057 955.156 57.8055L953.779 56.3545ZM947.228 74.52V76.12H949.228V74.52H947.228ZM947.228 76.12C947.228 83.9793 949.36 90.1397 953.77 94.4362L955.165 93.0038C951.255 89.1936 949.228 83.6207 949.228 76.12H947.228ZM953.779 94.4455C958.141 98.5831 963.567 100.64 969.988 100.64V98.64C964.035 98.64 959.114 96.7503 955.156 92.9945L953.779 94.4455ZM1044.34 112.12L1043.81 112.967L1043.82 112.974L1043.83 112.981L1044.34 112.12ZM1029.78 35.64V34.64H1028.78V35.64H1029.78ZM1049.94 35.64H1050.94V34.64H1049.94V35.64ZM1054.26 94.84L1053.54 95.5341L1053.55 95.5407L1053.55 95.5471L1054.26 94.84ZM1081.3 93.24L1082.06 93.8842L1082.07 93.8743L1081.3 93.24ZM1086.42 35.64V34.64H1085.42V35.64H1086.42ZM1106.58 35.64H1107.58V34.64H1106.58V35.64ZM1106.58 115V116H1107.58V115H1106.58ZM1086.74 115H1085.74V116H1086.74V115ZM1086.74 104.6H1087.74V103.6H1086.74V104.6ZM1083.86 104.6V103.6H1083.23L1082.96 104.167L1083.86 104.6ZM1076.66 112.44L1077.25 113.249L1077.25 113.249L1076.66 112.44ZM1056.02 26.68L1055.12 26.2328L1054.4 27.68H1056.02V26.68ZM1067.86 2.99999V1.99999H1067.24L1066.96 2.55278L1067.86 2.99999ZM1090.58 2.99999L1091.39 3.58227L1092.52 1.99999H1090.58V2.99999ZM1073.62 26.68V27.68H1074.13L1074.43 27.2623L1073.62 26.68ZM1060.66 115.28C1054.63 115.28 1049.37 113.93 1044.85 111.259L1043.83 112.981C1048.7 115.857 1054.32 117.28 1060.66 117.28V115.28ZM1044.87 111.273C1040.44 108.493 1036.99 104.684 1034.51 99.8252L1032.73 100.735C1035.37 105.902 1039.06 109.987 1043.81 112.967L1044.87 111.273ZM1034.51 99.8252C1032.03 94.9732 1030.78 89.3733 1030.78 83H1028.78C1028.78 89.6401 1030.09 95.5602 1032.73 100.735L1034.51 99.8252ZM1030.78 83V35.64H1028.78V83H1030.78ZM1029.78 36.64H1049.94V34.64H1029.78V36.64ZM1048.94 35.64V81.4H1050.94V35.64H1048.94ZM1048.94 81.4C1048.94 87.5186 1050.41 92.2928 1053.54 95.5341L1054.98 94.1459C1052.34 91.4139 1050.94 87.2281 1050.94 81.4H1048.94ZM1053.55 95.5471C1056.78 98.7711 1061.27 100.32 1066.9 100.32V98.32C1061.64 98.32 1057.72 96.8822 1054.97 94.1329L1053.55 95.5471ZM1066.9 100.32C1073.33 100.32 1078.43 98.202 1082.06 93.8841L1080.53 92.5959C1077.34 96.3847 1072.85 98.32 1066.9 98.32V100.32ZM1082.07 93.8743C1085.68 89.4795 1087.42 83.4667 1087.42 75.96H1085.42C1085.42 83.1733 1083.75 88.6805 1080.53 92.6057L1082.07 93.8743ZM1087.42 75.96V35.64H1085.42V75.96H1087.42ZM1086.42 36.64H1106.58V34.64H1086.42V36.64ZM1105.58 35.64V115H1107.58V35.64H1105.58ZM1106.58 114H1086.74V116H1106.58V114ZM1087.74 115V104.6H1085.74V115H1087.74ZM1086.74 103.6H1083.86V105.6H1086.74V103.6ZM1082.96 104.167C1081.77 106.631 1079.52 109.126 1076.07 111.631L1077.25 113.249C1080.84 110.634 1083.38 107.903 1084.76 105.033L1082.96 104.167ZM1076.07 111.631C1072.8 114.01 1067.72 115.28 1060.66 115.28V117.28C1067.89 117.28 1073.48 115.99 1077.25 113.249L1076.07 111.631ZM1056.91 27.1272L1068.75 3.44721L1066.96 2.55278L1055.12 26.2328L1056.91 27.1272ZM1067.86 3.99999H1090.58V1.99999H1067.86V3.99999ZM1089.77 2.41772L1072.81 26.0977L1074.43 27.2623L1091.39 3.58227L1089.77 2.41772ZM1073.62 25.68H1056.02V27.68H1073.62V25.68ZM1160.21 113.56L1159.67 114.403L1159.67 114.403L1160.21 113.56ZM1151.73 105.4L1152.59 104.881L1152.3 104.4H1151.73V105.4ZM1148.85 105.4V104.4H1147.85V105.4H1148.85ZM1148.85 115V116H1149.85V115H1148.85ZM1129.01 115H1128.01V116H1129.01V115ZM1129.01 2.99999V1.99999H1128.01V2.99999H1129.01ZM1149.17 2.99999H1150.17V1.99999H1149.17V2.99999ZM1149.17 44.76H1148.17V45.76H1149.17V44.76ZM1152.05 44.76V45.76H1152.61L1152.91 45.2814L1152.05 44.76ZM1156.69 39.32L1156.05 38.5551L1156.04 38.5637L1156.03 38.5726L1156.69 39.32ZM1164.53 35.16L1164.85 36.1087L1164.86 36.1056L1164.87 36.1024L1164.53 35.16ZM1194.45 38.2L1193.95 39.0619L1193.95 39.0657L1193.96 39.0693L1194.45 38.2ZM1207.57 51.96L1208.45 51.4822L1208.45 51.4822L1207.57 51.96ZM1207.57 98.68L1208.45 99.1578L1208.45 99.1578L1207.57 98.68ZM1194.45 112.6L1194.95 113.469L1194.95 113.466L1194.96 113.462L1194.45 112.6ZM1186.13 93.72L1186.82 94.4455L1186.83 94.4362L1186.13 93.72ZM1186.13 57.08L1185.43 57.7871L1185.43 57.7964L1185.44 57.8055L1186.13 57.08ZM1155.09 57.08L1155.78 57.8055L1155.79 57.7962L1155.09 57.08ZM1155.09 93.72L1154.39 94.4363L1154.4 94.4455L1155.09 93.72ZM1176.69 116.24C1169.64 116.24 1164.36 115.025 1160.75 112.717L1159.67 114.403C1163.74 117.002 1169.45 118.24 1176.69 118.24V116.24ZM1160.75 112.717C1157 110.322 1154.3 107.704 1152.59 104.881L1150.88 105.919C1152.79 109.07 1155.74 111.891 1159.67 114.403L1160.75 112.717ZM1151.73 104.4H1148.85V106.4H1151.73V104.4ZM1147.85 105.4V115H1149.85V105.4H1147.85ZM1148.85 114H1129.01V116H1148.85V114ZM1130.01 115V2.99999H1128.01V115H1130.01ZM1129.01 3.99999H1149.17V1.99999H1129.01V3.99999ZM1148.17 2.99999V44.76H1150.17V2.99999H1148.17ZM1149.17 45.76H1152.05V43.76H1149.17V45.76ZM1152.91 45.2814C1154.02 43.4566 1155.5 41.7176 1157.36 40.0674L1156.03 38.5726C1154.04 40.3357 1152.43 42.2234 1151.2 44.2385L1152.91 45.2814ZM1157.34 40.0849C1159.24 38.4786 1161.74 37.1458 1164.85 36.1087L1164.22 34.2113C1160.93 35.3075 1158.19 36.7481 1156.05 38.5551L1157.34 40.0849ZM1164.87 36.1024C1168.03 34.9784 1171.97 34.4 1176.69 34.4V32.4C1171.82 32.4 1167.64 32.995 1164.2 34.2176L1164.87 36.1024ZM1176.69 34.4C1182.92 34.4 1188.66 35.9537 1193.95 39.0619L1194.96 37.3381C1189.36 34.0463 1183.27 32.4 1176.69 32.4V34.4ZM1193.96 39.0693C1199.22 42.0609 1203.47 46.5036 1206.69 52.4378L1208.45 51.4822C1205.07 45.2564 1200.57 40.5258 1194.95 37.3307L1193.96 39.0693ZM1206.69 52.4378C1209.9 58.3391 1211.53 65.5261 1211.53 74.04H1213.53C1213.53 65.2739 1211.85 57.7409 1208.45 51.4822L1206.69 52.4378ZM1211.53 74.04V76.6H1213.53V74.04H1211.53ZM1211.53 76.6C1211.53 85.1139 1209.9 92.3009 1206.69 98.2022L1208.45 99.1578C1211.85 92.8991 1213.53 85.3661 1213.53 76.6H1211.53ZM1206.69 98.2022C1203.47 104.139 1199.21 108.639 1193.95 111.738L1194.96 113.462C1200.57 110.161 1205.07 105.381 1208.45 99.1578L1206.69 98.2022ZM1193.96 111.731C1188.67 114.736 1182.92 116.24 1176.69 116.24V118.24C1183.26 118.24 1189.35 116.65 1194.95 113.469L1193.96 111.731ZM1170.61 100.64C1177.03 100.64 1182.46 98.5831 1186.82 94.4455L1185.44 92.9945C1181.49 96.7503 1176.57 98.64 1170.61 98.64V100.64ZM1186.83 94.4362C1191.24 90.1397 1193.37 83.9793 1193.37 76.12H1191.37C1191.37 83.6207 1189.35 89.1936 1185.43 93.0038L1186.83 94.4362ZM1193.37 76.12V74.52H1191.37V76.12H1193.37ZM1193.37 74.52C1193.37 66.6625 1191.24 60.5477 1186.82 56.3545L1185.44 57.8055C1189.34 61.5057 1191.37 67.0175 1191.37 74.52H1193.37ZM1186.84 56.3729C1182.58 52.1128 1177.14 50 1170.61 50V52C1176.67 52 1181.58 53.9406 1185.43 57.7871L1186.84 56.3729ZM1170.61 50C1164.18 50 1158.75 52.1158 1154.39 56.3638L1155.79 57.7962C1159.75 53.9375 1164.67 52 1170.61 52V50ZM1154.4 56.3545C1149.98 60.5477 1147.85 66.6625 1147.85 74.52H1149.85C1149.85 67.0175 1151.88 61.5057 1155.78 57.8055L1154.4 56.3545ZM1147.85 74.52V76.12H1149.85V74.52H1147.85ZM1147.85 76.12C1147.85 83.9793 1149.99 90.1397 1154.39 94.4362L1155.79 93.0038C1151.88 89.1936 1149.85 83.6207 1149.85 76.12H1147.85ZM1154.4 94.4455C1158.77 98.5831 1164.19 100.64 1170.61 100.64V98.64C1164.66 98.64 1159.74 96.7503 1155.78 92.9945L1154.4 94.4455ZM1231.04 115H1230.04V116H1231.04V115ZM1231.04 2.99999V1.99999H1230.04V2.99999H1231.04ZM1251.2 2.99999H1252.2V1.99999H1251.2V2.99999ZM1251.2 115V116H1252.2V115H1251.2ZM1232.04 115V2.99999H1230.04V115H1232.04ZM1231.04 3.99999H1251.2V1.99999H1231.04V3.99999ZM1250.2 2.99999V115H1252.2V2.99999H1250.2ZM1251.2 114H1231.04V116H1251.2V114ZM1273.54 115H1272.54V116H1273.54V115ZM1273.54 35.64V34.64H1272.54V35.64H1273.54ZM1293.7 35.64H1294.7V34.64H1293.7V35.64ZM1293.7 115V116H1294.7V115H1293.7ZM1274.34 22.84L1273.65 23.5626L1273.66 23.57L1273.67 23.5771L1274.34 22.84ZM1274.34 4.27999L1273.67 3.54284L1273.66 3.55001L1273.65 3.55735L1274.34 4.27999ZM1274.54 115V35.64H1272.54V115H1274.54ZM1273.54 36.64H1293.7V34.64H1273.54V36.64ZM1292.7 35.64V115H1294.7V35.64H1292.7ZM1293.7 114H1273.54V116H1293.7V114ZM1283.62 25.36C1280.24 25.36 1277.39 24.2724 1275.02 22.1028L1273.67 23.5771C1276.42 26.1009 1279.76 27.36 1283.62 27.36V25.36ZM1275.03 22.1174C1272.81 19.9849 1271.66 17.1663 1271.66 13.56H1269.66C1269.66 17.6337 1270.98 21.0018 1273.65 23.5626L1275.03 22.1174ZM1271.66 13.56C1271.66 9.95365 1272.81 7.13513 1275.03 5.00264L1273.65 3.55735C1270.98 6.1182 1269.66 9.48634 1269.66 13.56H1271.66ZM1275.02 5.01715C1277.39 2.8476 1280.24 1.75999 1283.62 1.75999V-0.240007C1279.76 -0.240007 1276.42 1.01905 1273.67 3.54284L1275.02 5.01715ZM1283.62 1.75999C1287.13 1.75999 1289.96 2.85244 1292.21 5.00264L1293.59 3.55735C1290.94 1.01421 1287.59 -0.240007 1283.62 -0.240007V1.75999ZM1292.21 5.00264C1294.44 7.13513 1295.58 9.95365 1295.58 13.56H1297.58C1297.58 9.48634 1296.27 6.1182 1293.59 3.55735L1292.21 5.00264ZM1295.58 13.56C1295.58 17.1663 1294.44 19.9849 1292.21 22.1174L1293.59 23.5626C1296.27 21.0018 1297.58 17.6337 1297.58 13.56H1295.58ZM1292.21 22.1174C1289.96 24.2675 1287.13 25.36 1283.62 25.36V27.36C1287.59 27.36 1290.94 26.1058 1293.59 23.5626L1292.21 22.1174ZM1332.36 112.44L1331.9 113.328L1331.91 113.331L1332.36 112.44ZM1317.64 52.12L1318.5 52.6323L1318.5 52.6323L1317.64 52.12ZM1332.36 38.2L1331.91 37.3086L1331.9 37.3118L1332.36 38.2ZM1372.84 37.4L1372.4 38.2979L1372.4 38.2979L1372.84 37.4ZM1385.96 48.44L1385.15 49.016L1385.15 49.0266L1385.16 49.037L1385.96 48.44ZM1392.68 64.12L1392.89 65.098L1393.84 64.8958L1393.67 63.9411L1392.68 64.12ZM1373.16 68.28L1372.17 68.4122L1372.32 69.4833L1373.37 69.258L1373.16 68.28ZM1363.88 53.56L1363.4 54.4325L1363.4 54.4365L1363.41 54.4405L1363.88 53.56ZM1342.76 54.04L1343.23 54.9224L1343.24 54.9168L1342.76 54.04ZM1335.08 61.88L1334.21 61.4011L1334.2 61.4108L1335.08 61.88ZM1335.08 88.92L1334.19 89.378L1334.2 89.3943L1334.21 89.4103L1335.08 88.92ZM1342.76 96.76L1342.27 97.63L1342.29 97.6397L1342.31 97.6486L1342.76 96.76ZM1367.56 94.68L1368.27 95.3871L1368.27 95.3871L1367.56 94.68ZM1373.64 82.2L1373.88 81.2271L1372.83 80.9795L1372.66 82.0356L1373.64 82.2ZM1393.16 86.84L1394.13 87.0782L1394.37 86.1L1393.4 85.8671L1393.16 86.84ZM1385.96 102.36L1385.16 101.772L1385.15 101.775L1385.96 102.36ZM1353.32 116.24C1345.79 116.24 1338.96 114.671 1332.82 111.549L1331.91 113.331C1338.36 116.609 1345.5 118.24 1353.32 118.24V116.24ZM1332.82 111.552C1326.8 108.439 1322.04 103.93 1318.5 98.0077L1316.78 99.0323C1320.51 105.27 1325.55 110.041 1331.9 113.328L1332.82 111.552ZM1318.5 98.0077C1314.99 92.1135 1313.2 84.9393 1313.2 76.44H1311.2C1311.2 85.2207 1313.05 92.7665 1316.78 99.0323L1318.5 98.0077ZM1313.2 76.44V74.2H1311.2V76.44H1313.2ZM1313.2 74.2C1313.2 65.7007 1314.99 58.5265 1318.5 52.6323L1316.78 51.6077C1313.05 57.8735 1311.2 65.4193 1311.2 74.2H1313.2ZM1318.5 52.6323C1322.04 46.7096 1326.8 42.2011 1332.82 39.0882L1331.9 37.3118C1325.55 40.5989 1320.51 45.3704 1316.78 51.6077L1318.5 52.6323ZM1332.82 39.0914C1338.96 35.9689 1345.79 34.4 1353.32 34.4V32.4C1345.5 32.4 1338.36 34.0311 1331.91 37.3086L1332.82 39.0914ZM1353.32 34.4C1360.78 34.4 1367.13 35.7131 1372.4 38.2979L1373.28 36.5021C1367.68 33.7536 1361.01 32.4 1353.32 32.4V34.4ZM1372.4 38.2979C1377.7 40.8949 1381.94 44.4676 1385.15 49.016L1386.78 47.864C1383.37 43.0258 1378.87 39.2384 1373.28 36.5021L1372.4 38.2979ZM1385.16 49.037C1388.48 53.4948 1390.66 58.577 1391.7 64.2989L1393.67 63.9411C1392.57 57.9296 1390.28 52.5585 1386.77 47.843L1385.16 49.037ZM1392.48 63.142L1372.96 67.302L1373.37 69.258L1392.89 65.098L1392.48 63.142ZM1374.15 68.1478C1373.71 64.8285 1372.71 61.8202 1371.15 59.1361L1369.42 60.1439C1370.84 62.5798 1371.76 65.3315 1372.17 68.4122L1374.15 68.1478ZM1371.15 59.1361C1369.56 56.407 1367.28 54.2544 1364.36 52.6795L1363.41 54.4405C1366.03 55.8522 1368.03 57.753 1369.42 60.1439L1371.15 59.1361ZM1364.37 52.6875C1361.52 51.0877 1357.97 50.32 1353.8 50.32V52.32C1357.74 52.32 1360.92 53.0457 1363.4 54.4325L1364.37 52.6875ZM1353.8 50.32C1349.6 50.32 1345.75 51.263 1342.28 53.1632L1343.24 54.9168C1346.39 53.1903 1349.91 52.32 1353.8 52.32V50.32ZM1342.29 53.1576C1338.9 54.9658 1336.21 57.7286 1334.21 61.4011L1335.96 62.3588C1337.8 58.9914 1340.22 56.5276 1343.23 54.9224L1342.29 53.1576ZM1334.2 61.4108C1332.29 65.0052 1331.36 69.3902 1331.36 74.52H1333.36C1333.36 69.6231 1334.25 65.5815 1335.97 62.3492L1334.2 61.4108ZM1331.36 74.52V76.12H1333.36V74.52H1331.36ZM1331.36 76.12C1331.36 81.2513 1332.29 85.6837 1334.19 89.378L1335.97 88.462C1334.25 85.1163 1333.36 81.0154 1333.36 76.12H1331.36ZM1334.21 89.4103C1336.22 92.9716 1338.9 95.7211 1342.27 97.63L1343.26 95.89C1340.23 94.1723 1337.79 91.6951 1335.96 88.4297L1334.21 89.4103ZM1342.31 97.6486C1345.77 99.4349 1349.61 100.32 1353.8 100.32V98.32C1349.9 98.32 1346.37 97.4985 1343.22 95.8714L1342.31 97.6486ZM1353.8 100.32C1360.04 100.32 1364.93 98.7312 1368.27 95.3871L1366.86 93.9729C1364.01 96.8155 1359.72 98.32 1353.8 98.32V100.32ZM1368.27 95.3871C1371.64 92.0188 1373.75 87.6587 1374.63 82.3644L1372.66 82.0356C1371.83 86.9813 1369.89 90.9412 1366.86 93.9729L1368.27 95.3871ZM1373.41 83.1729L1392.93 87.8129L1393.4 85.8671L1373.88 81.2271L1373.41 83.1729ZM1392.19 86.6018C1390.84 92.1294 1388.49 97.1838 1385.16 101.772L1386.77 102.948C1390.26 98.1495 1392.72 92.8573 1394.13 87.0782L1392.19 86.6018ZM1385.15 101.775C1381.95 106.219 1377.71 109.742 1372.4 112.342L1373.28 114.138C1378.86 111.404 1383.37 107.674 1386.77 102.945L1385.15 101.775ZM1372.4 112.342C1367.13 114.927 1360.78 116.24 1353.32 116.24V118.24C1361.01 118.24 1367.68 116.886 1373.28 114.138L1372.4 112.342ZM1419.23 114.36L1418.82 115.271L1418.83 115.275L1418.84 115.279L1419.23 114.36ZM1408.51 105.72L1407.68 106.275L1407.69 106.288L1407.7 106.301L1408.51 105.72ZM1408.51 78.2L1407.7 77.6188L1407.7 77.6233L1408.51 78.2ZM1419.39 69.88L1419.76 70.81L1419.77 70.8055L1419.39 69.88ZM1457.15 67V68H1458.15V67H1457.15ZM1453.63 53.4L1452.91 54.0912L1452.92 54.0992L1452.93 54.1071L1453.63 53.4ZM1431.23 53.24L1431.91 53.9785L1431.92 53.9707L1431.92 53.9626L1431.23 53.24ZM1426.43 62.04L1426.12 62.9879L1427.19 63.3477L1427.41 62.2416L1426.43 62.04ZM1407.87 55.8L1406.92 55.4989L1406.62 56.435L1407.56 56.7479L1407.87 55.8ZM1413.95 44.76L1413.19 44.1151L1413.19 44.1174L1413.95 44.76ZM1425.31 36.6L1425.71 37.5181L1425.72 37.5138L1425.31 36.6ZM1467.55 41.24L1466.9 41.9983L1466.9 41.9983L1467.55 41.24ZM1487.55 98.36H1488.55V97.36H1487.55V98.36ZM1487.55 115V116H1488.55V115H1487.55ZM1464.35 112.12L1463.75 112.92L1463.75 112.92L1464.35 112.12ZM1460.51 104.28H1461.51V103.28H1460.51V104.28ZM1457.47 104.28V103.28H1456.75L1456.53 103.964L1457.47 104.28ZM1454.59 109.4L1455.4 109.993L1455.41 109.983L1455.41 109.973L1454.59 109.4ZM1447.55 114.84L1448 115.734L1447.55 114.84ZM1451.71 96.28L1452.37 97.0312L1452.38 97.0298L1451.71 96.28ZM1457.15 82.04H1458.15V81.04H1457.15V82.04ZM1428.03 84.44L1428.63 85.24L1428.63 85.24L1428.03 84.44ZM1428.19 98.2L1427.56 98.9772L1427.56 98.9772L1428.19 98.2ZM1434.43 116.24C1428.89 116.24 1423.96 115.3 1419.63 113.441L1418.84 115.279C1423.46 117.26 1428.67 118.24 1434.43 118.24V116.24ZM1419.65 113.449C1415.31 111.489 1411.88 108.718 1409.33 105.139L1407.7 106.301C1410.48 110.188 1414.19 113.177 1418.82 115.271L1419.65 113.449ZM1409.35 105.165C1406.91 101.517 1405.67 97.0786 1405.67 91.8H1403.67C1403.67 97.4014 1404.99 102.243 1407.68 106.275L1409.35 105.165ZM1405.67 91.8C1405.67 86.5193 1406.91 82.1998 1409.33 78.7767L1407.7 77.6233C1404.99 81.4536 1403.67 86.2007 1403.67 91.8H1405.67ZM1409.33 78.7812C1411.87 75.2165 1415.34 72.558 1419.76 70.81L1419.03 68.95C1414.27 70.8287 1410.49 73.7168 1407.7 77.6188L1409.33 78.7812ZM1419.77 70.8055C1424.33 68.9426 1429.53 68 1435.39 68V66C1429.31 66 1423.85 66.9774 1419.02 68.9545L1419.77 70.8055ZM1435.39 68H1457.15V66H1435.39V68ZM1458.15 67V62.52H1456.15V67H1458.15ZM1458.15 62.52C1458.15 58.5576 1456.9 55.2512 1454.34 52.6929L1452.93 54.1071C1455.06 56.2421 1456.15 59.0157 1456.15 62.52H1458.15ZM1454.36 52.7088C1451.74 49.977 1447.69 48.72 1442.43 48.72V50.72C1447.42 50.72 1450.83 51.9163 1452.91 54.0912L1454.36 52.7088ZM1442.43 48.72C1437.28 48.72 1433.25 49.9236 1430.54 52.5174L1431.92 53.9626C1434.12 51.8631 1437.56 50.72 1442.43 50.72V48.72ZM1430.56 52.5015C1427.93 54.9 1426.24 58.0298 1425.45 61.8383L1427.41 62.2416C1428.12 58.7968 1429.63 56.06 1431.91 53.9785L1430.56 52.5015ZM1426.75 61.0921L1408.19 54.8521L1407.56 56.7479L1426.12 62.9879L1426.75 61.0921ZM1408.83 56.1011C1410.07 52.1748 1412.03 48.6104 1414.72 45.4026L1413.19 44.1174C1410.33 47.5229 1408.24 51.3186 1406.92 55.4989L1408.83 56.1011ZM1414.72 45.4049C1417.48 42.1259 1421.14 39.4923 1425.71 37.5181L1424.92 35.6819C1420.1 37.7611 1416.18 40.5674 1413.19 44.1151L1414.72 45.4049ZM1425.72 37.5138C1430.36 35.4516 1436.03 34.4 1442.75 34.4V32.4C1435.83 32.4 1429.87 33.4817 1424.91 35.6862L1425.72 37.5138ZM1442.75 34.4C1453.04 34.4 1461.05 36.9699 1466.9 41.9983L1468.21 40.4817C1461.9 35.0568 1453.37 32.4 1442.75 32.4V34.4ZM1466.9 41.9983C1472.71 46.991 1475.67 54.2563 1475.67 63.96H1477.67C1477.67 53.8237 1474.56 45.9424 1468.21 40.4817L1466.9 41.9983ZM1475.67 63.96V93.56H1477.67V63.96H1475.67ZM1475.67 93.56C1475.67 95.2976 1476.08 96.7871 1477.06 97.8423C1478.06 98.9105 1479.49 99.36 1481.15 99.36V97.36C1479.83 97.36 1479.02 97.0095 1478.52 96.4777C1478.02 95.9329 1477.67 95.0224 1477.67 93.56H1475.67ZM1481.15 99.36H1487.55V97.36H1481.15V99.36ZM1486.55 98.36V115H1488.55V98.36H1486.55ZM1487.55 114H1474.11V116H1487.55V114ZM1474.11 114C1470.33 114 1467.3 113.082 1464.95 111.32L1463.75 112.92C1466.52 114.998 1470 116 1474.11 116V114ZM1464.95 111.32C1462.65 109.589 1461.51 107.325 1461.51 104.44H1459.51C1459.51 107.955 1460.94 110.811 1463.75 112.92L1464.95 111.32ZM1461.51 104.44V104.28H1459.51V104.44H1461.51ZM1460.51 103.28H1457.47V105.28H1460.51V103.28ZM1456.53 103.964C1456.15 105.103 1455.25 106.713 1453.77 108.827L1455.41 109.973C1456.92 107.82 1457.95 106.017 1458.42 104.596L1456.53 103.964ZM1453.79 108.807C1452.42 110.664 1450.22 112.388 1447.11 113.946L1448 115.734C1451.29 114.092 1453.78 112.189 1455.4 109.993L1453.79 108.807ZM1447.11 113.946C1444.1 115.448 1439.9 116.24 1434.43 116.24V118.24C1440.06 118.24 1444.61 117.432 1448 115.734L1447.11 113.946ZM1437.95 101.92C1443.8 101.92 1448.64 100.316 1452.37 97.0312L1451.05 95.5288C1447.75 98.4302 1443.42 99.92 1437.95 99.92V101.92ZM1452.38 97.0298C1456.24 93.6234 1458.15 89.1275 1458.15 83.64H1456.15C1456.15 88.6058 1454.44 92.5366 1451.05 95.5302L1452.38 97.0298ZM1458.15 83.64V82.04H1456.15V83.64H1458.15ZM1457.15 81.04H1436.83V83.04H1457.15V81.04ZM1436.83 81.04C1432.97 81.04 1429.8 81.8673 1427.43 83.64L1428.63 85.24C1430.54 83.8127 1433.23 83.04 1436.83 83.04V81.04ZM1427.43 83.64C1425.03 85.4457 1423.83 87.9945 1423.83 91.16H1425.83C1425.83 88.5655 1426.77 86.6343 1428.63 85.24L1427.43 83.64ZM1423.83 91.16C1423.83 94.342 1425.09 96.9742 1427.56 98.9772L1428.82 97.4228C1426.82 95.7991 1425.83 93.738 1425.83 91.16H1423.83ZM1427.56 98.9772C1430.05 100.99 1433.56 101.92 1437.95 101.92V99.92C1433.81 99.92 1430.82 99.037 1428.82 97.4228L1427.56 98.9772ZM1509.19 110.52L1509.75 109.692L1509.75 109.692L1509.19 110.52ZM1497.19 91.32L1496.94 90.3519L1496.05 90.5811L1496.2 91.4844L1497.19 91.32ZM1515.75 86.52L1516.73 86.3239L1516.52 85.2871L1515.5 85.5519L1515.75 86.52ZM1519.43 95.32L1518.65 95.9447L1518.66 95.9563L1518.67 95.9676L1519.43 95.32ZM1525.99 99.96L1525.64 100.896L1525.66 100.905L1525.68 100.912L1525.99 99.96ZM1545.03 98.84L1545.61 99.6537L1545.62 99.6448L1545.63 99.6354L1545.03 98.84ZM1545.19 87L1544.64 87.8384L1544.66 87.8482L1544.67 87.8575L1545.19 87ZM1534.95 83.64L1535.13 82.6561L1535.12 82.6556L1534.95 83.64ZM1530.47 82.84L1530.28 83.8221L1530.29 83.8244L1530.47 82.84ZM1515.27 78.52L1514.88 79.4424L1514.89 79.4463L1514.9 79.45L1515.27 78.52ZM1504.23 70.68L1503.46 71.3226L1503.46 71.3226L1504.23 70.68ZM1508.71 39.8L1509.29 40.6107L1509.3 40.6036L1508.71 39.8ZM1553.51 39.32L1552.95 40.1497L1552.95 40.1497L1553.51 39.32ZM1565.03 54.84L1565.32 55.7958L1566.26 55.5082L1565.99 54.5674L1565.03 54.84ZM1546.31 60.6L1545.33 60.806L1545.56 61.8779L1546.6 61.5558L1546.31 60.6ZM1541.03 51.96L1540.47 52.792L1540.48 52.7972L1540.49 52.8023L1541.03 51.96ZM1522.63 51.48L1523.16 52.3255L1523.18 52.3157L1523.19 52.3053L1522.63 51.48ZM1522.79 62.68L1522.27 63.5375L1522.29 63.5472L1522.31 63.5562L1522.79 62.68ZM1531.43 65.4L1531.6 64.4156L1531.6 64.4152L1531.43 65.4ZM1552.07 70.52L1551.72 71.4555L1551.73 71.4601L1551.74 71.4645L1552.07 70.52ZM1563.59 78.04L1562.82 78.6826L1562.83 78.696L1562.85 78.709L1563.59 78.04ZM1558.79 110.52L1559.39 111.32L1559.39 111.318L1558.79 110.52ZM1534.63 116.24C1524.42 116.24 1516.15 114.031 1509.75 109.692L1508.63 111.348C1515.45 115.969 1524.14 118.24 1534.63 118.24V116.24ZM1509.75 109.692C1503.38 105.375 1499.52 99.2224 1498.18 91.1556L1496.2 91.4844C1497.63 100.058 1501.77 106.705 1508.63 111.348L1509.75 109.692ZM1497.44 92.2881L1516 87.4881L1515.5 85.5519L1496.94 90.3519L1497.44 92.2881ZM1514.77 86.7161C1515.53 90.548 1516.81 93.6472 1518.65 95.9447L1520.21 94.6953C1518.63 92.7261 1517.46 89.9587 1516.73 86.3239L1514.77 86.7161ZM1518.67 95.9676C1520.59 98.2273 1522.91 99.8751 1525.64 100.896L1526.34 99.0237C1523.94 98.1249 1521.9 96.6793 1520.19 94.6724L1518.67 95.9676ZM1525.68 100.912C1528.46 101.8 1531.44 102.24 1534.63 102.24V100.24C1531.63 100.24 1528.85 99.8263 1526.29 99.0076L1525.68 100.912ZM1534.63 102.24C1539.4 102.24 1543.12 101.434 1545.61 99.6537L1544.45 98.0263C1542.46 99.4462 1539.25 100.24 1534.63 100.24V102.24ZM1545.63 99.6354C1548.08 97.7714 1549.39 95.4144 1549.39 92.6H1547.39C1547.39 94.6923 1546.46 96.4953 1544.42 98.0446L1545.63 99.6354ZM1549.39 92.6C1549.39 89.7894 1548.13 87.6001 1545.7 86.1425L1544.67 87.8575C1546.51 88.9599 1547.39 90.504 1547.39 92.6H1549.39ZM1545.73 86.1616C1543.43 84.6643 1539.86 83.5161 1535.13 82.6561L1534.77 84.6239C1539.43 85.4706 1542.68 86.5624 1544.64 87.8384L1545.73 86.1616ZM1535.12 82.6556L1530.64 81.8556L1530.29 83.8244L1534.77 84.6244L1535.12 82.6556ZM1530.66 81.858C1525.16 80.8014 1520.16 79.3775 1515.64 77.59L1514.9 79.45C1519.55 81.2892 1524.68 82.7452 1530.28 83.822L1530.66 81.858ZM1515.65 77.5976C1511.19 75.7298 1507.65 73.2044 1504.99 70.0374L1503.46 71.3226C1506.35 74.7689 1510.17 77.4702 1514.88 79.4424L1515.65 77.5976ZM1504.99 70.0374C1502.4 66.9467 1501.07 62.9232 1501.07 57.88H1499.07C1499.07 63.2901 1500.51 67.7999 1503.46 71.3226L1504.99 70.0374ZM1501.07 57.88C1501.07 50.2665 1503.83 44.5597 1509.29 40.6107L1508.12 38.9893C1502.07 43.3603 1499.07 49.7068 1499.07 57.88H1501.07ZM1509.3 40.6036C1514.85 36.4989 1522.19 34.4 1531.43 34.4V32.4C1521.89 32.4 1514.09 34.5677 1508.11 38.9964L1509.3 40.6036ZM1531.43 34.4C1540.13 34.4 1547.29 36.3391 1552.95 40.1497L1554.07 38.4903C1548 34.4075 1540.43 32.4 1531.43 32.4V34.4ZM1552.95 40.1497C1558.63 43.9733 1562.32 48.9553 1564.07 55.1126L1565.99 54.5674C1564.11 47.9247 1560.12 42.56 1554.07 38.4903L1552.95 40.1497ZM1564.73 53.8842L1546.01 59.6442L1546.6 61.5558L1565.32 55.7958L1564.73 53.8842ZM1547.29 60.394C1546.4 56.1626 1544.52 53.0096 1541.57 51.1177L1540.49 52.8023C1542.87 54.3237 1544.51 56.9307 1545.33 60.806L1547.29 60.394ZM1541.58 51.1279C1538.82 49.2874 1535.42 48.4 1531.43 48.4V50.4C1535.12 50.4 1538.11 51.2193 1540.47 52.792L1541.58 51.1279ZM1531.43 48.4C1527.49 48.4 1524.33 49.1066 1522.06 50.6547L1523.19 52.3053C1524.98 51.0801 1527.69 50.4 1531.43 50.4V48.4ZM1522.09 50.6345C1519.79 52.0929 1518.59 54.2214 1518.59 56.92H1520.59C1520.59 54.9253 1521.42 53.427 1523.16 52.3255L1522.09 50.6345ZM1518.59 56.92C1518.59 59.8188 1519.83 62.0704 1522.27 63.5375L1523.3 61.8225C1521.48 60.7296 1520.59 59.1412 1520.59 56.92H1518.59ZM1522.31 63.5562C1524.57 64.8021 1527.57 65.7345 1531.25 66.3848L1531.6 64.4152C1528.03 63.7855 1525.27 62.9045 1523.27 61.8038L1522.31 63.5562ZM1531.25 66.3844L1535.73 67.1844L1536.08 65.2156L1531.6 64.4156L1531.25 66.3844ZM1535.73 67.1844C1541.66 68.2422 1546.98 69.6674 1551.72 71.4555L1552.42 69.5845C1547.56 67.7459 1542.11 66.2912 1536.08 65.2156L1535.73 67.1844ZM1551.74 71.4645C1556.51 73.124 1560.19 75.54 1562.82 78.6826L1564.35 77.3974C1561.44 73.9267 1557.44 71.3293 1552.4 69.5755L1551.74 71.4645ZM1562.85 78.709C1565.52 81.6773 1566.91 85.7871 1566.91 91.16H1568.91C1568.91 85.4396 1567.42 80.8027 1564.33 77.371L1562.85 78.709ZM1566.91 91.16C1566.91 99.1997 1563.99 105.343 1558.19 109.722L1559.39 111.318C1565.75 106.523 1568.91 99.7603 1568.91 91.16H1566.91ZM1558.19 109.72C1552.44 114.031 1544.62 116.24 1534.63 116.24V118.24C1544.9 118.24 1553.19 115.969 1559.39 111.32L1558.19 109.72ZM1621.66 83.32H1620.66V84.32H1621.66V83.32ZM1621.66 65.08V64.08H1620.66V65.08H1621.66ZM1669.02 65.08H1670.02V64.08H1669.02V65.08ZM1669.02 83.32V84.32H1670.02V83.32H1669.02ZM1622.66 83.32V65.08H1620.66V83.32H1622.66ZM1621.66 66.08H1669.02V64.08H1621.66V66.08ZM1668.02 65.08V83.32H1670.02V65.08H1668.02ZM1669.02 82.32H1621.66V84.32H1669.02V82.32Z" fill="black"/>
</g>
<defs>
<clipPath id="clip0_323_12">
<rect width="1678" height="159" fill="white" transform="translate(0 1)"/>
</clipPath>
</defs>
</svg>
